{"glyphs":{"0":{"ha":848,"x_min":41,"x_max":800,"o":"m 414 -26 q 113 162 208 -26 q 41 540 41 306 q 135 883 41 737 q 435 1055 245 1055 q 713 903 614 1055 q 800 582 800 771 q 414 -26 800 -26 m 435 924 q 235 795 309 924 q 173 551 173 688 q 414 104 173 104 q 621 268 558 104 q 664 557 664 382 q 435 924 664 924 z "},"1":{"ha":625,"x_min":107,"x_max":543,"o":"m 477 -1 l 208 0 q 142 6 159 0 q 107 58 107 18 q 214 126 107 128 l 246 125 l 274 124 q 268 220 274 156 q 262 316 262 284 q 278 578 262 401 q 292 840 293 751 q 176 770 201 770 q 129 790 149 770 q 109 837 109 810 q 168 914 109 871 q 271 997 221 955 q 385 1057 331 1057 q 431 1005 431 1057 q 427 959 431 989 q 422 912 422 928 q 425 844 422 890 q 427 777 427 799 q 411 546 427 699 q 395 316 395 393 q 400 222 395 283 q 406 128 406 157 l 477 130 q 524 111 505 130 q 543 64 543 92 q 525 18 543 36 q 477 -1 506 -1 z "},"2":{"ha":848,"x_min":111,"x_max":747,"o":"m 684 -1 q 636 9 667 -1 q 589 20 605 20 q 485 16 554 20 q 380 12 415 12 q 302 5 354 12 q 224 -2 250 -2 q 202 1 216 -2 q 180 3 188 3 q 119 49 134 3 q 111 130 111 74 q 197 385 111 288 q 410 547 237 429 q 539 651 505 613 q 597 804 597 717 q 541 881 597 846 q 444 911 491 911 q 326 876 382 911 l 229 800 q 182 777 199 777 q 112 832 112 777 q 138 887 112 863 q 275 995 220 963 q 444 1042 357 1042 q 640 982 554 1042 q 736 810 736 915 q 657 576 736 671 q 485 439 607 516 q 317 318 358 361 q 243 129 242 240 l 383 142 q 589 150 471 150 q 686 132 641 150 q 747 66 747 109 q 729 19 747 39 q 684 -1 711 -1 z "},"3":{"ha":848,"x_min":99,"x_max":734,"o":"m 410 -31 q 227 12 307 -31 q 103 151 135 60 q 99 174 99 162 q 119 219 99 201 q 168 237 140 237 q 214 212 197 237 l 245 165 q 311 116 267 134 q 410 99 353 99 q 539 144 484 99 q 599 264 599 193 q 523 429 599 368 q 347 492 456 481 q 272 553 272 500 q 331 614 272 593 l 493 654 q 588 770 587 688 q 528 876 589 840 q 403 905 478 905 q 313 882 349 905 l 237 834 q 201 820 214 820 q 154 840 174 820 q 135 888 135 861 q 239 991 135 941 q 387 1035 330 1035 q 612 975 527 1035 q 710 773 710 907 q 581 563 710 614 q 555 553 568 557 q 734 289 734 487 q 640 61 734 153 q 410 -31 546 -31 z "},"4":{"ha":848,"x_min":33,"x_max":806,"o":"m 654 296 l 654 45 q 592 -18 654 -18 q 520 81 520 -18 q 522 113 520 92 q 523 146 523 135 l 522 300 l 223 307 q 94 313 171 309 q 33 361 33 323 q 70 439 33 395 l 128 508 l 462 995 q 577 1058 505 1058 q 654 991 654 1058 l 654 428 q 682 429 665 429 q 806 361 806 429 q 755 300 806 313 q 654 296 731 294 m 522 870 q 239 437 341 581 l 522 431 l 522 870 z "},"5":{"ha":848,"x_min":85,"x_max":782,"o":"m 381 -43 q 98 100 189 -43 q 85 138 85 119 q 106 183 85 164 q 154 203 127 203 q 207 173 182 203 q 261 117 243 130 q 381 87 305 87 q 576 177 500 87 q 650 382 650 262 q 488 621 650 621 q 369 602 415 621 q 295 548 328 584 l 221 467 q 160 437 193 437 q 114 456 133 437 q 95 503 95 475 q 106 623 95 521 q 129 904 129 842 q 117 954 129 924 q 105 998 105 985 q 176 1039 105 1039 q 217 1037 190 1039 q 258 1034 245 1034 q 376 1037 298 1034 q 494 1040 455 1040 q 550 1038 513 1040 q 606 1037 587 1037 q 643 1042 618 1037 q 680 1047 667 1047 q 726 1028 706 1047 q 747 982 747 1008 q 586 906 747 906 q 540 907 572 906 q 494 909 511 909 l 380 907 l 265 903 q 240 677 265 873 q 488 751 333 751 q 715 635 637 751 q 782 382 782 536 q 675 80 782 198 q 381 -43 564 -43 z "},"6":{"ha":848,"x_min":75,"x_max":752,"o":"m 405 -49 q 147 77 231 -49 q 75 365 75 183 q 347 946 75 671 l 411 1010 q 481 1055 455 1055 q 529 1036 509 1055 q 550 990 549 1017 q 481 896 551 964 l 342 761 q 248 593 289 709 q 424 646 365 646 q 667 563 581 646 q 752 322 752 479 q 661 58 752 159 q 405 -49 566 -49 m 405 508 q 300 488 346 508 q 212 435 284 480 q 208 365 208 399 q 248 168 208 244 q 409 69 299 69 q 570 145 514 69 q 620 322 620 213 q 405 508 620 508 z "},"7":{"ha":848,"x_min":47,"x_max":823,"o":"m 783 886 l 721 814 q 559 564 618 694 l 435 294 q 378 137 426 273 q 313 -13 345 39 q 258 -45 293 -45 q 211 -26 231 -45 q 190 20 190 -7 q 233 152 190 45 l 386 526 q 593 867 469 730 l 606 882 l 113 892 q 47 958 47 895 q 66 1004 47 986 q 114 1023 85 1023 q 371 1017 199 1023 q 627 1012 542 1012 l 751 1012 q 823 969 823 1012 q 783 886 823 933 z "},"8":{"ha":848,"x_min":80,"x_max":764,"o":"m 416 -37 q 186 25 274 -37 q 83 233 85 96 q 237 531 80 452 q 116 739 116 604 q 208 951 116 867 q 425 1035 296 1034 q 709 753 709 1038 q 677 628 709 673 q 574 553 650 591 q 716 443 675 502 q 764 252 764 374 q 658 33 764 110 q 416 -37 564 -37 m 422 913 q 248 739 247 913 q 404 604 249 644 q 521 652 486 628 q 577 753 577 690 q 542 877 577 840 q 422 913 507 913 m 410 484 q 267 397 303 435 q 214 239 210 340 q 292 112 216 153 q 416 82 346 82 q 570 125 522 82 q 621 274 621 171 q 552 417 621 362 q 410 484 505 455 z "},"9":{"ha":848,"x_min":76,"x_max":784,"o":"m 532 82 q 373 -6 484 47 q 204 -64 251 -64 q 158 -44 176 -64 q 140 3 140 -24 q 186 64 140 48 l 300 102 q 466 201 393 134 q 577 359 525 254 l 606 417 q 511 378 569 395 q 412 359 450 359 q 190 430 283 359 q 76 677 76 517 q 178 949 76 853 q 454 1042 278 1042 q 678 940 579 1042 q 783 680 783 832 q 720 345 784 508 q 532 82 650 170 m 435 926 q 206 689 207 926 q 272 538 206 592 q 431 486 333 486 q 545 519 486 486 q 642 586 572 534 q 651 680 651 646 q 584 841 650 760 q 435 926 514 926 z "}," ":{"ha":415,"x_min":0,"x_max":0,"o":""},"!":{"ha":330,"x_min":81,"x_max":225,"o":"m 224 1028 l 224 273 q 164 213 224 213 q 104 273 104 213 q 102 356 104 301 q 100 439 100 411 q 102 734 100 537 l 104 1028 q 164 1088 104 1088 q 224 1028 224 1088 m 225 16 q 206 -27 225 -9 q 162 -45 186 -45 q 108 -9 135 -45 q 81 52 81 24 q 101 94 81 77 q 145 111 120 111 q 199 77 172 111 q 225 16 225 43 z "},"\"":{"ha":589,"x_min":79,"x_max":466,"o":"m 199 757 q 203 724 199 746 q 206 690 206 701 q 188 648 206 665 q 144 632 170 632 q 79 748 79 632 q 81 882 79 793 q 83 1017 83 972 q 143 1077 83 1077 q 203 1017 203 1077 q 201 887 203 973 q 199 757 199 800 m 466 1014 q 464 984 466 1004 q 462 955 462 964 l 456 690 q 395 629 454 629 q 352 646 370 629 q 335 689 334 663 l 341 958 q 350 1034 342 1012 q 406 1074 364 1074 q 449 1057 432 1074 q 466 1014 466 1040 z "},"#":{"ha":1171,"x_min":22,"x_max":1157,"o":"m 374 391 l 713 391 l 790 673 l 459 673 l 374 391 m 248 391 l 330 673 l 149 673 q 85 741 85 673 q 185 792 85 792 l 364 792 q 418 1006 391 909 q 497 1069 435 1069 q 534 1051 519 1069 q 549 1011 549 1034 q 531 922 549 985 q 496 792 502 818 l 825 792 q 888 1011 859 911 q 955 1069 905 1069 q 1012 1016 1012 1069 q 956 792 1012 970 l 1088 792 q 1157 741 1157 792 q 1080 670 1157 670 q 1049 671 1069 670 q 1017 673 1028 673 l 918 673 l 846 391 l 985 391 q 1055 384 1035 391 q 1090 330 1090 370 q 1031 267 1090 267 l 812 267 l 751 47 q 675 -19 733 -19 q 620 35 620 -19 q 642 151 620 75 l 675 267 l 336 267 q 265 34 308 157 q 199 -14 248 -14 q 144 39 144 -14 q 160 116 144 66 l 208 267 l 78 267 q 22 334 22 267 q 45 377 22 361 q 92 391 64 391 l 248 391 z "},"$":{"ha":963,"x_min":68,"x_max":831,"o":"m 399 602 l 399 845 q 264 688 264 794 q 399 602 264 622 m 519 458 l 519 106 q 637 175 590 130 q 693 295 693 229 q 519 458 693 413 m 519 1109 l 519 995 l 522 995 q 671 972 587 995 q 780 898 780 943 q 720 838 780 838 q 622 853 689 838 q 519 867 554 867 l 519 591 q 737 509 652 578 q 831 302 831 430 q 741 79 831 168 q 519 -27 657 -1 l 519 -208 q 502 -251 519 -234 q 458 -269 485 -269 q 399 -209 399 -269 l 399 -36 q 68 136 68 -31 q 124 197 68 197 q 185 172 156 197 q 251 123 229 134 q 399 92 304 96 l 399 476 l 393 476 q 212 528 295 476 q 117 690 117 586 q 212 873 117 789 q 399 975 291 943 l 399 1105 q 417 1149 399 1132 q 461 1167 435 1167 q 519 1109 519 1167 z "},"%":{"ha":1139,"x_min":100,"x_max":1091,"o":"m 300 706 q 151 771 205 706 q 100 929 100 832 q 168 1056 100 996 q 302 1114 234 1114 q 459 1048 401 1114 q 515 886 515 987 q 446 753 515 804 q 300 706 383 706 m 837 996 q 783 888 816 962 l 735 778 l 449 170 q 380 16 431 126 q 330 -20 363 -20 q 289 -4 307 -20 q 271 35 271 12 q 275 58 271 46 q 382 297 308 148 q 496 534 455 442 l 680 941 q 747 1064 724 1039 q 790 1087 768 1087 q 831 1070 813 1087 q 849 1029 849 1053 q 837 996 849 1015 m 854 -13 q 701 42 761 -13 q 637 192 637 100 q 694 359 637 292 q 853 429 755 429 q 1015 377 946 429 q 1091 229 1091 319 q 1025 56 1091 125 q 854 -13 958 -13 m 300 1000 q 243 980 270 1000 q 213 929 213 958 q 300 820 213 820 q 366 835 336 820 q 401 886 401 854 q 300 1000 401 1000 m 853 315 q 776 277 803 315 q 751 192 751 244 q 869 100 751 100 q 977 229 977 100 q 935 294 977 269 q 853 315 899 315 z "},"&":{"ha":909,"x_min":51,"x_max":860,"o":"m 464 735 q 551 878 551 807 q 509 939 551 939 q 472 897 496 939 q 447 839 447 854 q 464 735 447 793 m 412 550 q 254 430 296 472 q 172 257 172 348 q 231 136 172 182 q 361 94 285 94 q 598 210 498 94 q 412 550 547 286 m 326 839 q 382 981 326 907 q 509 1061 443 1061 q 630 1006 586 1061 q 671 878 671 956 q 508 617 671 740 q 669 329 560 503 q 689 406 683 368 q 705 492 701 481 q 759 548 722 548 q 804 517 787 548 q 817 461 817 492 q 747 206 817 323 q 860 -5 860 28 q 841 -46 860 -29 q 797 -64 822 -64 q 745 -29 764 -64 l 667 106 q 361 -27 530 -27 q 145 50 235 -27 q 51 257 51 132 q 151 496 51 389 q 361 661 208 559 q 326 839 326 752 z "},"'":{"ha":539,"x_min":193,"x_max":320,"o":"m 313 981 q 317 920 313 960 q 320 860 320 880 q 259 773 320 773 q 205 803 216 773 q 200 867 200 817 q 196 924 200 886 q 193 981 193 962 q 198 1072 193 1050 q 258 1126 211 1126 q 301 1109 283 1126 q 319 1067 319 1093 q 316 1024 319 1053 q 313 981 313 995 z "},"(":{"ha":509,"x_min":77,"x_max":472,"o":"m 472 1026 q 430 957 472 1001 q 368 895 409 937 q 250 650 294 812 q 213 378 213 512 q 369 -127 213 34 q 432 -176 390 -143 q 471 -237 471 -206 q 454 -277 471 -260 q 413 -293 436 -293 q 364 -277 392 -293 q 77 394 77 -117 q 151 766 77 578 q 368 1070 233 976 q 411 1089 395 1089 q 454 1070 435 1089 q 472 1026 472 1050 z "},")":{"ha":509,"x_min":77,"x_max":472,"o":"m 472 394 q 184 -277 472 -117 q 136 -293 157 -293 q 96 -277 113 -293 q 78 -237 78 -260 q 117 -176 78 -207 q 180 -127 140 -157 q 336 378 336 34 q 299 650 336 513 q 181 895 255 813 q 119 958 160 915 q 77 1026 77 1001 q 95 1070 77 1050 q 138 1089 113 1089 q 181 1070 154 1089 q 398 766 315 977 q 472 394 472 578 z "},"*":{"ha":736,"x_min":32,"x_max":653,"o":"m 32 892 q 49 937 32 917 q 92 956 66 956 q 275 890 108 956 q 270 1021 270 985 q 287 1064 270 1047 q 330 1081 304 1081 q 391 1021 391 1081 q 395 906 391 983 q 595 930 558 930 q 637 912 621 930 q 653 869 653 895 q 564 800 653 819 q 435 786 499 793 q 520 694 475 749 q 581 590 581 620 q 562 548 581 566 q 518 530 543 530 q 471 554 490 530 q 336 713 415 626 q 147 555 197 555 q 104 574 123 555 q 85 618 85 593 q 107 663 85 643 q 233 780 142 694 q 71 839 164 802 q 32 892 32 854 z "},"+":{"ha":667,"x_min":33,"x_max":619,"o":"m 619 436 q 603 392 619 411 q 561 374 586 374 q 536 376 553 374 q 511 379 520 379 l 444 378 q 376 378 395 377 l 376 218 q 315 157 376 157 q 255 218 256 157 l 254 375 q 138 370 172 370 q 33 433 33 370 q 70 488 33 477 q 138 491 82 491 q 254 496 172 491 l 253 575 q 280 697 252 673 q 317 709 294 709 q 360 693 342 709 q 378 650 378 676 q 376 613 378 638 q 374 576 374 589 l 374 498 l 425 496 q 467 498 440 496 q 508 500 496 500 q 619 436 619 500 z "},",":{"ha":385,"x_min":134,"x_max":338,"o":"m 193 -233 q 152 -215 170 -233 q 134 -173 134 -197 q 176 -56 134 -153 q 215 33 195 -12 q 279 96 248 96 q 321 78 304 96 q 338 35 338 60 q 242 -197 338 20 q 193 -233 226 -233 z "},"-":{"ha":578,"x_min":75,"x_max":514,"o":"m 460 322 q 132 313 372 313 q 75 366 75 313 q 164 423 75 416 q 293 423 229 423 q 454 428 400 428 q 514 375 514 428 q 460 322 514 328 z "},".":{"ha":346,"x_min":97,"x_max":265,"o":"m 181 -63 q 121 -39 146 -63 q 97 21 97 -14 q 121 81 97 56 q 181 105 146 105 q 240 80 216 105 q 265 21 265 56 q 241 -39 265 -14 q 181 -63 216 -63 z "},"/":{"ha":711,"x_min":57,"x_max":659,"o":"m 120 -61 q 76 -44 95 -61 q 57 -2 57 -27 q 62 21 57 8 q 261 442 115 168 q 461 862 408 716 q 595 1103 550 1105 q 640 1085 621 1102 q 659 1043 659 1068 q 651 1006 659 1024 l 575 821 q 446 532 539 731 l 298 251 l 175 -21 q 120 -61 157 -61 z "},":":{"ha":415,"x_min":124,"x_max":281,"o":"m 281 153 q 261 103 281 123 q 211 83 241 83 q 161 103 180 83 q 142 153 142 123 q 137 191 142 166 q 133 228 133 216 q 154 275 133 256 q 205 294 176 294 q 281 153 281 294 m 269 648 q 250 598 269 618 q 200 578 231 578 q 150 598 170 578 q 130 648 130 618 q 127 673 130 656 q 124 699 124 690 q 144 747 124 728 q 195 766 165 766 q 269 648 269 766 z "},";":{"ha":415,"x_min":55,"x_max":279,"o":"m 279 644 q 259 595 279 614 q 210 575 239 575 q 160 595 180 575 q 140 644 140 614 q 137 670 140 653 q 134 694 134 686 q 154 743 134 724 q 204 762 175 762 q 279 644 279 762 m 116 -132 q 55 -68 55 -132 q 113 62 55 -24 q 213 152 174 152 q 256 134 237 152 q 275 91 275 115 q 228 11 275 69 q 176 -74 178 -50 q 116 -132 169 -132 z "},"<":{"ha":530,"x_min":13,"x_max":425,"o":"m 202 416 q 296 330 239 389 q 362 267 329 298 q 410 195 410 217 q 392 151 410 170 q 349 132 374 132 q 311 146 331 132 q 195 258 283 167 q 64 354 126 330 q 13 410 13 374 q 60 467 13 444 q 198 576 122 496 q 273 658 236 617 q 363 720 336 720 q 407 701 389 720 q 425 657 425 682 q 405 614 425 635 q 202 416 332 537 z "},"=":{"ha":709,"x_min":67,"x_max":597,"o":"m 220 677 l 536 677 q 597 616 597 677 q 536 556 597 556 l 219 557 q 172 555 203 557 q 127 553 142 553 q 67 614 67 553 q 124 674 67 663 q 220 677 142 677 m 258 313 q 393 311 303 313 q 527 309 482 309 q 587 249 587 309 q 527 189 587 189 q 393 191 482 189 q 258 193 303 193 q 198 190 238 193 q 137 187 157 187 q 75 248 75 187 q 133 308 75 303 q 258 313 204 313 z "},">":{"ha":530,"x_min":39,"x_max":499,"o":"m 499 450 q 474 401 499 425 q 136 138 314 252 q 100 126 117 126 q 57 145 75 126 q 39 189 39 165 q 66 237 39 216 l 329 437 q 180 560 267 479 q 71 702 71 662 q 90 745 71 726 q 134 763 109 763 q 179 740 159 763 q 459 502 334 566 q 499 450 499 481 z "},"?":{"ha":728,"x_min":35,"x_max":652,"o":"m 252 209 q 203 230 224 209 q 182 279 182 251 q 269 394 182 329 l 431 516 q 518 654 518 582 q 446 798 518 733 q 293 863 374 863 q 184 820 253 863 q 103 776 115 776 q 55 798 75 776 q 35 848 35 820 q 139 955 35 902 q 293 1002 232 1002 q 541 897 431 1002 q 652 654 652 791 q 588 478 652 555 q 446 357 548 429 q 302 237 342 283 q 252 209 279 209 m 214 -49 q 161 -30 184 -49 q 136 20 136 -9 q 158 95 136 62 q 223 134 183 134 q 288 54 288 134 q 271 -14 288 16 q 214 -49 250 -49 z "},"@":{"ha":1293,"x_min":75,"x_max":1189,"o":"m 886 279 q 677 363 742 279 q 538 290 604 290 q 397 350 463 290 q 329 486 329 412 q 427 716 329 613 q 652 819 526 819 q 700 798 681 819 q 718 747 718 777 q 650 687 718 707 q 523 628 560 661 q 468 486 468 580 q 490 445 468 461 q 538 429 513 428 q 648 539 597 432 q 728 633 692 633 q 775 611 758 633 q 792 560 792 590 q 788 519 792 547 q 783 479 783 492 q 821 423 783 435 q 886 418 837 418 q 1015 464 978 418 q 1050 599 1050 505 q 916 870 1050 765 q 625 966 794 966 q 315 817 428 966 q 214 483 214 684 q 337 164 214 292 q 650 37 460 37 q 774 58 718 37 l 893 102 q 932 113 922 113 q 980 91 960 113 q 1000 39 1000 68 q 856 -65 1000 -25 q 652 -95 747 -95 q 456 -58 556 -95 q 285 41 357 -22 q 75 483 75 222 q 218 918 75 743 q 625 1105 372 1105 q 1017 968 854 1105 q 1189 599 1189 823 q 886 279 1189 279 z "},"A":{"ha":1016,"x_min":89,"x_max":917,"o":"m 848 -20 q 739 140 785 -20 q 695 353 722 201 q 514 319 644 347 l 334 282 q 218 22 290 169 q 159 -16 199 -16 q 110 4 130 -16 q 89 53 89 24 q 191 300 89 85 q 180 341 180 318 q 246 412 180 396 q 441 745 323 556 q 642 1002 602 1002 q 715 928 701 1002 l 758 700 l 859 229 l 897 121 q 917 48 917 67 q 897 0 917 20 q 848 -20 876 -20 m 608 755 l 414 442 q 663 493 496 463 l 608 755 z "},"B":{"ha":876,"x_min":130,"x_max":819,"o":"m 601 27 q 211 -33 448 -33 q 156 -5 182 -33 q 130 52 130 22 l 130 249 q 142 526 130 349 q 157 806 157 737 q 164 992 157 907 q 186 1037 167 1025 q 396 1065 279 1065 q 625 984 515 1065 q 752 753 752 890 q 616 478 752 578 q 819 267 819 391 q 730 108 819 185 q 601 27 667 53 m 396 927 q 292 922 322 927 l 291 804 l 277 541 q 380 534 373 533 q 546 595 481 542 q 618 753 618 655 q 541 878 618 823 q 396 927 469 927 m 472 384 l 400 395 q 373 394 391 395 q 346 393 355 393 q 268 399 309 393 q 264 247 264 314 l 264 106 q 553 157 441 113 q 644 214 600 175 q 686 267 686 250 q 599 338 686 298 q 472 384 516 377 z "},"C":{"ha":837,"x_min":61,"x_max":816,"o":"m 749 761 q 684 812 705 761 q 648 865 665 856 q 578 872 635 872 q 359 722 480 872 q 197 338 197 519 q 251 189 197 253 q 392 123 308 123 q 532 159 463 123 q 653 239 571 178 q 711 267 692 267 q 760 246 740 267 q 780 196 780 224 q 754 142 780 165 q 392 -16 575 -16 q 154 92 250 -16 q 61 338 61 195 q 254 810 61 568 q 578 1011 414 1011 q 684 998 646 1011 q 746 1033 708 1033 q 809 954 795 1033 q 816 836 816 918 q 798 784 816 805 q 749 761 779 761 z "},"D":{"ha":1002,"x_min":124,"x_max":933,"o":"m 428 -67 q 315 -52 379 -67 q 199 -4 237 -33 l 193 -4 q 144 16 163 -4 q 124 66 124 37 q 131 279 124 137 q 137 492 137 421 q 134 729 137 572 q 131 966 131 887 q 159 1025 131 995 q 216 1055 188 1055 q 325 1010 232 1055 q 446 954 427 960 q 774 751 638 888 q 933 398 933 591 q 879 176 933 282 q 693 -16 810 42 q 428 -67 589 -67 m 587 722 q 268 878 517 768 l 273 488 l 262 118 q 277 109 266 117 q 427 69 336 69 q 621 100 551 69 q 758 237 707 138 q 796 395 796 313 q 587 722 796 586 z "},"E":{"ha":867,"x_min":95,"x_max":823,"o":"m 756 913 q 735 916 747 913 q 514 949 621 949 q 251 907 400 949 q 257 837 257 863 q 245 578 257 743 l 543 606 q 703 620 684 620 q 754 601 734 620 q 774 550 774 581 q 711 481 774 486 l 237 438 q 231 267 231 330 q 252 90 231 116 q 359 71 268 71 q 486 74 401 71 q 612 76 570 76 q 652 80 626 76 q 692 85 678 85 q 764 14 764 85 q 706 -54 764 -43 q 430 -67 642 -67 q 160 -12 220 -67 q 95 267 95 49 q 102 473 95 341 q 95 506 95 488 q 108 547 95 529 q 121 837 121 743 q 115 910 121 861 q 108 984 108 960 q 176 1065 108 1065 q 224 1045 204 1065 q 514 1088 387 1088 q 777 1049 679 1088 q 823 984 823 1031 q 804 934 823 956 q 756 913 785 913 z "},"F":{"ha":843,"x_min":117,"x_max":817,"o":"m 750 891 q 724 897 739 891 q 502 928 641 928 q 262 901 408 928 l 261 608 q 458 643 392 643 q 674 631 561 643 q 738 562 738 624 q 719 511 738 532 q 669 491 699 491 q 564 497 634 491 q 458 503 493 503 q 258 464 412 503 l 252 -3 q 233 -52 252 -33 q 185 -72 214 -72 q 137 -52 156 -72 q 117 -3 117 -32 q 122 398 117 131 q 127 800 127 666 q 126 889 127 829 q 125 979 125 949 q 144 1029 125 1009 q 193 1050 163 1050 q 233 1038 215 1050 q 502 1067 397 1067 q 680 1044 581 1067 q 817 963 817 1014 q 797 913 817 935 q 750 891 778 891 z "},"G":{"ha":944,"x_min":54,"x_max":919,"o":"m 882 410 q 717 88 842 213 q 387 -47 581 -47 q 54 326 54 -47 q 136 688 54 503 q 350 989 218 873 q 534 1065 437 1065 q 696 1025 595 1065 q 820 917 820 975 q 800 867 820 888 q 751 846 779 846 q 709 863 736 846 q 534 926 606 926 q 427 873 483 926 q 347 777 401 848 q 191 326 191 568 q 227 153 191 203 q 387 92 270 92 q 613 182 522 92 q 730 401 696 264 q 408 329 542 392 q 377 321 392 321 q 329 343 349 321 q 309 393 309 364 q 345 453 309 431 q 850 543 491 543 q 900 523 880 543 q 919 473 919 503 q 882 410 919 429 z "},"H":{"ha":1067,"x_min":103,"x_max":994,"o":"m 987 956 q 977 872 977 927 q 979 812 977 852 q 980 751 980 772 q 968 549 980 684 q 956 347 956 415 q 964 192 956 296 q 971 37 971 89 q 952 -9 971 9 q 906 -28 934 -28 q 860 -9 878 -28 q 841 37 841 9 q 833 192 841 89 q 826 347 826 296 q 829 448 826 397 q 543 413 709 446 l 258 357 q 245 184 258 299 q 233 10 233 68 q 215 -37 233 -18 q 168 -56 196 -56 q 122 -37 140 -56 q 103 10 103 -18 q 115 225 103 82 q 127 439 127 368 q 124 552 127 477 q 121 665 121 627 q 128 826 121 719 q 135 987 135 934 q 153 1035 135 1016 q 200 1054 172 1054 q 247 1035 229 1054 q 265 987 265 1016 q 257 825 265 938 q 251 663 250 720 l 255 491 l 546 546 q 840 580 718 578 q 847 872 847 677 q 864 977 847 922 q 927 1049 887 1049 q 974 1030 954 1049 q 994 983 994 1010 q 987 956 994 973 z "},"I":{"ha":759,"x_min":51,"x_max":719,"o":"m 649 845 q 540 854 608 845 l 431 868 q 415 491 415 671 q 418 374 415 452 q 420 256 420 296 q 416 140 420 193 l 629 143 q 677 123 658 144 q 696 74 696 103 q 677 24 696 45 q 629 4 659 4 q 515 2 591 4 q 401 1 439 1 q 267 -12 357 1 q 133 -24 178 -24 q 85 -4 104 -24 q 66 45 66 16 q 85 94 66 74 q 133 115 104 115 q 279 129 177 115 q 286 254 286 184 q 281 368 286 292 q 277 482 277 444 q 296 873 277 639 l 119 869 q 70 888 90 868 q 51 939 51 909 q 115 1008 51 1002 q 320 1013 170 1013 q 659 984 456 1013 q 719 911 719 975 q 699 863 719 882 q 649 845 679 845 z "},"J":{"ha":924,"x_min":64,"x_max":879,"o":"m 812 878 q 768 883 798 878 q 724 888 739 888 q 646 886 691 888 l 650 805 q 653 661 653 732 q 583 71 653 310 q 426 -81 538 -81 q 192 4 308 -81 q 64 222 64 99 q 132 305 64 305 q 201 223 201 305 q 285 108 201 162 q 426 58 361 58 q 503 399 481 58 q 513 805 513 559 q 510 878 513 824 l 469 878 q 389 879 440 877 q 309 881 332 881 q 238 951 238 881 q 332 1021 238 1021 q 400 1019 355 1021 q 469 1017 446 1017 q 596 1022 511 1017 q 724 1027 682 1027 q 879 949 879 1027 q 859 899 879 920 q 812 878 840 878 z "},"K":{"ha":848,"x_min":145,"x_max":843,"o":"m 782 -28 q 488 153 668 -28 l 286 357 l 286 348 l 285 -7 q 226 -75 285 -75 q 167 -45 190 -75 q 145 20 145 -17 q 155 494 145 178 q 164 968 164 810 q 183 1018 164 998 q 231 1038 202 1038 q 280 1018 260 1038 q 299 968 299 998 q 291 763 299 903 q 283 558 283 629 q 489 774 383 652 l 684 1000 q 735 1027 707 1027 q 784 1006 764 1027 q 804 957 804 985 q 629 718 804 911 q 380 459 517 593 q 482 353 455 380 q 635 214 557 279 l 706 154 q 789 109 740 125 q 843 42 843 92 q 826 -5 843 15 q 782 -28 808 -28 z "},"L":{"ha":765,"x_min":64,"x_max":739,"o":"m 695 28 q 454 -37 618 -8 q 208 -63 302 -63 q 109 -42 139 -63 q 68 62 64 -10 l 82 287 q 100 976 100 578 q 119 1025 100 1005 q 167 1046 138 1046 q 215 1025 196 1046 q 235 976 235 1005 q 216 279 235 493 l 208 176 q 203 76 202 114 q 651 159 380 74 q 673 163 662 163 q 720 142 701 163 q 739 92 739 121 q 695 28 739 48 z "},"M":{"ha":1226,"x_min":76,"x_max":1174,"o":"m 1102 -56 q 1005 90 1036 -56 l 981 207 q 892 686 935 425 l 717 148 q 675 37 692 70 q 589 -29 639 -29 q 499 87 530 -29 l 479 162 q 359 675 395 486 l 334 553 l 247 195 q 213 9 241 132 q 146 -44 193 -44 q 95 -23 114 -44 q 76 30 76 -2 q 123 308 76 136 l 197 581 l 237 795 q 300 991 263 939 q 367 1030 328 1030 q 433 980 411 1030 q 490 734 460 918 q 602 251 526 508 q 775 795 734 597 l 795 894 q 900 1040 825 1040 q 989 928 958 1040 q 1015 768 1000 888 q 1115 244 1057 448 l 1148 127 q 1174 12 1174 37 q 1153 -36 1174 -16 q 1102 -56 1131 -56 z "},"N":{"ha":1107,"x_min":83,"x_max":1049,"o":"m 1045 151 q 1034 42 1045 115 q 962 -26 1024 -26 q 873 22 924 -26 q 239 776 597 283 l 234 467 q 236 298 233 406 q 239 129 239 178 q 168 -54 239 -54 q 112 -33 135 -54 q 90 20 90 -12 q 94 106 90 49 q 98 193 98 164 q 101 318 98 235 q 104 444 104 402 q 102 579 104 490 q 100 715 100 669 q 92 842 100 758 q 83 969 83 926 q 111 1027 83 1002 q 171 1052 138 1052 q 260 973 207 1052 q 564 553 432 716 q 916 173 723 355 q 916 259 918 195 l 914 345 q 907 612 909 548 q 891 819 901 741 q 873 890 889 834 q 859 962 859 936 q 931 1040 859 1040 q 1049 600 1049 1040 q 1047 375 1049 525 q 1045 151 1045 226 z "},"O":{"ha":1109,"x_min":79,"x_max":1050,"o":"m 544 -41 q 220 73 353 -41 q 79 388 79 195 q 218 814 79 623 q 605 1027 372 1027 q 938 926 829 1027 q 1050 597 1050 821 q 922 174 1050 362 q 544 -41 776 -41 m 605 888 q 323 723 439 888 q 217 388 217 570 q 315 173 217 254 q 544 98 408 98 q 816 264 709 98 q 911 597 911 412 q 838 825 911 759 q 605 888 768 888 z "},"P":{"ha":723,"x_min":68,"x_max":682,"o":"m 280 398 q 197 407 261 398 q 192 48 192 304 q 175 2 192 21 q 130 -16 157 -16 q 85 2 103 -16 q 68 48 68 21 l 68 248 q 80 528 68 350 q 95 809 95 747 l 95 903 q 103 1000 95 969 q 158 1053 117 1053 q 170 1052 163 1053 q 330 1065 213 1065 q 562 981 454 1065 q 682 755 682 887 q 554 488 682 587 q 280 398 440 398 m 314 937 q 221 931 254 937 l 220 806 l 205 536 l 280 528 q 471 584 393 528 q 557 755 557 647 q 476 886 557 831 q 314 937 401 937 z "},"Q":{"ha":1217,"x_min":52,"x_max":1187,"o":"m 1116 -297 q 956 -181 1082 -297 l 793 -33 q 566 -79 679 -79 q 205 85 360 -79 q 52 452 52 245 q 231 863 52 695 q 650 1027 406 1027 q 1034 838 904 1027 q 1145 416 1145 675 q 926 39 1145 192 l 1074 -98 l 1161 -172 q 1187 -225 1187 -194 q 1166 -275 1187 -254 q 1116 -297 1145 -297 m 650 887 q 329 764 463 887 q 191 452 191 637 q 305 183 191 304 q 566 62 419 62 q 663 73 613 62 q 532 253 532 187 q 553 302 532 281 q 603 322 574 322 q 661 290 635 322 q 812 133 728 202 q 1006 416 1006 245 q 924 743 1006 618 q 650 887 830 887 z "},"R":{"ha":873,"x_min":79,"x_max":833,"o":"m 764 -7 q 715 14 737 -7 q 216 313 490 236 l 222 180 l 225 46 q 206 -3 226 17 q 157 -24 186 -24 q 109 -4 127 -24 q 90 46 90 16 q 84 206 90 100 q 79 366 79 312 q 93 551 79 428 q 106 736 106 675 q 100 839 106 770 q 94 941 94 907 q 118 1013 94 984 q 186 1042 145 1045 l 350 1029 q 507 983 433 1022 q 781 627 781 838 q 688 445 781 524 q 500 348 612 381 q 815 109 711 234 q 833 63 833 88 q 812 14 833 35 q 764 -7 792 -7 m 332 889 l 231 897 l 238 815 q 243 733 243 758 q 234 598 243 682 l 220 463 q 250 463 230 463 q 279 462 269 462 q 538 508 453 462 q 605 558 572 526 q 645 627 645 598 q 538 803 645 722 q 332 889 435 881 z "},"S":{"ha":963,"x_min":90,"x_max":896,"o":"m 91 169 q 110 216 90 198 q 159 233 130 233 q 218 195 193 233 q 279 125 252 144 q 447 87 336 87 q 642 133 552 87 q 758 295 758 191 q 648 437 758 387 q 459 476 566 473 q 275 523 351 479 q 179 680 179 578 q 316 901 179 802 q 587 995 446 995 q 735 972 652 995 q 845 898 845 943 q 784 838 845 838 q 687 853 754 838 q 584 867 619 867 q 418 823 492 865 q 328 688 328 772 q 429 608 328 631 q 573 592 465 600 q 797 511 709 583 q 896 302 896 432 q 747 45 896 141 q 446 -39 617 -39 q 219 9 322 -39 q 91 169 93 67 z "},"T":{"ha":944,"x_min":79,"x_max":992,"o":"m 924 857 q 769 864 872 857 q 614 871 666 871 l 566 871 q 585 568 568 781 q 600 263 600 374 q 604 191 600 239 q 609 119 609 143 q 594 39 609 73 q 535 -5 574 -5 q 485 14 506 -5 q 465 62 465 34 q 468 93 465 73 q 471 123 471 113 q 467 223 471 157 q 463 323 463 290 q 447 596 463 417 q 429 869 431 781 l 367 868 q 134 890 224 867 q 79 957 79 904 q 98 1008 79 987 q 149 1027 118 1029 q 257 1015 169 1026 q 367 1007 322 1007 q 490 1009 408 1007 q 614 1010 572 1010 q 769 1003 665 1010 q 924 996 872 996 q 973 976 954 996 q 992 926 992 956 q 972 877 992 897 q 924 857 953 857 z "},"U":{"ha":1023,"x_min":105,"x_max":942,"o":"m 536 -27 q 233 81 336 -27 q 115 383 138 181 q 105 727 105 472 q 122 967 105 918 q 182 1016 138 1016 q 245 901 245 1016 l 245 503 q 532 92 245 92 q 803 784 803 92 l 803 850 q 802 884 803 865 q 802 905 802 901 q 817 979 802 947 q 873 1019 836 1019 q 941 926 941 1019 q 941 892 941 917 q 942 842 942 860 l 942 758 q 536 -27 942 -27 z "},"V":{"ha":903,"x_min":98,"x_max":899,"o":"m 886 930 q 817 798 838 859 l 766 649 l 583 156 q 509 -14 549 64 q 448 -54 488 -54 q 374 -1 395 -54 q 192 592 332 106 l 138 779 q 98 963 98 918 q 118 1012 98 992 q 168 1031 138 1031 q 234 976 222 1031 l 259 858 l 324 627 q 451 193 367 471 l 455 203 l 694 862 q 777 1014 726 954 q 829 1041 799 1041 q 879 1020 858 1041 q 899 970 899 999 q 886 930 899 950 z "},"W":{"ha":1444,"x_min":94,"x_max":1421,"o":"m 965 -65 q 909 -47 934 -65 q 883 3 883 -28 q 827 214 851 87 q 790 429 808 321 q 744 722 755 612 q 614 342 684 498 q 511 61 534 163 q 519 31 519 45 q 492 -20 519 0 q 436 -38 467 -38 q 345 44 345 -38 l 323 130 l 250 463 q 99 945 226 570 q 94 972 94 959 q 165 1035 94 1035 q 233 987 210 1035 q 283 846 245 963 q 363 551 330 701 l 429 251 q 573 661 500 418 q 640 865 617 807 q 759 1015 701 1015 q 826 966 806 1015 q 876 688 850 909 q 922 421 890 567 l 980 155 q 1207 745 1071 373 q 1241 873 1214 765 q 1353 1034 1280 1034 q 1421 966 1421 1034 q 1400 899 1421 957 l 1373 825 l 1335 705 l 1134 215 q 1038 -20 1109 149 q 965 -65 1017 -65 z "},"X":{"ha":1005,"x_min":46,"x_max":954,"o":"m 935 915 q 795 734 841 801 l 711 609 q 618 490 668 546 l 767 272 q 925 60 852 147 q 943 14 943 39 q 923 -36 943 -15 q 873 -57 902 -57 q 825 -36 848 -57 q 721 93 772 14 l 630 233 l 524 385 l 165 -24 q 116 -47 146 -47 q 67 -26 87 -47 q 46 24 46 -5 q 64 70 46 50 l 186 206 l 440 501 q 281 701 387 566 l 203 808 q 115 905 156 871 q 86 960 86 929 q 106 1010 86 989 q 155 1031 126 1031 q 302 909 214 1031 q 387 791 324 875 q 534 606 437 730 l 688 822 q 884 1031 839 1031 q 933 1010 912 1031 q 954 961 954 989 q 935 915 954 937 z "},"Y":{"ha":882,"x_min":20,"x_max":831,"o":"m 795 867 q 751 788 781 846 l 635 500 q 507 216 553 298 l 422 65 l 387 -8 q 326 -47 368 -47 q 277 -27 298 -47 q 256 21 256 -7 q 320 165 256 49 l 404 318 q 246 565 282 475 q 144 749 216 642 q 30 926 46 897 q 20 962 20 944 q 40 1011 20 991 q 90 1031 61 1031 q 145 1000 125 1031 l 199 916 q 294 770 239 856 q 374 616 346 685 q 469 462 396 559 l 625 840 q 698 985 662 907 q 761 1031 719 1031 q 810 1011 789 1031 q 831 963 831 991 q 795 867 831 930 z "},"Z":{"ha":963,"x_min":46,"x_max":937,"o":"m 859 848 l 767 786 q 488 480 637 697 l 250 134 q 216 86 239 117 l 480 96 q 745 104 691 104 q 877 96 835 104 q 934 41 932 85 q 915 -10 935 9 q 861 -29 894 -29 q 802 -27 842 -29 q 743 -24 763 -24 q 434 -30 640 -24 q 124 -35 227 -35 q 46 34 46 -35 q 88 146 46 88 l 406 588 q 687 899 538 772 l 450 885 l 176 885 q 154 884 168 885 q 132 883 140 883 q 60 953 60 883 q 97 1014 60 999 q 171 1023 120 1023 q 310 1014 218 1023 q 450 1004 403 1004 q 606 1010 502 1004 q 763 1017 711 1017 q 937 951 937 1017 q 859 848 937 902 z "},"[":{"ha":523,"x_min":119,"x_max":476,"o":"m 298 -279 q 253 -281 283 -279 q 207 -283 222 -283 q 119 -203 119 -283 q 130 274 119 -79 q 139 751 141 708 l 127 966 q 143 1011 125 992 q 188 1031 161 1031 q 249 1029 208 1031 q 311 1027 290 1027 q 349 1029 323 1027 q 387 1031 374 1031 q 450 965 450 1031 q 393 899 450 905 q 313 896 357 896 q 255 897 286 896 q 259 760 260 819 l 239 -150 l 298 -148 q 357 -149 320 -147 q 417 -151 401 -151 q 476 -217 476 -151 q 417 -283 476 -283 q 358 -281 397 -283 q 298 -279 318 -279 z "},"\\":{"ha":764,"x_min":120,"x_max":688,"o":"m 624 -96 q 570 -61 590 -96 q 490 109 532 3 l 293 614 q 131 932 261 695 q 120 968 120 951 q 140 1014 120 994 q 186 1034 159 1034 q 237 1002 216 1034 q 405 671 326 870 l 544 322 q 680 1 623 123 q 688 -31 688 -16 q 669 -76 688 -57 q 624 -96 650 -96 z "},"]":{"ha":523,"x_min":119,"x_max":476,"o":"m 297 -279 q 343 -281 313 -279 q 389 -283 373 -283 q 476 -203 476 -283 q 467 274 476 -79 q 456 751 454 708 l 468 966 q 452 1011 470 991 q 408 1031 434 1031 q 347 1029 388 1031 q 285 1027 305 1027 q 247 1029 272 1027 q 208 1031 221 1031 q 146 965 146 1031 q 203 899 146 905 q 282 896 238 896 q 341 897 310 896 q 336 760 335 821 l 356 -150 l 297 -148 q 238 -149 275 -147 q 178 -151 195 -151 q 136 -171 152 -151 q 119 -217 119 -190 q 136 -263 119 -244 q 178 -283 152 -283 q 238 -281 198 -283 q 297 -279 277 -279 z "},"^":{"ha":807,"x_min":134,"x_max":692,"o":"m 403 1116 q 492 1070 440 1116 q 567 995 518 1048 l 674 880 q 692 838 692 860 q 674 794 692 813 q 630 776 655 776 q 587 795 606 776 q 417 972 507 883 q 196 761 245 761 q 153 780 172 761 q 134 823 134 799 q 155 867 134 846 q 361 1095 190 901 q 403 1116 380 1116 z "},"_":{"ha":871,"x_min":-24,"x_max":897,"o":"m 660 -234 q 515 -231 612 -234 q 371 -227 419 -227 l 69 -227 q 23 -231 54 -227 q -24 -234 -8 -234 l -24 -109 q 180 -108 44 -109 l 383 -106 q 527 -111 425 -106 q 670 -114 618 -115 l 897 -109 l 897 -234 l 660 -234 z "},"`":{"ha":772,"x_min":101,"x_max":391,"o":"m 391 859 q 372 817 391 835 q 328 799 353 799 q 279 827 298 799 l 212 928 q 127 1015 181 974 q 101 1063 101 1036 q 119 1107 101 1088 q 161 1126 137 1126 q 298 1016 205 1126 q 391 859 391 905 z "},"a":{"ha":711,"x_min":35,"x_max":687,"o":"m 624 -45 q 574 -12 609 -45 q 532 35 545 15 q 334 -37 400 -37 q 99 58 172 -37 q 35 311 35 142 q 145 590 35 473 q 417 708 256 708 q 549 677 475 708 q 642 586 642 640 q 628 553 642 568 q 613 317 614 502 q 625 184 612 235 q 667 65 632 153 q 683 29 673 51 l 687 18 q 669 -27 687 -9 q 624 -45 650 -45 m 483 427 q 498 563 483 486 q 426 588 449 588 q 241 499 317 588 q 168 304 168 414 q 326 82 168 82 q 436 106 391 82 q 505 157 460 119 q 483 427 483 337 z "},"b":{"ha":824,"x_min":104,"x_max":759,"o":"m 411 -28 q 222 12 307 -28 q 170 -20 201 -20 q 125 -2 143 -20 q 108 43 108 16 q 110 95 108 60 q 111 147 111 130 q 107 362 111 219 q 104 578 104 506 q 104 766 104 627 l 105 954 q 122 1027 105 995 q 184 1068 144 1068 q 235 1009 235 1068 q 231 981 235 1000 q 228 954 228 963 l 224 632 q 437 712 342 712 q 675 599 585 712 q 759 342 759 494 q 663 82 759 189 q 411 -28 563 -28 m 437 584 q 323 553 380 584 q 225 486 296 538 l 224 368 l 225 151 q 323 111 284 124 q 411 100 357 100 q 574 172 511 100 q 635 342 635 240 q 587 508 635 441 q 437 584 532 584 z "},"c":{"ha":713,"x_min":71,"x_max":657,"o":"m 401 -43 q 165 43 258 -43 q 71 274 71 132 q 163 558 71 412 q 392 721 264 721 q 541 690 459 721 q 644 592 644 650 q 627 546 644 566 q 585 526 610 526 q 523 562 566 526 q 392 593 484 593 q 255 470 323 593 q 193 274 193 357 q 254 134 193 185 q 401 85 310 85 q 488 106 447 85 l 566 149 q 595 159 587 159 q 639 139 621 159 q 657 94 657 119 q 553 -2 657 44 q 401 -43 461 -43 z "},"d":{"ha":816,"x_min":70,"x_max":746,"o":"m 719 599 q 711 399 711 501 q 732 58 711 176 q 733 43 733 51 q 715 -2 733 16 q 670 -20 696 -20 q 608 41 628 -20 q 397 -31 510 -31 q 160 66 252 -31 q 70 308 70 162 q 156 587 70 477 q 415 707 250 707 q 536 683 494 707 l 600 636 q 623 1021 610 928 q 684 1081 631 1081 q 746 1015 746 1081 q 719 599 746 923 m 418 581 q 190 311 190 581 q 251 161 190 224 q 397 97 311 97 q 494 118 454 97 q 569 174 517 131 q 589 195 578 182 l 587 313 l 589 471 q 418 581 537 581 z "},"e":{"ha":761,"x_min":59,"x_max":734,"o":"m 411 -31 q 161 47 256 -31 q 59 283 59 130 q 144 578 59 459 q 393 709 237 709 q 572 673 503 709 q 664 527 664 627 q 587 404 664 459 q 444 328 556 381 l 184 205 q 411 92 261 92 q 521 109 458 92 q 618 166 571 123 q 673 204 661 204 q 716 186 697 204 q 734 144 734 168 q 613 15 734 69 q 411 -31 509 -31 m 393 587 q 173 330 227 587 l 381 429 q 556 532 500 486 q 393 587 498 587 z "},"f":{"ha":706,"x_min":51,"x_max":638,"o":"m 550 954 q 366 726 377 954 l 364 684 q 513 692 479 692 q 621 624 621 692 q 515 562 621 558 q 358 553 484 563 l 353 398 q 355 272 352 378 q 358 146 358 188 q 343 -54 358 17 q 280 -109 332 -109 q 233 -91 252 -109 q 213 -45 213 -73 q 214 -32 213 -40 q 229 160 230 62 l 227 345 l 227 542 q 119 535 142 535 q 51 601 51 535 q 170 671 51 668 l 235 673 q 245 777 237 706 q 321 998 263 928 q 541 1084 391 1084 q 638 1019 638 1084 q 550 954 638 954 z "},"g":{"ha":737,"x_min":39,"x_max":685,"o":"m 652 292 l 637 64 q 609 -157 626 -97 q 490 -334 574 -281 q 276 -382 412 -382 q 125 -370 186 -382 q 39 -300 39 -353 q 98 -239 39 -239 q 196 -251 128 -239 q 306 -262 264 -262 q 486 -136 437 -260 q 520 119 518 -54 q 317 -17 447 -17 q 113 71 190 -17 q 41 284 41 155 q 148 583 41 471 q 441 694 256 694 q 612 629 568 694 q 685 549 685 627 q 671 420 685 503 q 652 292 654 326 m 435 586 q 238 501 309 586 q 172 294 172 422 q 321 96 172 96 q 454 174 391 96 q 521 315 509 240 q 551 545 531 378 q 435 586 498 586 z "},"h":{"ha":802,"x_min":98,"x_max":731,"o":"m 662 -42 q 588 41 610 -42 q 570 168 584 58 q 558 329 558 265 q 560 382 558 347 q 562 436 562 418 q 498 564 562 564 q 344 486 412 564 q 249 333 309 446 q 227 27 249 75 q 168 -15 208 -15 q 119 4 140 -15 q 98 50 98 22 q 104 80 98 60 q 112 179 111 99 l 114 279 l 116 778 q 118 848 116 810 q 121 891 121 886 q 114 956 121 913 q 108 1021 108 999 q 127 1068 108 1049 q 176 1086 147 1086 q 241 1027 231 1086 q 252 908 252 960 q 247 760 252 862 q 243 611 243 663 l 244 551 q 498 700 355 700 q 652 627 610 700 q 686 453 681 576 l 692 323 l 705 182 q 728 43 711 117 q 731 23 731 31 q 711 -24 731 -5 q 662 -42 690 -42 z "},"i":{"ha":389,"x_min":121,"x_max":303,"o":"m 224 859 q 168 882 191 859 q 144 937 144 905 q 168 993 144 970 q 224 1016 191 1016 q 280 993 256 1016 q 303 937 303 970 q 280 882 303 905 q 224 859 256 859 m 254 308 q 257 186 254 267 q 259 64 259 105 q 193 -3 259 -3 q 126 64 126 -3 q 124 186 126 105 q 121 308 121 267 q 128 467 121 361 q 135 626 135 573 q 201 694 135 694 q 268 626 268 694 q 261 467 268 573 q 254 308 254 361 z "},"j":{"ha":560,"x_min":-12,"x_max":449,"o":"m 317 858 q 261 881 284 858 q 237 936 237 903 q 261 991 237 968 q 317 1015 284 1015 q 373 991 349 1015 q 397 936 397 968 q 373 881 397 903 q 317 858 349 858 m 311 -157 q 288 249 311 -129 l 265 623 q 285 683 263 654 q 334 709 304 709 q 379 693 355 709 q 404 658 403 677 l 427 267 l 445 -151 q 388 -322 449 -239 q 240 -405 328 -405 q -4 -180 94 -405 q -12 -148 -12 -162 q 9 -101 -12 -121 q 58 -81 31 -81 q 141 -170 98 -81 q 179 -236 154 -195 q 240 -270 205 -270 q 291 -225 270 -270 q 311 -157 307 -191 z "},"k":{"ha":750,"x_min":111,"x_max":730,"o":"m 659 -28 q 602 12 622 -28 q 495 174 572 69 l 375 337 q 253 250 336 306 q 245 45 245 144 q 179 -24 245 -24 q 111 68 111 -24 q 118 237 111 125 q 126 406 126 349 q 129 641 126 484 q 132 876 132 797 q 129 947 132 899 q 126 1019 126 996 q 193 1088 126 1088 q 259 1019 259 1088 q 263 945 259 996 q 266 872 267 898 l 261 654 q 259 418 258 511 q 437 572 366 500 l 586 726 q 634 749 608 749 q 682 728 661 749 q 703 680 703 707 q 684 634 703 657 q 478 425 598 534 l 626 223 q 730 39 730 82 q 708 -8 730 11 q 659 -28 687 -28 z "},"l":{"ha":380,"x_min":118,"x_max":273,"o":"m 267 533 l 256 196 q 251 39 256 152 q 184 -29 246 -29 q 118 40 118 -29 q 125 287 118 122 q 133 533 133 451 q 136 778 133 615 q 140 1023 140 941 q 206 1091 140 1091 q 273 1023 273 1091 q 270 779 273 916 q 267 533 269 691 z "},"m":{"ha":1079,"x_min":82,"x_max":1026,"o":"m 956 -56 q 890 3 900 -56 q 866 213 886 28 l 843 423 q 820 515 838 465 q 770 576 798 576 q 676 533 746 576 q 591 470 610 492 q 594 342 590 381 l 614 161 q 627 -16 627 47 q 609 -65 627 -45 q 561 -84 591 -84 q 513 -65 531 -84 q 494 -16 494 -45 q 478 227 494 66 q 461 469 461 388 q 441 581 461 541 q 345 511 385 555 l 264 421 q 230 378 254 405 q 222 259 230 338 q 215 141 215 180 q 221 86 215 123 q 228 31 228 50 q 207 -16 228 3 q 159 -35 186 -35 q 82 140 82 -35 q 90 261 82 180 q 97 382 97 342 q 91 491 97 418 q 84 599 84 563 q 153 753 84 753 q 202 730 180 753 q 224 680 224 707 q 220 640 224 667 q 217 598 217 612 l 218 527 q 310 648 248 588 q 439 717 382 717 q 585 611 545 717 q 792 710 660 710 q 947 588 905 710 q 975 397 949 579 q 1023 9 989 294 q 1005 -38 1026 -19 q 956 -56 984 -56 z "},"n":{"ha":727,"x_min":84,"x_max":682,"o":"m 614 -48 q 549 16 557 -48 l 530 164 q 520 313 520 238 q 523 377 520 334 q 525 441 525 420 q 471 588 525 588 q 311 478 384 588 q 228 290 258 397 q 222 224 227 274 q 218 158 218 183 q 222 97 218 138 q 226 36 226 56 q 159 -33 226 -33 q 93 36 93 -33 q 89 97 93 56 q 84 158 84 138 q 94 352 84 222 q 104 545 104 481 q 101 610 104 567 q 99 674 99 652 q 118 722 99 703 q 166 741 137 741 q 235 652 233 741 l 237 573 q 471 725 351 725 q 622 629 578 725 q 654 441 654 559 l 653 309 q 667 163 652 260 q 682 19 682 67 q 663 -30 682 -11 q 614 -48 644 -48 z "},"o":{"ha":730,"x_min":52,"x_max":659,"o":"m 349 -40 q 134 64 216 -40 q 56 296 60 159 q 134 566 52 448 q 398 703 229 703 q 604 579 534 703 q 657 338 659 479 q 578 81 655 187 q 349 -40 492 -40 m 389 566 q 234 471 289 566 q 190 296 190 395 q 243 142 190 197 q 349 97 288 97 q 481 161 430 97 q 531 302 528 218 q 389 566 541 565 z "},"p":{"ha":743,"x_min":77,"x_max":684,"o":"m 382 -24 q 233 -2 315 -24 l 232 -326 q 165 -394 232 -394 q 118 -375 136 -394 q 99 -326 99 -356 l 101 216 q 91 486 101 349 l 81 624 q 98 705 77 665 q 157 745 119 745 q 202 727 184 745 q 220 681 220 708 q 218 659 220 673 q 213 620 214 633 q 429 700 330 700 q 635 572 571 700 q 684 318 684 475 q 607 79 684 173 q 382 -24 524 -24 m 429 564 q 317 536 367 564 q 226 465 280 516 q 235 141 235 311 q 382 113 309 113 q 512 175 467 113 q 551 318 551 230 q 429 564 551 564 z "},"q":{"ha":722,"x_min":41,"x_max":640,"o":"m 616 214 l 585 -47 q 568 -309 568 -189 q 502 -377 568 -377 q 435 -309 439 -377 q 439 -233 433 -278 l 448 -158 l 460 -8 q 378 -24 402 -24 q 139 53 230 -24 q 41 280 41 134 q 152 599 41 479 q 465 721 267 722 q 521 692 502 721 q 572 718 550 718 q 620 696 600 718 q 640 646 640 674 q 616 214 640 406 m 416 604 q 228 477 292 581 q 176 277 176 392 q 231 141 176 191 q 374 94 286 92 q 468 164 439 96 q 503 422 492 219 l 512 604 q 465 602 497 598 q 416 604 426 605 z "},"r":{"ha":667,"x_min":94,"x_max":623,"o":"m 622 501 q 554 416 617 416 q 496 484 496 416 q 494 531 496 474 l 492 588 q 326 532 389 576 q 220 395 261 486 l 221 23 q 154 -45 221 -45 q 94 23 94 -45 l 94 499 q 96 566 94 522 q 98 633 98 611 q 157 702 98 702 q 224 589 224 702 q 513 715 355 715 q 623 549 623 715 q 622 501 623 513 z "},"s":{"ha":676,"x_min":28,"x_max":618,"o":"m 552 522 q 500 547 515 522 q 482 621 490 564 q 326 573 397 599 q 216 466 216 534 q 256 455 235 458 q 488 378 412 427 q 598 172 598 307 q 503 5 598 62 q 302 -41 424 -41 q 132 -11 214 -41 q 28 95 28 27 q 49 142 28 122 q 98 163 71 163 q 152 130 119 163 q 225 104 168 115 q 302 96 271 96 q 402 110 359 96 q 465 172 465 130 q 336 297 465 269 l 266 313 q 138 359 175 333 q 83 473 83 397 q 216 675 83 615 q 346 719 258 694 q 475 762 433 744 q 535 774 502 774 q 602 706 602 774 q 610 648 602 686 q 618 591 618 610 q 552 522 618 522 z "},"t":{"ha":654,"x_min":44,"x_max":614,"o":"m 548 578 q 514 579 536 578 q 481 581 492 581 q 389 570 465 581 l 403 105 q 332 -43 406 -43 q 284 -26 304 -43 q 264 18 264 -8 q 267 96 264 39 q 269 173 269 144 l 255 569 q 104 581 183 572 q 44 648 44 587 q 63 698 44 677 q 109 717 83 719 l 252 705 q 249 793 252 734 q 245 882 245 852 q 265 929 245 910 q 313 947 285 947 q 385 848 375 947 q 387 787 387 817 l 385 748 l 385 706 q 481 717 469 717 q 573 710 552 717 q 614 646 614 696 q 596 597 614 616 q 548 578 578 578 z "},"u":{"ha":722,"x_min":74,"x_max":661,"o":"m 648 396 q 648 250 648 390 l 649 103 q 651 58 649 88 q 654 12 654 27 q 634 -36 654 -17 q 586 -54 615 -54 q 519 10 534 -54 q 324 -34 435 -34 q 178 5 235 -34 q 100 132 113 48 q 74 452 74 312 q 94 664 74 543 q 159 723 104 723 q 208 704 188 723 q 227 656 227 686 q 217 555 227 623 q 208 452 208 487 q 237 129 208 227 q 324 104 283 104 q 516 133 415 104 l 514 402 q 527 656 513 537 q 593 719 534 719 q 642 700 622 719 q 660 652 661 682 l 648 396 z "},"v":{"ha":675,"x_min":42,"x_max":658,"o":"m 407 35 q 345 -27 405 -27 q 273 31 295 -27 l 170 307 l 49 618 q 42 649 42 635 q 63 696 42 677 q 112 716 84 716 q 170 675 155 716 l 342 201 q 471 515 401 325 q 528 669 486 559 q 588 712 547 712 q 637 693 616 712 q 658 646 658 673 q 546 355 658 613 l 407 35 z "},"w":{"ha":950,"x_min":52,"x_max":913,"o":"m 906 607 q 768 107 852 383 q 705 -20 749 47 q 640 -55 680 -56 q 525 129 566 -54 q 497 288 513 182 l 475 439 l 419 309 l 316 29 q 290 -10 307 3 q 225 -51 270 -50 q 125 151 174 -53 q 77 436 115 195 l 60 538 q 52 640 52 593 q 72 687 52 669 q 120 706 92 706 q 184 650 172 706 q 198 551 191 614 l 208 451 l 248 146 q 404 628 323 354 q 482 703 427 703 q 570 562 538 703 q 599 375 585 469 q 647 109 627 201 l 696 293 l 784 663 q 842 704 793 704 q 892 685 871 704 q 913 638 913 666 q 906 607 913 635 z "},"x":{"ha":820,"x_min":41,"x_max":781,"o":"m 718 582 l 618 489 l 498 369 l 719 80 q 736 37 736 58 q 716 -9 736 11 q 669 -30 696 -30 q 623 -5 644 -30 q 403 275 557 72 l 271 138 q 154 26 237 108 q 107 2 130 2 q 61 22 81 2 q 41 69 41 43 q 117 172 41 105 q 179 229 164 214 l 323 380 l 235 509 q 141 621 182 584 q 115 671 115 644 q 134 719 115 697 q 179 740 153 740 q 300 635 224 740 l 417 473 l 550 595 q 662 718 628 667 q 713 749 683 749 q 760 730 740 749 q 781 684 781 711 q 718 582 781 641 z "},"y":{"ha":723,"x_min":-3,"x_max":694,"o":"m 686 605 l 451 98 q 318 -212 347 -127 l 273 -344 q 212 -393 257 -393 q 163 -374 184 -393 q 142 -328 142 -356 q 289 65 142 -260 l 16 582 q -3 634 -3 612 q 18 683 -3 661 q 66 704 39 704 q 115 680 98 704 q 362 224 230 519 l 463 458 q 567 667 508 564 q 624 705 589 705 q 673 686 652 705 q 694 639 694 667 q 686 605 694 624 z "},"z":{"ha":747,"x_min":83,"x_max":705,"o":"m 654 549 q 499 338 591 473 q 339 112 388 176 q 463 115 410 115 q 542 105 490 115 q 621 95 594 95 q 688 26 688 95 q 621 -42 688 -42 q 542 -32 594 -42 q 463 -22 490 -22 q 174 -50 311 -22 q 149 -52 160 -52 q 83 5 83 -52 q 117 71 83 40 q 502 569 294 231 q 371 564 412 564 q 165 579 271 564 q 104 646 104 588 q 122 696 104 675 q 169 716 140 716 q 270 708 203 716 q 371 701 337 701 q 509 707 417 701 q 648 713 602 713 q 705 666 705 713 q 654 549 705 611 z "},"{":{"ha":509,"x_min":4,"x_max":473,"o":"m 176 389 q 241 459 212 406 q 270 552 270 509 q 266 690 270 598 q 261 829 261 783 q 356 972 261 964 q 425 979 375 974 q 473 1027 473 990 q 434 1084 473 1062 q 363 1102 401 1102 q 273 1082 319 1102 q 138 809 133 1021 l 142 674 l 144 520 q 60 464 110 511 q 4 377 4 412 q 68 301 4 352 q 132 199 132 250 q 127 144 132 180 q 121 88 121 107 q 178 -136 121 -32 q 355 -260 245 -260 q 426 -252 406 -260 q 460 -195 460 -238 q 426 -139 460 -151 q 355 -134 410 -134 q 275 -42 308 -134 q 248 88 248 31 q 254 155 248 111 q 259 222 259 200 q 229 310 259 254 q 176 389 202 359 z "},"|":{"ha":585,"x_min":239,"x_max":360,"o":"m 302 1163 q 360 1103 360 1163 l 360 -166 q 301 -245 360 -245 q 247 -194 261 -245 q 239 17 239 -167 l 239 1103 q 302 1163 239 1163 z "},"}":{"ha":509,"x_min":4,"x_max":473,"o":"m 301 389 q 235 459 264 406 q 207 552 207 509 q 211 690 207 598 q 216 829 216 783 q 121 972 216 964 q 52 979 102 974 q 4 1027 4 990 q 43 1084 4 1062 q 114 1102 76 1102 q 203 1082 158 1102 q 338 809 344 1021 l 335 674 l 333 520 q 417 464 367 511 q 473 377 473 412 q 408 301 473 352 q 344 199 344 250 q 350 144 344 180 q 355 88 355 107 q 299 -136 355 -32 q 122 -260 231 -260 q 51 -252 71 -260 q 16 -195 16 -238 q 51 -139 16 -151 q 122 -134 67 -134 q 202 -42 169 -134 q 229 88 229 31 q 223 155 229 111 q 218 222 218 200 q 248 310 218 254 q 301 389 275 359 z "},"~":{"ha":830,"x_min":68,"x_max":775,"o":"m 317 633 q 424 585 376 633 l 498 495 q 591 441 540 445 q 645 522 614 439 q 713 606 675 606 q 774 547 774 606 q 725 393 775 463 q 589 317 670 317 q 452 368 514 317 q 368 462 416 397 q 317 513 331 513 q 183 385 257 513 q 131 350 163 350 q 87 367 106 350 q 68 409 68 385 q 75 437 68 422 q 170 570 111 517 q 317 633 240 633 z "},"¡":{"ha":330,"x_min":81,"x_max":225,"o":"m 83 16 l 83 770 q 143 831 83 831 q 203 770 203 831 q 205 687 203 742 q 206 605 206 633 q 205 311 206 507 l 203 16 q 143 -45 203 -45 q 83 16 83 -45 m 81 1028 q 101 1071 81 1053 q 145 1088 120 1088 q 199 1055 172 1088 q 225 992 225 1021 q 206 950 225 968 q 162 932 186 932 q 109 966 136 932 q 81 1028 81 1000 z "},"¢":{"ha":865,"x_min":85,"x_max":755,"o":"m 751 413 q 446 186 663 191 l 446 148 q 384 22 448 22 q 327 81 327 22 q 330 206 327 140 q 132 349 187 254 q 85 592 85 432 q 165 837 85 722 q 370 991 248 956 q 373 1134 368 1058 q 425 1180 376 1180 q 467 1163 449 1180 q 484 1122 484 1145 l 483 1002 q 621 955 557 994 q 692 1000 642 1000 q 734 956 734 1000 q 713 854 734 919 q 662 779 689 779 q 631 796 650 779 q 564 854 576 846 q 481 887 526 882 q 467 593 478 772 l 448 300 q 574 351 529 304 l 648 460 q 697 492 671 492 q 738 476 720 492 q 755 437 755 460 q 751 413 755 425 m 197 592 q 218 428 197 476 q 335 326 245 366 l 368 869 q 247 753 296 833 q 197 592 197 673 z "},"£":{"ha":1102,"x_min":25,"x_max":989,"o":"m 159 604 l 208 604 q 206 642 206 623 q 302 952 206 827 q 598 1092 409 1092 q 798 1045 707 1092 q 907 890 907 988 q 888 848 907 865 q 844 831 869 831 q 789 872 809 831 q 707 956 758 933 q 589 975 665 975 q 388 871 458 975 q 327 642 327 782 q 328 613 327 627 q 484 621 429 621 q 602 617 524 621 q 720 613 681 613 q 781 553 781 613 q 720 492 781 492 q 602 496 681 492 q 484 500 524 500 q 347 494 431 500 q 388 256 388 313 q 361 99 388 172 l 379 99 q 537 59 435 99 q 694 19 639 19 q 846 66 810 19 q 871 155 859 82 q 928 203 880 203 q 989 138 989 203 q 975 57 989 101 q 694 -102 924 -102 q 534 -62 637 -102 q 373 -22 430 -22 q 267 -50 330 -22 q 197 -79 203 -79 q 156 -61 174 -79 q 138 -19 138 -43 q 172 36 138 2 q 233 113 215 81 q 267 256 267 174 q 228 485 267 315 q 125 482 178 482 q 25 545 25 482 q 42 589 25 571 q 84 606 58 606 q 121 605 96 606 q 159 604 146 604 z "},"¤":{"ha":850,"x_min":38,"x_max":835,"o":"m 428 397 q 503 437 473 397 q 527 504 527 471 q 431 616 527 616 q 345 593 387 616 q 295 525 295 565 q 332 432 295 467 q 428 397 370 397 m 321 731 q 454 750 374 750 q 541 720 486 750 l 657 791 q 768 846 747 846 q 815 825 795 846 q 835 776 835 804 q 802 721 835 742 q 639 621 743 682 q 661 504 661 574 q 610 368 661 441 q 700 286 653 335 q 763 191 763 219 q 742 143 763 163 q 693 122 720 122 q 644 144 665 122 l 581 212 q 511 273 547 249 q 425 260 475 260 q 279 314 363 260 l 159 174 q 108 149 136 149 q 59 169 81 149 q 38 216 38 189 q 54 259 38 238 q 186 415 101 309 q 160 525 160 465 q 210 655 160 597 l 132 738 q 78 827 78 795 q 99 874 78 854 q 149 895 121 895 q 201 866 179 895 q 321 731 249 819 z "},"¥":{"ha":883,"x_min":90,"x_max":795,"o":"m 390 389 l 390 413 q 328 508 371 440 q 177 522 307 508 q 124 578 124 527 q 181 631 124 631 q 262 627 219 631 q 90 932 90 921 q 108 972 90 956 q 149 989 125 989 q 195 961 177 989 q 279 821 253 872 q 359 675 309 760 l 443 534 q 629 845 495 597 q 685 948 658 892 q 736 985 703 985 q 777 969 760 985 q 795 929 795 953 q 725 784 795 909 l 637 626 l 712 635 q 768 578 768 635 q 712 522 768 522 q 643 515 688 522 q 574 507 595 508 q 499 410 548 476 l 499 378 q 581 377 529 377 q 619 381 593 377 q 657 385 644 385 q 696 368 681 385 q 711 327 711 351 q 666 272 711 282 q 499 270 633 264 l 499 132 q 502 77 499 114 q 505 21 505 39 q 450 -36 505 -36 q 393 21 393 -36 q 391 85 393 43 q 389 149 389 127 l 389 271 q 302 277 338 276 q 186 339 188 278 q 256 393 186 393 q 287 392 267 393 q 317 391 307 391 q 390 389 370 391 z "},"¦":{"ha":562,"x_min":222,"x_max":333,"o":"m 328 1099 l 326 789 q 325 635 327 747 q 273 594 323 594 q 225 654 225 594 q 227 876 225 728 l 227 1099 q 278 1149 227 1149 q 328 1099 328 1149 m 325 435 q 324 407 325 425 q 323 379 323 389 q 328 200 323 319 q 333 21 333 81 q 282 -30 333 -30 q 231 21 231 -30 q 227 200 231 81 q 222 379 222 319 q 277 486 222 486 q 325 435 325 486 z "},"§":{"ha":882,"x_min":79,"x_max":746,"o":"m 682 351 q 745 189 745 280 q 648 2 745 66 q 437 -52 566 -52 q 190 10 284 -52 q 79 229 79 83 q 140 290 79 290 q 196 253 180 290 l 217 182 q 438 56 254 56 q 563 84 513 56 q 624 189 624 119 q 497 323 624 283 l 261 399 q 134 616 134 466 q 211 773 134 707 q 178 896 178 826 q 269 1061 178 1000 q 458 1113 348 1113 q 718 1004 616 1113 q 741 954 741 980 q 724 911 741 930 q 684 893 708 893 q 594 947 672 893 q 460 1000 516 1000 q 361 976 408 1000 q 304 897 304 946 q 427 755 304 810 l 625 666 q 746 456 746 593 q 728 393 746 426 q 682 351 709 357 m 254 616 q 324 502 254 543 q 475 449 368 476 q 621 399 583 422 q 629 450 629 456 q 496 593 629 530 l 299 688 q 269 657 283 682 q 254 616 254 633 z "},"¨":{"ha":772,"x_min":150,"x_max":661,"o":"m 225 930 q 314 859 314 930 q 283 819 314 838 q 233 803 256 803 q 150 873 150 803 q 176 912 150 895 q 225 930 203 930 m 591 936 q 637 915 613 936 q 661 873 661 895 q 564 810 661 810 q 515 825 536 810 q 490 867 490 841 q 521 928 490 913 q 591 936 538 936 z "},"©":{"ha":1105,"x_min":61,"x_max":1032,"o":"m 641 975 q 330 891 458 977 q 182 618 182 793 q 281 360 182 439 q 555 291 371 290 q 814 427 705 292 q 911 673 911 547 q 846 889 911 810 q 641 975 775 975 m 612 1099 q 921 975 807 1099 q 1032 660 1032 856 q 895 338 1032 492 q 555 170 748 172 q 61 618 61 165 q 241 962 61 817 q 612 1099 410 1099 m 606 772 q 477 741 537 772 q 404 640 404 703 q 448 575 404 601 q 528 552 486 552 q 631 594 574 552 q 698 635 688 635 q 741 616 723 635 q 760 572 760 597 q 669 471 760 516 q 528 431 592 433 q 361 488 435 429 q 283 640 283 549 q 391 823 283 747 q 601 894 490 894 q 667 875 639 894 q 699 817 699 853 q 646 765 699 765 q 626 769 639 765 q 606 772 612 772 z "},"ª":{"ha":732,"x_min":68,"x_max":620,"o":"m 440 1003 l 319 1006 q 240 969 275 1006 q 203 886 203 929 q 222 808 203 854 q 267 755 243 755 q 397 842 351 755 q 440 1003 433 907 m 584 1039 l 617 674 q 599 624 620 643 q 550 604 578 604 q 483 669 486 604 l 479 730 q 267 616 396 616 q 125 717 189 616 q 68 886 68 806 q 146 1065 68 989 q 328 1140 224 1141 q 455 1137 437 1139 q 564 1082 538 1126 q 584 1039 582 1064 z "},"«":{"ha":802,"x_min":13,"x_max":733,"o":"m 202 416 q 296 330 239 389 q 362 267 329 298 q 410 195 410 217 q 392 151 410 170 q 349 132 374 132 q 311 146 331 132 q 195 258 283 167 q 64 354 126 330 q 13 410 13 374 q 60 467 13 444 q 198 576 122 496 q 273 658 236 617 q 363 720 336 720 q 407 701 389 720 q 425 657 425 682 q 405 614 425 635 q 202 416 332 537 m 510 401 q 604 316 549 372 q 669 252 636 284 q 718 180 718 202 q 699 136 718 155 q 656 117 681 117 q 619 131 639 117 q 503 244 591 152 q 372 339 435 315 q 321 395 321 359 q 367 452 321 431 q 506 562 431 483 q 581 644 544 602 q 671 705 644 705 q 714 686 696 705 q 733 643 733 667 q 712 599 733 621 q 510 401 638 522 z "},"¬":{"ha":667,"x_min":33,"x_max":620,"o":"m 614 229 q 553 168 612 168 q 493 229 494 168 l 492 385 q 138 370 237 370 q 33 433 33 370 q 70 488 33 477 q 281 494 71 488 q 425 496 377 496 q 467 498 439 496 q 508 500 494 500 q 619 436 618 500 q 617 332 620 412 l 614 229 z "},"®":{"ha":1105,"x_min":62,"x_max":1044,"o":"m 182 572 q 277 337 182 418 q 522 261 366 261 q 789 361 671 261 q 921 647 920 473 q 840 882 922 783 q 618 986 753 986 q 182 572 182 986 m 630 1106 q 928 964 808 1106 q 1044 649 1044 830 q 876 278 1044 427 q 522 140 720 140 q 191 252 315 140 q 62 572 62 368 q 216 973 62 834 q 630 1106 365 1106 m 450 686 q 580 705 555 699 q 672 773 672 728 q 522 795 642 795 l 496 795 q 465 792 477 795 q 450 686 461 757 m 577 582 q 627 527 616 536 q 690 488 655 500 q 737 431 737 471 q 721 387 737 406 q 679 368 704 368 q 582 406 629 368 q 505 484 554 427 q 428 562 458 539 q 401 418 416 489 q 342 369 390 369 q 299 386 317 369 q 281 427 281 402 q 282 440 281 432 l 341 781 q 414 901 361 899 q 453 908 426 901 q 497 916 479 916 q 684 899 623 916 q 793 774 793 867 q 577 582 793 621 z "},"¯":{"ha":871,"x_min":-24,"x_max":897,"o":"m 660 1155 q 515 1158 612 1155 q 371 1162 419 1162 l 69 1162 q 23 1158 54 1162 q -24 1155 -8 1155 l -24 1280 q 180 1281 44 1280 l 383 1282 q 527 1278 425 1282 q 670 1275 618 1274 l 897 1280 l 897 1155 l 660 1155 z "},"°":{"ha":568,"x_min":46,"x_max":519,"o":"m 280 1139 q 454 1067 387 1139 q 519 889 519 997 q 441 724 519 791 q 268 661 367 661 q 104 732 165 661 q 46 905 46 800 q 114 1072 46 1004 q 280 1139 181 1139 m 148 905 q 178 806 148 846 q 268 762 210 762 q 370 796 325 762 q 418 889 418 833 q 382 996 418 954 q 280 1038 345 1038 q 187 999 226 1038 q 148 905 148 960 z "},"±":{"ha":667,"x_min":33,"x_max":619,"o":"m 619 436 q 603 392 619 411 q 561 374 586 374 q 536 376 553 374 q 511 379 520 379 l 444 378 q 376 378 395 377 q 377 325 377 350 q 373 221 377 241 q 309 157 360 157 q 255 218 256 157 l 254 375 q 138 370 174 370 q 33 433 33 370 q 67 487 33 476 q 138 491 81 491 q 254 496 174 491 l 253 598 q 317 709 252 709 q 360 692 342 709 q 378 650 378 675 q 376 613 378 638 q 374 576 374 589 l 374 498 l 425 496 q 467 498 440 496 q 508 500 496 500 q 619 436 619 500 m 512 -77 q 536 -80 520 -77 q 561 -83 553 -83 q 603 -64 586 -83 q 619 -20 619 -45 q 508 43 619 43 q 441 42 486 43 q 374 41 397 41 q 241 38 330 41 q 108 35 153 35 q 33 -24 33 35 q 138 -87 33 -87 q 325 -82 200 -87 q 512 -77 450 -77 z "},"²":{"ha":904,"x_min":258,"x_max":667,"o":"m 374 716 l 488 713 q 554 720 510 713 q 618 727 597 727 q 653 711 640 727 q 667 675 667 696 q 486 612 667 612 q 417 614 463 612 q 349 615 372 615 q 258 684 258 615 q 330 837 258 773 l 463 927 q 535 1025 535 976 q 509 1069 535 1045 q 463 1093 484 1093 q 390 1065 416 1093 l 357 1013 q 315 985 340 985 q 278 999 294 985 q 262 1034 262 1013 q 332 1144 262 1098 q 466 1185 395 1185 q 582 1137 529 1185 q 636 1025 636 1087 q 589 884 636 938 q 483 806 562 855 q 374 716 406 760 z "},"³":{"ha":904,"x_min":281,"x_max":642,"o":"m 578 891 q 642 734 642 844 q 566 614 642 657 q 419 580 505 580 q 281 646 281 580 q 295 683 281 667 q 331 699 310 699 q 372 690 342 699 q 419 682 402 682 q 491 692 457 682 q 541 734 541 707 q 498 820 541 803 l 418 829 q 374 877 374 835 q 445 933 374 910 q 516 994 516 957 q 412 1052 516 1052 q 384 1046 403 1052 q 355 1040 365 1040 q 312 1080 312 1040 q 346 1136 312 1116 q 412 1154 375 1154 q 552 1117 496 1154 q 617 994 617 1074 q 578 891 617 932 z "},"´":{"ha":772,"x_min":144,"x_max":451,"o":"m 206 805 q 163 824 182 805 q 144 867 144 843 q 165 911 144 890 q 254 1019 193 939 q 354 1116 298 1077 q 390 1129 372 1129 q 433 1110 414 1129 q 451 1066 451 1090 q 425 1019 451 1039 q 335 921 389 989 q 246 822 279 850 q 206 805 227 805 z "},"µ":{"ha":722,"x_min":15,"x_max":801,"o":"m 216 -16 l 139 -233 q 81 -275 124 -275 q 35 -258 54 -275 q 15 -214 15 -240 q 67 -51 15 -197 q 130 144 97 33 l 137 236 q 170 452 145 334 q 235 664 193 560 q 313 723 259 723 q 368 671 368 723 q 340 566 368 646 q 304 452 309 476 q 264 156 264 267 q 264 129 264 141 q 346 104 305 104 q 545 133 437 104 l 597 397 q 667 656 626 543 q 745 719 689 719 q 801 669 801 719 q 770 541 801 654 l 732 396 l 671 103 q 656 12 665 52 q 574 -54 642 -54 q 522 10 522 -54 q 317 -34 428 -34 q 216 -16 259 -34 z "},"¶":{"ha":964,"x_min":48,"x_max":899,"o":"m 899 847 q 840 368 899 732 q 740 -85 779 -12 q 686 -125 719 -125 q 642 -108 661 -125 q 623 -66 623 -92 q 627 -43 623 -56 q 727 400 678 122 q 779 847 779 694 q 768 949 779 882 q 758 1052 758 1017 q 819 1110 758 1110 q 878 1058 864 1110 q 899 847 899 982 m 555 968 q 283 848 374 926 q 169 582 169 751 q 267 433 169 490 q 449 385 349 385 q 518 399 477 385 q 557 865 559 637 l 555 968 m 675 1002 l 677 936 q 677 871 677 904 q 643 398 677 688 q 554 -93 600 38 q 499 -133 540 -133 q 455 -116 473 -133 q 436 -75 436 -100 q 439 -56 436 -66 q 469 106 454 6 l 492 269 q 449 264 470 264 q 180 346 297 264 q 48 582 48 437 q 144 876 48 752 q 401 1052 249 1010 l 644 1119 q 667 1124 661 1124 q 709 1105 692 1124 q 726 1060 726 1086 q 675 1002 726 1017 z "},"·":{"ha":346,"x_min":97,"x_max":265,"o":"m 265 486 q 240 426 265 451 q 181 401 216 401 q 121 426 146 401 q 97 486 97 450 q 121 545 97 521 q 181 570 146 570 q 240 545 216 570 q 265 486 265 520 z "},"¸":{"ha":772,"x_min":248,"x_max":587,"o":"m 587 -133 q 422 -302 587 -302 q 313 -280 363 -302 q 248 -202 248 -252 q 294 -165 248 -165 q 351 -182 315 -165 q 415 -199 387 -199 q 481 -136 481 -198 q 433 -62 481 -96 q 350 -23 395 -34 q 304 26 304 -12 q 353 78 304 78 q 509 14 435 78 q 587 -133 587 -52 z "},"¹":{"ha":904,"x_min":273,"x_max":650,"o":"m 351 702 l 410 702 l 410 1009 q 328 980 362 980 q 279 1026 279 980 q 317 1078 279 1065 q 397 1130 334 1084 q 471 1169 452 1169 q 509 1141 501 1169 q 511 1088 511 1133 l 511 702 l 541 703 q 608 703 599 704 q 650 666 650 696 q 635 628 650 644 q 599 612 621 612 l 322 612 q 287 628 301 612 q 273 664 273 643 q 300 701 273 694 q 351 702 305 702 z "},"º":{"ha":624,"x_min":27,"x_max":584,"o":"m 584 914 q 297 605 584 605 q 99 697 180 605 q 27 876 27 780 q 124 1069 27 981 q 325 1154 220 1154 q 498 1066 409 1153 q 584 914 584 983 m 306 1013 q 210 969 257 1013 q 162 876 162 925 q 204 773 162 817 q 305 729 246 729 q 411 791 368 729 q 450 914 450 848 q 397 988 450 958 q 306 1013 353 1013 z "},"»":{"ha":802,"x_min":13,"x_max":733,"o":"m 544 416 q 450 330 507 389 q 385 267 417 298 q 336 195 336 217 q 354 151 336 170 q 397 132 372 132 q 435 146 415 132 q 551 258 462 166 q 682 354 620 330 q 733 410 733 374 q 686 467 733 444 q 548 576 624 496 q 473 658 510 617 q 382 720 410 720 q 339 701 357 720 q 321 657 321 682 q 342 614 321 635 q 544 416 420 531 m 236 401 q 143 316 199 374 q 77 252 110 284 q 28 180 28 202 q 47 136 28 155 q 90 117 65 117 q 127 131 107 117 q 243 244 155 152 q 374 339 311 315 q 425 395 425 359 q 379 452 425 431 q 240 562 315 483 q 165 644 202 602 q 75 705 102 705 q 32 686 50 705 q 13 643 13 667 q 34 599 13 621 q 236 401 108 522 z "},"¼":{"ha":904,"x_min":110,"x_max":821,"o":"m 351 702 l 410 702 l 410 1009 q 328 980 362 980 q 279 1026 279 980 q 317 1078 279 1065 q 397 1130 334 1084 q 471 1169 452 1169 q 509 1141 501 1169 q 511 1088 511 1133 l 511 702 l 541 703 q 608 703 599 704 q 650 666 650 696 q 635 628 650 644 q 599 612 621 612 l 322 612 q 287 628 301 612 q 273 664 273 643 q 300 701 273 694 q 351 702 305 702 m 345 503 l 660 493 q 773 487 692 492 q 821 437 821 478 q 768 386 821 383 l 629 393 q 345 401 491 401 q 253 399 315 401 q 161 397 191 397 q 110 448 110 397 q 161 498 110 498 q 253 501 186 498 q 345 503 311 504 m 456 12 l 458 165 q 322 13 378 72 q 371 15 350 16 l 456 12 m 551 208 l 554 10 l 593 11 q 679 -39 679 12 q 635 -71 679 -71 q 595 -68 617 -71 l 555 -64 l 557 -181 q 506 -232 557 -232 q 455 -181 455 -232 l 456 -65 l 237 -76 q 183 -24 183 -79 q 212 38 183 9 q 333 175 262 88 q 452 313 414 274 q 515 340 477 340 q 552 326 536 340 q 568 291 568 311 q 560 249 568 277 q 551 208 551 222 z "},"½":{"ha":904,"x_min":110,"x_max":821,"o":"m 351 702 l 410 702 l 410 1009 q 328 980 362 980 q 279 1026 279 980 q 317 1078 279 1065 q 397 1130 334 1084 q 471 1169 452 1169 q 509 1139 501 1169 q 511 1083 511 1130 l 511 702 l 541 703 q 608 703 599 704 q 650 666 650 696 q 635 628 650 644 q 599 612 621 612 l 322 612 q 287 628 301 612 q 273 664 273 643 q 300 701 273 694 q 351 702 305 702 m 345 503 l 660 493 q 773 487 692 492 q 821 437 821 478 q 768 386 821 383 l 629 393 q 345 401 491 401 q 253 399 315 401 q 161 397 191 397 q 110 448 110 397 q 161 498 110 498 q 253 501 186 498 q 345 503 311 504 m 374 -139 l 488 -142 q 554 -135 510 -142 q 618 -128 597 -128 q 653 -144 640 -128 q 667 -180 667 -159 q 486 -243 667 -243 q 417 -241 463 -243 q 349 -240 372 -240 q 258 -172 258 -240 q 330 -18 258 -82 l 463 72 q 535 170 535 121 q 509 214 535 190 q 463 238 484 238 q 390 210 416 238 l 357 158 q 315 130 340 130 q 262 178 262 130 q 332 290 262 243 q 466 330 394 330 q 582 282 529 330 q 636 170 636 232 q 589 29 636 83 q 483 -49 562 0 q 374 -139 406 -96 z "},"¾":{"ha":904,"x_min":110,"x_max":821,"o":"m 578 891 q 642 734 642 844 q 566 614 642 657 q 419 580 505 580 q 281 646 281 580 q 295 683 281 667 q 331 699 310 699 q 372 690 342 699 q 419 682 402 682 q 491 692 457 682 q 541 734 541 707 q 498 820 541 803 l 418 829 q 374 877 374 835 q 445 933 374 910 q 516 994 516 957 q 412 1052 516 1052 q 384 1046 403 1052 q 355 1040 365 1040 q 312 1080 312 1040 q 346 1136 312 1116 q 412 1154 375 1154 q 552 1117 496 1154 q 617 994 617 1074 q 578 891 617 932 m 345 503 q 660 493 456 503 q 773 487 692 492 q 821 437 821 483 q 768 386 821 383 l 629 393 q 345 401 491 401 q 253 399 315 401 q 161 397 191 397 q 110 448 110 397 q 161 498 110 498 q 253 500 191 498 q 345 503 315 503 m 456 12 l 458 165 q 322 13 378 72 q 371 15 349 16 l 456 12 m 551 208 l 554 10 l 587 11 q 679 -39 679 13 q 635 -71 679 -71 q 595 -68 616 -71 q 555 -64 578 -66 l 557 -181 q 506 -232 557 -232 q 455 -181 455 -232 l 456 -65 l 237 -76 q 183 -24 183 -79 q 212 38 183 11 q 336 172 266 87 l 452 313 q 515 340 474 340 q 552 326 536 340 q 568 291 568 312 q 560 251 568 279 q 551 208 551 223 z "},"¿":{"ha":728,"x_min":35,"x_max":652,"o":"m 435 744 q 484 723 463 744 q 505 674 505 702 q 418 559 505 625 l 256 437 q 169 299 169 370 q 242 154 169 220 q 394 90 313 90 q 503 133 434 90 q 584 177 572 177 q 632 155 612 177 q 652 104 652 133 q 548 -2 652 51 q 394 -49 456 -49 q 146 57 256 -49 q 35 299 35 162 q 99 475 35 398 q 241 596 140 524 q 385 716 345 670 q 435 744 408 744 m 473 1002 q 526 983 503 1002 q 551 933 551 962 q 529 858 551 891 q 464 819 504 819 q 399 899 399 819 q 416 967 399 938 q 473 1002 437 1002 z "},"À":{"ha":1016,"x_min":89,"x_max":917,"o":"m 848 -20 q 739 140 785 -20 q 695 353 722 201 q 514 319 644 347 l 334 282 q 218 22 290 169 q 159 -16 199 -16 q 110 4 130 -16 q 89 53 89 24 q 191 300 89 85 q 180 341 180 318 q 246 412 180 396 q 441 745 323 556 q 642 1002 602 1002 q 715 928 701 1002 l 758 700 l 859 229 l 897 121 q 917 48 917 67 q 897 0 917 20 q 848 -20 876 -20 m 608 755 l 414 442 q 663 493 496 463 l 608 755 m 745 1171 q 726 1129 745 1147 q 682 1111 707 1111 q 633 1139 652 1111 l 566 1240 q 481 1327 535 1286 q 455 1375 455 1348 q 473 1419 455 1400 q 515 1438 491 1438 q 652 1328 559 1438 q 745 1171 745 1217 z "},"Á":{"ha":1016,"x_min":89,"x_max":917,"o":"m 848 -20 q 739 140 785 -20 q 695 353 722 201 q 514 319 644 347 l 334 282 q 218 22 290 169 q 159 -16 199 -16 q 110 4 130 -16 q 89 53 89 24 q 191 300 89 85 q 180 341 180 318 q 246 412 180 396 q 441 745 323 556 q 642 1002 602 1002 q 715 928 701 1002 l 758 700 l 859 229 l 897 121 q 917 48 917 67 q 897 0 917 20 q 848 -20 876 -20 m 608 755 l 414 442 q 663 493 496 463 l 608 755 m 631 1105 q 588 1124 607 1105 q 570 1168 570 1143 q 591 1212 570 1191 q 680 1320 618 1240 q 779 1417 723 1377 q 815 1430 798 1430 q 858 1410 840 1430 q 876 1367 876 1391 q 850 1319 876 1339 q 760 1221 814 1290 q 671 1122 704 1150 q 631 1105 652 1105 z "},"Â":{"ha":1016,"x_min":89,"x_max":917,"o":"m 848 -20 q 739 140 785 -20 q 695 353 722 201 q 514 319 644 347 l 334 282 q 218 22 290 169 q 159 -16 199 -16 q 110 4 130 -16 q 89 53 89 24 q 191 300 89 85 q 180 341 180 318 q 246 412 180 396 q 441 745 323 556 q 642 1002 602 1002 q 715 928 701 1002 l 758 700 l 859 229 l 897 121 q 917 48 917 67 q 897 0 917 20 q 848 -20 876 -20 m 608 755 l 414 442 q 663 493 496 463 l 608 755 m 619 1417 q 709 1372 656 1417 q 783 1296 724 1358 l 890 1181 q 908 1139 908 1162 q 889 1096 908 1114 q 846 1078 871 1078 q 803 1097 821 1078 q 633 1274 720 1187 q 412 1062 461 1062 q 369 1081 388 1062 q 351 1124 351 1100 q 371 1168 351 1149 q 578 1396 414 1210 q 619 1417 596 1417 z "},"Ã":{"ha":1016,"x_min":89,"x_max":981,"o":"m 848 -20 q 739 140 785 -20 q 695 353 722 201 q 514 319 644 347 l 334 282 q 218 22 290 169 q 159 -16 199 -16 q 110 4 130 -16 q 89 53 89 24 q 191 300 89 85 q 180 341 180 318 q 246 412 180 396 q 441 745 323 556 q 642 1002 602 1002 q 715 928 701 1002 l 758 700 l 859 229 l 897 121 q 917 48 917 67 q 897 0 917 20 q 848 -20 876 -20 m 608 755 l 414 442 q 663 493 496 463 l 608 755 m 546 1360 q 655 1320 614 1360 l 711 1249 q 787 1209 742 1209 q 845 1234 826 1209 l 876 1294 l 890 1334 q 930 1354 899 1354 q 981 1303 981 1354 q 953 1223 981 1279 q 905 1147 925 1167 q 808 1108 867 1108 q 669 1147 720 1108 q 610 1219 652 1160 q 546 1258 582 1258 q 479 1227 504 1258 l 450 1169 q 406 1139 434 1139 q 369 1153 385 1139 q 353 1187 353 1166 q 355 1203 353 1196 q 424 1315 374 1273 q 546 1360 476 1360 z "},"Ä":{"ha":1016,"x_min":89,"x_max":917,"o":"m 848 -20 q 739 140 785 -20 q 695 353 722 201 q 514 319 644 347 l 334 282 q 218 22 290 169 q 159 -16 199 -16 q 110 4 130 -16 q 89 53 89 24 q 191 300 89 85 q 180 341 180 318 q 246 412 180 396 q 441 745 323 556 q 642 1002 602 1002 q 715 928 701 1002 l 758 700 l 859 229 l 897 121 q 917 48 917 67 q 897 0 917 20 q 848 -20 876 -20 m 608 755 l 414 442 q 663 493 496 463 l 608 755 m 476 1236 q 565 1164 565 1236 q 534 1124 565 1143 q 484 1108 507 1108 q 401 1178 401 1108 q 427 1218 401 1200 q 476 1236 454 1236 m 842 1241 q 888 1220 864 1241 q 912 1178 912 1200 q 815 1116 912 1116 q 766 1130 787 1116 q 741 1173 741 1146 q 772 1233 741 1219 q 842 1241 789 1241 z "},"Å":{"ha":1016,"x_min":89,"x_max":917,"o":"m 848 -20 q 739 140 785 -20 q 695 353 722 201 q 514 319 644 347 l 334 282 q 218 22 290 169 q 159 -16 199 -16 q 110 4 130 -16 q 89 53 89 24 q 191 300 89 85 q 180 341 180 318 q 246 412 180 396 q 441 745 323 556 q 642 1002 602 1002 q 715 928 701 1002 l 758 700 l 859 229 l 897 121 q 917 48 917 67 q 897 0 917 20 q 848 -20 876 -20 m 608 755 l 414 442 q 663 493 496 463 l 608 755 m 654 1069 q 740 1085 713 1071 q 785 1175 785 1109 q 749 1236 785 1214 q 676 1256 718 1256 q 532 1147 529 1256 q 578 1089 532 1113 q 654 1069 617 1067 m 430 1147 q 504 1306 430 1250 q 676 1357 570 1357 q 822 1310 762 1357 q 887 1175 887 1258 q 644 969 887 973 q 498 1015 560 968 q 430 1147 430 1066 z "},"Æ":{"ha":1510,"x_min":31,"x_max":1503,"o":"m 781 456 q 597 443 718 454 l 412 426 q 238 165 379 380 l 156 39 q 102 8 136 8 q 53 28 74 8 q 31 75 31 48 q 44 114 31 93 q 410 639 212 387 l 594 873 q 808 1065 707 1018 q 856 1076 831 1076 q 905 1056 884 1076 q 1194 1099 1067 1099 q 1457 1060 1372 1099 q 1503 995 1503 1039 q 1484 945 1503 966 q 1436 924 1465 924 q 1415 927 1428 924 q 1194 960 1289 960 q 931 918 1080 960 q 937 848 937 876 q 926 589 937 753 l 1223 617 q 1383 631 1364 631 q 1434 611 1414 631 q 1453 560 1453 591 q 1392 491 1453 503 l 1230 477 l 917 448 q 911 277 911 352 q 932 101 911 124 q 1039 82 951 82 q 1166 84 1081 82 q 1293 87 1251 87 q 1332 91 1306 87 q 1372 95 1358 95 q 1444 25 1444 95 q 1386 -43 1444 -28 q 1240 -59 1323 -60 l 1092 -58 q 832 12 893 -56 q 775 277 775 75 q 781 456 775 355 m 530 572 q 790 591 696 589 q 802 848 802 755 q 798 894 802 868 q 659 738 735 836 l 530 572 z "},"Ç":{"ha":837,"x_min":61,"x_max":816,"o":"m 537 -96 q 442 -249 537 -208 q 250 -276 379 -276 q 162 -223 162 -276 q 212 -172 162 -172 q 250 -174 224 -172 q 288 -175 275 -175 q 435 -96 435 -175 q 363 -22 435 -47 l 254 16 q 61 338 61 129 q 254 810 61 567 q 578 1011 414 1011 q 684 998 646 1011 q 746 1033 708 1033 q 809 954 794 1033 q 816 836 816 919 q 798 784 816 805 q 749 761 779 761 q 684 812 707 761 q 646 865 664 856 q 578 872 632 872 q 359 722 480 872 q 197 338 197 518 q 251 190 197 254 q 392 123 309 123 q 534 160 461 123 q 641 229 572 180 q 711 267 694 267 q 760 245 739 267 q 780 196 780 224 q 666 75 780 144 q 500 -1 572 18 q 537 -96 537 -47 z "},"È":{"ha":867,"x_min":95,"x_max":823,"o":"m 756 913 q 735 916 747 913 q 514 949 621 949 q 251 907 400 949 q 257 837 257 863 q 245 578 257 743 l 543 606 q 703 620 684 620 q 754 601 734 620 q 774 550 774 581 q 711 481 774 486 l 237 438 q 231 267 231 330 q 252 90 231 116 q 359 71 268 71 q 486 74 401 71 q 612 76 570 76 q 652 80 626 76 q 692 85 678 85 q 764 14 764 85 q 706 -54 764 -43 q 430 -67 642 -67 q 160 -12 220 -67 q 95 267 95 49 q 102 473 95 341 q 95 506 95 488 q 108 547 95 529 q 121 837 121 743 q 115 910 121 861 q 108 984 108 960 q 176 1065 108 1065 q 224 1045 204 1065 q 514 1088 387 1088 q 777 1049 679 1088 q 823 984 823 1031 q 804 934 823 956 q 756 913 785 913 m 648 1245 q 628 1203 648 1221 q 585 1185 609 1185 q 536 1213 555 1185 l 468 1314 q 384 1401 437 1360 q 357 1449 357 1421 q 375 1493 357 1474 q 418 1512 393 1512 q 554 1401 461 1512 q 648 1245 648 1291 z "},"É":{"ha":867,"x_min":95,"x_max":823,"o":"m 756 913 q 735 916 747 913 q 514 949 621 949 q 251 907 400 949 q 257 837 257 863 q 245 578 257 743 l 543 606 q 703 620 684 620 q 754 601 734 620 q 774 550 774 581 q 711 481 774 486 l 237 438 q 231 267 231 330 q 252 90 231 116 q 359 71 268 71 q 486 74 401 71 q 612 76 570 76 q 652 80 626 76 q 692 85 678 85 q 764 14 764 85 q 706 -54 764 -43 q 430 -67 642 -67 q 160 -12 220 -67 q 95 267 95 49 q 102 473 95 341 q 95 506 95 488 q 108 547 95 529 q 121 837 121 743 q 115 910 121 861 q 108 984 108 960 q 176 1065 108 1065 q 224 1045 204 1065 q 514 1088 387 1088 q 777 1049 679 1088 q 823 984 823 1031 q 804 934 823 956 q 756 913 785 913 m 507 1196 q 464 1215 482 1196 q 445 1259 445 1234 q 466 1303 445 1282 q 555 1411 494 1331 q 654 1508 598 1468 q 690 1520 673 1520 q 733 1501 715 1520 q 751 1457 751 1482 q 726 1410 751 1430 q 635 1312 689 1381 q 547 1213 579 1241 q 507 1196 527 1196 z "},"Ê":{"ha":867,"x_min":95,"x_max":823,"o":"m 756 913 q 735 916 747 913 q 514 949 621 949 q 251 907 400 949 q 257 837 257 863 q 245 578 257 743 l 543 606 q 703 620 684 620 q 754 601 734 620 q 774 550 774 581 q 711 481 774 486 l 237 438 q 231 267 231 330 q 252 90 231 116 q 359 71 268 71 q 486 74 401 71 q 612 76 570 76 q 652 80 626 76 q 692 85 678 85 q 764 14 764 85 q 706 -54 764 -43 q 430 -67 642 -67 q 160 -12 220 -67 q 95 267 95 49 q 102 473 95 341 q 95 506 95 488 q 108 547 95 529 q 121 837 121 743 q 115 910 121 861 q 108 984 108 960 q 176 1065 108 1065 q 224 1045 204 1065 q 514 1088 387 1088 q 777 1049 679 1088 q 823 984 823 1031 q 804 934 823 956 q 756 913 785 913 m 509 1531 q 599 1485 547 1531 q 673 1409 614 1472 l 781 1294 q 798 1253 798 1275 q 780 1209 798 1227 q 736 1191 761 1191 q 693 1211 711 1191 q 524 1387 610 1300 q 302 1175 351 1175 q 259 1194 278 1175 q 241 1238 241 1213 q 261 1282 241 1262 q 468 1510 304 1323 q 509 1531 486 1531 z "},"Ë":{"ha":867,"x_min":95,"x_max":823,"o":"m 756 913 q 735 916 747 913 q 514 949 621 949 q 251 907 400 949 q 257 837 257 863 q 245 578 257 743 l 543 606 q 703 620 684 620 q 754 601 734 620 q 774 550 774 581 q 711 481 774 486 l 237 438 q 231 267 231 330 q 252 90 231 116 q 359 71 268 71 q 486 74 401 71 q 612 76 570 76 q 652 80 626 76 q 692 85 678 85 q 764 14 764 85 q 706 -54 764 -43 q 430 -67 642 -67 q 160 -12 220 -67 q 95 267 95 49 q 102 473 95 341 q 95 506 95 488 q 108 547 95 529 q 121 837 121 743 q 115 910 121 861 q 108 984 108 960 q 176 1065 108 1065 q 224 1045 204 1065 q 514 1088 387 1088 q 777 1049 679 1088 q 823 984 823 1031 q 804 934 823 956 q 756 913 785 913 m 354 1316 q 443 1244 443 1316 q 412 1204 443 1223 q 362 1188 385 1188 q 279 1258 279 1188 q 305 1298 279 1280 q 354 1316 332 1316 m 720 1321 q 766 1300 742 1321 q 790 1258 790 1280 q 693 1196 790 1196 q 644 1210 665 1196 q 619 1253 619 1226 q 650 1313 619 1299 q 720 1321 667 1321 z "},"Ì":{"ha":759,"x_min":51,"x_max":719,"o":"m 649 845 q 540 854 608 845 l 431 868 q 415 491 415 671 q 418 374 415 452 q 420 256 420 296 q 416 140 420 193 l 629 143 q 677 123 658 144 q 696 74 696 103 q 677 24 696 45 q 629 4 659 4 q 515 2 591 4 q 401 1 439 1 q 267 -12 357 1 q 133 -24 178 -24 q 85 -4 104 -24 q 66 45 66 16 q 85 94 66 74 q 133 115 104 115 q 279 129 177 115 q 286 254 286 184 q 281 368 286 292 q 277 482 277 444 q 296 873 277 639 l 119 869 q 70 888 90 868 q 51 939 51 909 q 115 1008 51 1002 q 320 1013 170 1013 q 659 984 456 1013 q 719 911 719 975 q 699 863 719 882 q 649 845 679 845 m 511 1198 q 492 1156 511 1174 q 448 1138 473 1138 q 399 1166 418 1138 l 332 1267 q 248 1354 301 1313 q 221 1402 221 1375 q 239 1446 221 1427 q 281 1466 257 1466 q 418 1355 325 1466 q 511 1198 511 1244 z "},"Í":{"ha":759,"x_min":51,"x_max":719,"o":"m 649 845 q 540 854 608 845 l 431 868 q 415 491 415 671 q 418 374 415 452 q 420 256 420 296 q 416 140 420 193 l 629 143 q 677 123 658 144 q 696 74 696 103 q 677 24 696 45 q 629 4 659 4 q 515 2 591 4 q 401 1 439 1 q 267 -12 357 1 q 133 -24 178 -24 q 85 -4 104 -24 q 66 45 66 16 q 85 94 66 74 q 133 115 104 115 q 279 129 177 115 q 286 254 286 184 q 281 368 286 292 q 277 482 277 444 q 296 873 277 639 l 119 869 q 70 888 90 868 q 51 939 51 909 q 115 1008 51 1002 q 320 1013 170 1013 q 659 984 456 1013 q 719 911 719 975 q 699 863 719 882 q 649 845 679 845 m 355 1124 q 312 1143 331 1124 q 294 1186 294 1162 q 315 1230 294 1209 q 404 1338 342 1258 q 503 1435 447 1396 q 539 1448 522 1448 q 582 1429 564 1448 q 600 1385 600 1409 q 574 1337 600 1358 q 484 1240 538 1308 q 395 1141 428 1168 q 355 1124 376 1124 z "},"Î":{"ha":759,"x_min":51,"x_max":719,"o":"m 649 845 q 540 854 608 845 l 431 868 q 415 491 415 671 q 418 374 415 452 q 420 256 420 296 q 416 140 420 193 l 629 143 q 677 123 658 144 q 696 74 696 103 q 677 24 696 45 q 629 4 659 4 q 515 2 591 4 q 401 1 439 1 q 267 -12 357 1 q 133 -24 178 -24 q 85 -4 104 -24 q 66 45 66 16 q 85 94 66 74 q 133 115 104 115 q 279 129 177 115 q 286 254 286 184 q 281 368 286 292 q 277 482 277 444 q 296 873 277 639 l 119 869 q 70 888 90 868 q 51 939 51 909 q 115 1008 51 1002 q 320 1013 170 1013 q 659 984 456 1013 q 719 911 719 975 q 699 863 719 882 q 649 845 679 845 m 389 1476 q 479 1431 427 1476 q 553 1355 494 1417 l 661 1240 q 678 1198 678 1221 q 660 1155 678 1173 q 616 1137 641 1137 q 573 1156 591 1137 q 404 1333 490 1246 q 182 1121 231 1121 q 139 1140 158 1121 q 121 1183 121 1159 q 141 1227 121 1208 q 348 1455 184 1269 q 389 1476 366 1476 z "},"Ï":{"ha":759,"x_min":51,"x_max":719,"o":"m 649 845 q 540 854 608 845 l 431 868 q 415 491 415 671 q 418 374 415 452 q 420 256 420 296 q 416 140 420 193 l 629 143 q 677 123 658 144 q 696 74 696 103 q 677 24 696 45 q 629 4 659 4 q 515 2 591 4 q 401 1 439 1 q 267 -12 357 1 q 133 -24 178 -24 q 85 -4 104 -24 q 66 45 66 16 q 85 94 66 74 q 133 115 104 115 q 279 129 177 115 q 286 254 286 184 q 281 368 286 292 q 277 482 277 444 q 296 873 277 639 l 119 869 q 70 888 90 868 q 51 939 51 909 q 115 1008 51 1002 q 320 1013 170 1013 q 659 984 456 1013 q 719 911 719 975 q 699 863 719 882 q 649 845 679 845 m 227 1249 q 315 1178 315 1249 q 285 1138 315 1156 q 235 1122 258 1122 q 151 1192 151 1122 q 178 1231 151 1213 q 227 1249 204 1249 m 592 1255 q 638 1234 614 1255 q 663 1192 663 1213 q 566 1129 663 1129 q 516 1143 538 1129 q 492 1186 492 1160 q 522 1246 492 1232 q 592 1255 540 1255 z "},"Ð":{"ha":944,"x_min":54,"x_max":919,"o":"m 882 410 q 717 88 842 213 q 387 -47 581 -47 q 54 326 54 -47 q 136 688 54 503 q 350 989 218 873 q 534 1065 437 1065 q 696 1025 595 1065 q 820 917 820 975 q 800 867 820 888 q 751 846 779 846 q 709 863 736 846 q 534 926 606 926 q 427 873 483 926 q 347 777 401 848 q 191 326 191 568 q 227 153 191 203 q 387 92 270 92 q 613 182 522 92 q 730 401 696 264 q 408 329 542 392 q 377 321 392 321 q 329 343 349 321 q 309 393 309 364 q 345 453 309 431 q 850 543 491 543 q 900 523 880 543 q 919 473 919 503 q 882 410 919 429 m 517 1206 q 745 1315 715 1206 q 793 1358 756 1358 q 832 1343 815 1358 q 846 1308 848 1328 l 844 1299 q 725 1144 829 1192 q 517 1105 640 1105 q 348 1169 420 1105 q 273 1332 273 1236 q 323 1383 273 1383 q 374 1336 366 1383 q 420 1242 384 1272 q 517 1206 463 1206 z "},"Ñ":{"ha":1107,"x_min":83,"x_max":1049,"o":"m 1045 151 q 1034 42 1045 115 q 962 -26 1024 -26 q 873 22 924 -26 q 239 776 597 283 l 234 467 q 236 298 233 406 q 239 129 239 178 q 168 -54 239 -54 q 112 -33 135 -54 q 90 20 90 -12 q 94 106 90 49 q 98 193 98 164 q 101 318 98 235 q 104 444 104 402 q 102 579 104 490 q 100 715 100 669 q 92 842 100 758 q 83 969 83 926 q 111 1027 83 1002 q 171 1052 138 1052 q 260 973 207 1052 q 564 553 432 716 q 916 173 723 355 q 916 259 918 195 l 914 345 q 907 612 909 548 q 891 819 901 741 q 873 890 889 834 q 859 962 859 936 q 931 1040 859 1040 q 1049 600 1049 1040 q 1047 375 1049 525 q 1045 151 1045 226 m 444 1373 q 553 1333 512 1373 l 610 1261 q 686 1222 640 1222 q 743 1247 724 1222 l 774 1307 l 788 1347 q 829 1367 798 1367 q 880 1316 880 1367 q 851 1236 880 1292 q 804 1160 823 1180 q 707 1121 766 1121 q 568 1160 618 1121 q 508 1232 551 1173 q 444 1271 480 1271 q 378 1240 402 1271 l 348 1182 q 304 1152 332 1152 q 267 1165 283 1152 q 252 1200 252 1179 q 254 1216 252 1208 q 322 1328 273 1286 q 444 1373 374 1373 z "},"Ò":{"ha":1109,"x_min":79,"x_max":1050,"o":"m 544 -41 q 220 73 353 -41 q 79 388 79 195 q 218 814 79 623 q 605 1027 372 1027 q 938 926 829 1027 q 1050 597 1050 821 q 922 174 1050 362 q 544 -41 776 -41 m 605 888 q 323 723 439 888 q 217 388 217 570 q 315 173 217 254 q 544 98 408 98 q 816 264 709 98 q 911 597 911 412 q 838 825 911 759 q 605 888 768 888 m 828 1178 q 809 1136 828 1154 q 765 1118 789 1118 q 716 1146 735 1118 l 648 1247 q 564 1334 618 1293 q 538 1382 538 1354 q 556 1426 538 1407 q 598 1445 574 1445 q 735 1334 642 1445 q 828 1178 828 1223 z "},"Ó":{"ha":1109,"x_min":79,"x_max":1050,"o":"m 544 -41 q 220 73 353 -41 q 79 388 79 195 q 218 814 79 623 q 605 1027 372 1027 q 938 926 829 1027 q 1050 597 1050 821 q 922 174 1050 362 q 544 -41 776 -41 m 605 888 q 323 723 439 888 q 217 388 217 570 q 315 173 217 254 q 544 98 408 98 q 816 264 709 98 q 911 597 911 412 q 838 825 911 759 q 605 888 768 888 m 657 1110 q 614 1129 633 1110 q 595 1173 595 1148 q 616 1217 595 1196 q 705 1324 644 1244 q 805 1421 749 1382 q 841 1434 823 1434 q 884 1415 865 1434 q 902 1371 902 1396 q 876 1324 902 1344 q 786 1226 840 1295 q 697 1127 730 1155 q 657 1110 677 1110 z "},"Ô":{"ha":1109,"x_min":79,"x_max":1050,"o":"m 544 -41 q 220 73 353 -41 q 79 388 79 195 q 218 814 79 623 q 605 1027 372 1027 q 938 926 829 1027 q 1050 597 1050 821 q 922 174 1050 362 q 544 -41 776 -41 m 605 888 q 323 723 439 888 q 217 388 217 570 q 315 173 217 254 q 544 98 408 98 q 816 264 709 98 q 911 597 911 412 q 838 825 911 759 q 605 888 768 888 m 665 1451 q 754 1406 702 1451 q 828 1330 770 1392 l 936 1215 q 954 1173 954 1196 q 935 1130 954 1148 q 891 1112 916 1112 q 848 1131 867 1112 q 679 1308 766 1221 q 458 1096 507 1096 q 415 1115 433 1096 q 396 1158 396 1134 q 416 1202 396 1183 q 623 1430 459 1244 q 665 1451 642 1451 z "},"Õ":{"ha":1109,"x_min":79,"x_max":1050,"o":"m 544 -41 q 220 73 353 -41 q 79 388 79 195 q 218 814 79 623 q 605 1027 372 1027 q 938 926 829 1027 q 1050 597 1050 821 q 922 174 1050 362 q 544 -41 776 -41 m 605 888 q 323 723 439 888 q 217 388 217 570 q 315 173 217 254 q 544 98 408 98 q 816 264 709 98 q 911 597 911 412 q 838 825 911 759 q 605 888 768 888 m 550 1361 q 659 1322 618 1361 l 715 1250 q 791 1211 746 1211 q 849 1236 830 1211 l 880 1295 l 894 1335 q 935 1355 903 1355 q 985 1305 985 1355 q 957 1224 985 1280 q 909 1148 929 1168 q 812 1109 871 1109 q 673 1148 724 1109 q 614 1221 656 1161 q 550 1259 586 1259 q 484 1228 508 1259 l 454 1171 q 410 1140 438 1140 q 373 1154 389 1140 q 357 1189 357 1168 q 359 1204 357 1197 q 428 1316 378 1274 q 550 1361 480 1361 z "},"Ö":{"ha":1109,"x_min":79,"x_max":1050,"o":"m 544 -41 q 220 73 353 -41 q 79 388 79 195 q 218 814 79 623 q 605 1027 372 1027 q 938 926 829 1027 q 1050 597 1050 821 q 922 174 1050 362 q 544 -41 776 -41 m 605 888 q 323 723 439 888 q 217 388 217 570 q 315 173 217 254 q 544 98 408 98 q 816 264 709 98 q 911 597 911 412 q 838 825 911 759 q 605 888 768 888 m 463 1253 q 551 1182 551 1253 q 521 1142 551 1160 q 471 1126 494 1126 q 387 1196 387 1126 q 414 1235 387 1217 q 463 1253 440 1253 m 828 1259 q 874 1238 850 1259 q 899 1196 899 1217 q 802 1133 899 1133 q 752 1147 774 1133 q 728 1190 728 1164 q 758 1251 728 1236 q 828 1259 776 1259 z "},"×":{"ha":667,"x_min":45,"x_max":577,"o":"m 408 433 q 500 349 454 398 q 561 245 561 282 q 546 197 561 218 q 503 174 530 174 q 398 263 454 174 q 333 326 377 296 q 233 200 284 266 q 168 152 216 152 q 120 170 140 152 q 100 216 100 188 q 135 294 100 255 q 192 360 190 357 q 226 415 200 374 q 155 484 179 462 q 87 536 121 510 q 45 600 45 572 q 65 649 45 628 q 113 671 85 671 q 307 524 159 671 q 418 633 360 588 q 456 665 433 644 q 507 692 479 692 q 556 671 534 692 q 577 623 577 650 q 530 550 577 589 q 457 490 530 550 q 408 433 433 466 z "},"Ø":{"ha":1109,"x_min":56,"x_max":1106,"o":"m 901 745 q 714 555 817 667 l 534 360 l 344 160 q 553 98 433 98 q 829 269 723 98 q 921 597 921 417 q 901 745 921 687 m 263 246 l 544 546 l 827 842 q 614 888 758 888 q 330 718 445 888 q 227 388 227 566 q 263 246 227 310 m 120 -61 q 76 -42 95 -61 q 56 1 56 -24 q 104 71 56 20 l 168 140 q 88 388 88 247 q 230 817 88 626 q 614 1027 385 1027 q 925 945 817 1027 q 1042 1046 1024 1046 q 1087 1028 1067 1046 q 1106 986 1106 1011 q 1004 852 1106 960 q 1059 597 1059 755 q 929 170 1059 359 q 553 -41 783 -41 q 247 59 376 -41 l 184 -10 q 120 -61 138 -61 z "},"Ù":{"ha":1023,"x_min":105,"x_max":942,"o":"m 536 -27 q 233 81 336 -27 q 115 383 138 181 q 105 727 105 472 q 122 967 105 918 q 182 1016 138 1016 q 245 901 245 1016 l 245 503 q 532 92 245 92 q 803 784 803 92 l 803 850 q 802 884 803 865 q 802 905 802 901 q 817 979 802 947 q 873 1019 836 1019 q 941 926 941 1019 q 941 892 941 917 q 942 842 942 860 l 942 758 q 536 -27 942 -27 m 629 1168 q 609 1126 629 1144 q 566 1108 590 1108 q 517 1137 536 1108 l 449 1238 q 365 1324 418 1283 q 338 1373 338 1345 q 356 1416 338 1397 q 399 1436 374 1436 q 535 1325 442 1436 q 629 1168 629 1214 z "},"Ú":{"ha":1023,"x_min":105,"x_max":942,"o":"m 536 -27 q 233 81 336 -27 q 115 383 138 181 q 105 727 105 472 q 122 967 105 918 q 182 1016 138 1016 q 245 901 245 1016 l 245 503 q 532 92 245 92 q 803 784 803 92 l 803 850 q 802 884 803 865 q 802 905 802 901 q 817 979 802 947 q 873 1019 836 1019 q 941 926 941 1019 q 941 892 941 917 q 942 842 942 860 l 942 758 q 536 -27 942 -27 m 520 1114 q 477 1133 496 1114 q 458 1177 458 1152 q 479 1221 458 1200 q 568 1329 507 1249 q 668 1426 612 1386 q 704 1438 686 1438 q 747 1419 728 1438 q 765 1375 765 1400 q 739 1328 765 1348 q 649 1230 703 1299 q 560 1131 593 1159 q 520 1114 541 1114 z "},"Û":{"ha":1023,"x_min":105,"x_max":942,"o":"m 536 -27 q 233 81 336 -27 q 115 383 138 181 q 105 727 105 472 q 122 967 105 918 q 182 1016 138 1016 q 245 901 245 1016 l 245 503 q 532 92 245 92 q 803 784 803 92 l 803 850 q 802 884 803 865 q 802 905 802 901 q 817 979 802 947 q 873 1019 836 1019 q 941 926 941 1019 q 941 892 941 917 q 942 842 942 860 l 942 758 q 536 -27 942 -27 m 555 1455 q 644 1410 592 1455 q 718 1334 660 1396 l 826 1219 q 844 1177 844 1200 q 825 1134 844 1152 q 781 1116 806 1116 q 739 1135 757 1116 q 569 1312 656 1225 q 348 1100 397 1100 q 305 1119 323 1100 q 286 1162 286 1138 q 307 1206 286 1187 q 513 1434 349 1248 q 555 1455 532 1455 z "},"Ü":{"ha":1023,"x_min":105,"x_max":942,"o":"m 536 -27 q 233 81 336 -27 q 115 383 138 181 q 105 727 105 472 q 122 967 105 918 q 182 1016 138 1016 q 245 901 245 1016 l 245 503 q 532 92 245 92 q 803 784 803 92 l 803 850 q 802 884 803 865 q 802 905 802 901 q 817 979 802 947 q 873 1019 836 1019 q 941 926 941 1019 q 941 892 941 917 q 942 842 942 860 l 942 758 q 536 -27 942 -27 m 387 1238 q 476 1166 476 1238 q 446 1126 476 1145 q 395 1110 418 1110 q 312 1180 312 1110 q 338 1220 312 1202 q 387 1238 365 1238 m 753 1243 q 799 1222 775 1243 q 823 1180 823 1202 q 726 1118 823 1118 q 677 1132 699 1118 q 652 1175 652 1148 q 683 1235 652 1221 q 753 1243 701 1243 z "},"Ý":{"ha":759,"x_min":51,"x_max":719,"o":"m 649 845 q 540 854 608 845 l 431 868 q 415 491 415 671 q 418 374 415 452 q 420 256 420 296 q 416 140 420 193 l 629 143 q 677 123 658 144 q 696 74 696 103 q 677 24 696 45 q 629 4 659 4 q 515 2 591 4 q 401 1 439 1 q 267 -12 357 1 q 133 -24 178 -24 q 85 -4 104 -24 q 66 45 66 16 q 85 94 66 74 q 133 115 104 115 q 279 129 177 115 q 286 254 286 184 q 281 368 286 292 q 277 482 277 444 q 296 873 277 639 l 119 869 q 70 888 90 868 q 51 939 51 909 q 115 1008 51 1002 q 320 1013 170 1013 q 659 984 456 1013 q 719 911 719 975 q 699 863 719 882 q 649 845 679 845 m 461 1172 q 438 1127 461 1147 q 390 1107 415 1107 q 332 1140 368 1107 q 296 1194 296 1172 q 319 1238 296 1218 q 368 1257 342 1257 q 425 1225 389 1257 q 461 1172 461 1192 z "},"Þ":{"ha":963,"x_min":90,"x_max":896,"o":"m 896 302 q 788 75 896 167 q 549 -29 694 -4 q 587 -133 587 -80 q 422 -302 587 -302 q 313 -280 363 -302 q 248 -202 248 -252 q 294 -165 248 -165 q 351 -182 315 -165 q 415 -199 387 -199 q 481 -136 481 -198 q 384 -35 481 -75 q 189 24 269 -22 q 91 169 93 81 q 110 215 90 197 q 159 233 130 233 q 218 195 193 233 q 279 125 252 144 q 447 87 336 87 q 642 133 552 87 q 758 295 758 191 q 648 437 758 387 q 459 476 566 473 q 275 523 351 479 q 179 680 179 578 q 316 901 179 802 q 587 995 446 995 q 735 972 652 995 q 845 898 845 943 q 784 838 845 838 q 687 853 754 838 q 584 867 619 867 q 418 823 492 865 q 328 688 328 772 q 429 608 328 631 q 573 592 465 600 q 797 511 709 583 q 896 302 896 432 z "},"ß":{"ha":616,"x_min":31,"x_max":600,"o":"m 340 935 q 182 676 204 935 q 170 370 170 536 q 172 246 170 329 q 174 121 174 163 q 169 -15 174 18 q 98 -106 154 -106 q 51 -89 71 -106 q 31 -45 31 -71 q 33 -31 31 -41 q 46 148 46 61 q 50 256 46 184 q 53 363 53 328 q 52 443 53 390 l 52 521 q 91 871 52 756 q 343 1065 157 1065 q 515 980 454 1065 q 570 789 570 904 q 431 553 570 691 q 600 186 600 437 q 370 -50 600 -50 q 261 -19 309 -50 q 207 75 207 16 q 251 127 207 127 q 305 102 269 127 q 366 77 341 77 q 448 100 422 77 q 473 178 473 122 q 420 386 473 309 q 321 478 393 425 q 269 551 269 517 q 311 621 269 581 l 391 696 q 433 793 433 745 q 340 935 433 935 z "},"à":{"ha":711,"x_min":45,"x_max":697,"o":"m 634 -45 q 585 -12 619 -45 q 542 35 555 15 q 345 -37 410 -37 q 109 58 182 -37 q 45 311 45 142 q 156 590 45 473 q 427 708 267 708 q 559 677 486 708 q 652 586 652 640 q 638 553 652 568 q 623 317 625 502 q 635 184 623 235 q 677 65 642 153 q 693 29 684 51 l 697 18 q 679 -27 697 -9 q 634 -45 661 -45 m 493 427 q 508 563 493 486 q 436 588 459 588 q 252 499 328 588 q 178 304 178 414 q 336 82 178 82 q 446 106 401 82 q 515 157 471 119 q 493 427 493 337 m 507 854 q 488 812 507 830 q 444 794 469 794 q 395 823 414 794 l 328 924 q 243 1010 297 969 q 217 1059 217 1031 q 235 1102 217 1083 q 277 1122 253 1122 q 414 1011 321 1122 q 507 854 507 900 z "},"á":{"ha":711,"x_min":45,"x_max":697,"o":"m 634 -45 q 585 -12 619 -45 q 542 35 555 15 q 345 -37 410 -37 q 109 58 182 -37 q 45 311 45 142 q 156 590 45 473 q 427 708 267 708 q 559 677 486 708 q 652 586 652 640 q 638 553 652 568 q 623 317 625 502 q 635 184 623 235 q 677 65 642 153 q 693 29 684 51 l 697 18 q 679 -27 697 -9 q 634 -45 661 -45 m 493 427 q 508 563 493 486 q 436 588 459 588 q 252 499 328 588 q 178 304 178 414 q 336 82 178 82 q 446 106 401 82 q 515 157 471 119 q 493 427 493 337 m 395 805 q 352 824 371 805 q 334 867 334 843 q 355 911 334 890 q 444 1019 382 939 q 543 1116 487 1077 q 579 1129 562 1129 q 622 1110 604 1129 q 640 1066 640 1090 q 614 1019 640 1039 q 524 921 578 989 q 435 822 468 850 q 395 805 416 805 z "},"â":{"ha":711,"x_min":45,"x_max":697,"o":"m 634 -45 q 585 -12 619 -45 q 542 35 555 15 q 345 -37 410 -37 q 109 58 182 -37 q 45 311 45 142 q 156 590 45 473 q 427 708 267 708 q 559 677 486 708 q 652 586 652 640 q 638 553 652 568 q 623 317 625 502 q 635 184 623 235 q 677 65 642 153 q 693 29 684 51 l 697 18 q 679 -27 697 -9 q 634 -45 661 -45 m 493 427 q 508 563 493 486 q 436 588 459 588 q 252 499 328 588 q 178 304 178 414 q 336 82 178 82 q 446 106 401 82 q 515 157 471 119 q 493 427 493 337 m 379 1152 q 469 1106 416 1152 q 543 1030 484 1093 l 650 915 q 668 873 668 896 q 649 830 668 848 q 606 812 631 812 q 563 831 581 812 q 393 1008 480 921 q 172 796 221 796 q 129 815 148 796 q 111 859 111 834 q 131 903 111 883 q 338 1131 174 944 q 379 1152 356 1152 z "},"ã":{"ha":711,"x_min":45,"x_max":724,"o":"m 634 -45 q 585 -12 619 -45 q 542 35 555 15 q 345 -37 410 -37 q 109 58 182 -37 q 45 311 45 142 q 156 590 45 473 q 427 708 267 708 q 559 677 486 708 q 652 586 652 640 q 638 553 652 568 q 623 317 625 502 q 635 184 623 235 q 677 65 642 153 q 693 29 684 51 l 697 18 q 679 -27 697 -9 q 634 -45 661 -45 m 493 427 q 508 563 493 486 q 436 588 459 588 q 252 499 328 588 q 178 304 178 414 q 336 82 178 82 q 446 106 401 82 q 515 157 471 119 q 493 427 493 337 m 288 1040 q 397 1001 356 1040 l 454 929 q 530 890 484 890 q 587 915 568 890 l 618 975 l 632 1015 q 673 1034 642 1034 q 724 984 724 1034 q 695 904 724 960 q 648 827 667 848 q 551 789 610 789 q 412 827 462 789 q 352 900 395 840 q 288 939 324 939 q 222 907 246 939 l 192 850 q 148 819 176 819 q 111 833 127 819 q 96 868 96 847 q 98 884 96 876 q 166 996 117 954 q 288 1040 218 1040 z "},"ä":{"ha":711,"x_min":45,"x_max":697,"o":"m 634 -45 q 585 -12 619 -45 q 542 35 555 15 q 345 -37 410 -37 q 109 58 182 -37 q 45 311 45 142 q 156 590 45 473 q 427 708 267 708 q 559 677 486 708 q 652 586 652 640 q 638 553 652 568 q 623 317 625 502 q 635 184 623 235 q 677 65 642 153 q 693 29 684 51 l 697 18 q 679 -27 697 -9 q 634 -45 661 -45 m 493 427 q 508 563 493 486 q 436 588 459 588 q 252 499 328 588 q 178 304 178 414 q 336 82 178 82 q 446 106 401 82 q 515 157 471 119 q 493 427 493 337 m 234 930 q 323 859 323 930 q 292 819 323 838 q 242 803 265 803 q 159 873 159 803 q 185 912 159 895 q 234 930 212 930 m 600 936 q 646 915 622 936 q 670 873 670 895 q 573 810 670 810 q 524 825 545 810 q 499 867 499 841 q 530 928 499 913 q 600 936 547 936 z "},"å":{"ha":711,"x_min":45,"x_max":697,"o":"m 634 -45 q 585 -12 619 -45 q 542 35 555 15 q 345 -37 410 -37 q 109 58 182 -37 q 45 311 45 142 q 156 590 45 473 q 427 708 267 708 q 559 677 486 708 q 652 586 652 640 q 638 553 652 568 q 623 317 625 502 q 635 184 623 235 q 677 65 642 153 q 693 29 684 51 l 697 18 q 679 -27 697 -9 q 634 -45 661 -45 m 493 427 q 508 563 493 486 q 436 588 459 588 q 252 499 328 588 q 178 304 178 414 q 336 82 178 82 q 446 106 401 82 q 515 157 471 119 q 493 427 493 337 m 414 904 q 499 920 473 906 q 545 1010 545 945 q 508 1072 545 1049 q 435 1091 477 1091 q 291 983 288 1091 q 337 924 292 948 q 414 904 376 903 m 189 983 q 263 1141 189 1085 q 435 1192 330 1192 q 581 1145 521 1192 q 646 1010 646 1093 q 404 804 646 808 q 257 850 319 803 q 189 983 189 901 z "},"æ":{"ha":1266,"x_min":45,"x_max":1216,"o":"m 874 587 q 654 330 708 587 l 852 420 q 1038 532 964 471 q 874 587 979 587 m 547 37 q 467 -13 517 8 q 377 -33 418 -33 q 136 66 229 -33 q 45 312 45 163 q 166 587 45 473 q 446 700 285 700 q 610 667 515 700 q 637 590 632 659 q 741 677 675 645 q 874 709 805 709 q 1054 673 984 709 q 1145 527 1145 626 q 1066 401 1145 458 q 925 328 1036 380 l 666 205 q 892 92 742 92 q 1007 110 947 92 q 1099 165 1046 121 q 1155 204 1147 204 q 1197 186 1179 204 q 1216 144 1216 168 q 1088 12 1216 66 q 892 -31 985 -31 q 663 45 735 -31 q 669 -1 666 31 q 617 -28 672 -28 q 566 -11 581 -28 q 547 37 557 -1 m 536 562 l 488 585 q 436 590 475 590 q 252 500 328 590 q 178 304 178 414 q 237 149 178 217 q 382 77 298 77 q 536 146 473 77 q 521 260 521 231 q 536 562 521 450 z "},"ç":{"ha":713,"x_min":71,"x_max":657,"o":"m 522 -133 q 358 -302 522 -302 q 249 -280 299 -302 q 184 -202 184 -252 q 230 -165 184 -165 q 287 -182 250 -165 q 351 -199 323 -199 q 416 -136 416 -198 q 314 -33 416 -72 q 137 76 202 -7 q 71 274 71 159 q 163 558 71 412 q 392 721 264 721 q 541 690 459 721 q 644 592 644 650 q 627 546 644 566 q 585 526 610 526 q 523 562 566 526 q 392 593 484 593 q 255 470 323 593 q 193 274 193 357 q 254 134 193 185 q 401 85 310 85 q 488 106 447 85 l 566 149 q 595 159 587 159 q 639 139 621 159 q 657 94 657 119 q 484 -27 657 24 q 522 -133 522 -78 z "},"è":{"ha":761,"x_min":59,"x_max":734,"o":"m 411 -31 q 161 47 256 -31 q 59 283 59 130 q 144 578 59 459 q 393 709 237 709 q 572 673 503 709 q 664 527 664 627 q 587 404 664 459 q 444 328 556 381 l 184 205 q 411 92 261 92 q 521 109 458 92 q 618 166 571 123 q 673 204 661 204 q 716 186 697 204 q 734 144 734 168 q 613 15 734 69 q 411 -31 509 -31 m 393 587 q 173 330 227 587 l 381 429 q 556 532 500 486 q 393 587 498 587 m 498 859 q 479 817 498 835 q 435 799 460 799 q 387 827 406 799 l 319 928 q 235 1015 288 974 q 208 1063 208 1036 q 226 1107 208 1088 q 269 1126 244 1126 q 405 1016 312 1126 q 498 859 498 905 z "},"é":{"ha":761,"x_min":59,"x_max":734,"o":"m 411 -31 q 161 47 256 -31 q 59 283 59 130 q 144 578 59 459 q 393 709 237 709 q 572 673 503 709 q 664 527 664 627 q 587 404 664 459 q 444 328 556 381 l 184 205 q 411 92 261 92 q 521 109 458 92 q 618 166 571 123 q 673 204 661 204 q 716 186 697 204 q 734 144 734 168 q 613 15 734 69 q 411 -31 509 -31 m 393 587 q 173 330 227 587 l 381 429 q 556 532 500 486 q 393 587 498 587 m 404 805 q 360 824 379 805 q 342 867 342 843 q 363 911 342 890 q 452 1019 391 939 q 551 1116 495 1077 q 587 1129 570 1129 q 630 1110 612 1129 q 648 1066 648 1090 q 623 1019 648 1039 q 532 921 586 989 q 444 822 476 850 q 404 805 424 805 z "},"ê":{"ha":761,"x_min":59,"x_max":734,"o":"m 411 -31 q 161 47 256 -31 q 59 283 59 130 q 144 578 59 459 q 393 709 237 709 q 572 673 503 709 q 664 527 664 627 q 587 404 664 459 q 444 328 556 381 l 184 205 q 411 92 261 92 q 521 109 458 92 q 618 166 571 123 q 673 204 661 204 q 716 186 697 204 q 734 144 734 168 q 613 15 734 69 q 411 -31 509 -31 m 393 587 q 173 330 227 587 l 381 429 q 556 532 500 486 q 393 587 498 587 m 397 1146 q 486 1101 434 1146 q 560 1025 502 1087 l 668 909 q 686 868 686 890 q 667 825 686 843 q 623 806 648 806 q 581 826 599 806 q 411 1002 498 916 q 190 791 239 791 q 147 810 165 791 q 128 853 128 829 q 149 897 128 878 q 355 1125 191 939 q 397 1146 374 1146 z "},"ë":{"ha":761,"x_min":59,"x_max":734,"o":"m 411 -31 q 161 47 256 -31 q 59 283 59 130 q 144 578 59 459 q 393 709 237 709 q 572 673 503 709 q 664 527 664 627 q 587 404 664 459 q 444 328 556 381 l 184 205 q 411 92 261 92 q 521 109 458 92 q 618 166 571 123 q 673 204 661 204 q 716 186 697 204 q 734 144 734 168 q 613 15 734 69 q 411 -31 509 -31 m 393 587 q 173 330 227 587 l 381 429 q 556 532 500 486 q 393 587 498 587 m 256 996 q 345 925 345 996 q 315 885 345 903 q 264 869 288 869 q 181 939 181 869 q 208 978 181 960 q 256 996 234 996 m 622 1002 q 668 981 644 1002 q 692 939 692 960 q 595 876 692 876 q 546 890 568 876 q 522 933 522 907 q 552 994 522 979 q 622 1002 570 1002 z "},"ì":{"ha":389,"x_min":17,"x_max":307,"o":"m 254 308 q 257 186 254 267 q 259 64 259 105 q 193 -3 259 -3 q 126 64 126 -3 q 124 186 126 105 q 121 308 121 267 q 128 467 121 361 q 135 626 135 573 q 201 694 135 694 q 268 626 268 694 q 261 467 268 573 q 254 308 254 361 m 307 859 q 288 817 307 835 q 244 799 269 799 q 195 827 214 799 l 127 928 q 43 1015 97 974 q 17 1063 17 1036 q 35 1107 17 1088 q 77 1126 53 1126 q 214 1016 121 1126 q 307 859 307 905 z "},"í":{"ha":389,"x_min":65,"x_max":372,"o":"m 254 308 q 257 186 254 267 q 259 64 259 105 q 193 -3 259 -3 q 126 64 126 -3 q 124 186 126 105 q 121 308 121 267 q 128 467 121 361 q 135 626 135 573 q 201 694 135 694 q 268 626 268 694 q 261 467 268 573 q 254 308 254 361 m 127 805 q 84 824 102 805 q 65 867 65 843 q 86 911 65 890 q 175 1019 114 939 q 275 1116 218 1077 q 311 1129 293 1129 q 353 1110 335 1129 q 372 1066 372 1090 q 346 1019 372 1039 q 256 921 309 989 q 167 822 199 850 q 127 805 147 805 z "},"î":{"ha":389,"x_min":-96,"x_max":461,"o":"m 254 308 q 257 186 254 267 q 259 64 259 105 q 193 -3 259 -3 q 126 64 126 -3 q 124 186 126 105 q 121 308 121 267 q 128 467 121 361 q 135 626 135 573 q 201 694 135 694 q 268 626 268 694 q 261 467 268 573 q 254 308 254 361 m 172 1112 q 262 1067 210 1112 q 336 991 277 1053 l 444 876 q 461 834 461 857 q 443 791 461 809 q 399 772 424 772 q 356 792 374 772 q 186 968 273 882 q -35 757 14 757 q -78 776 -59 757 q -96 819 -96 795 q -76 863 -96 844 q 131 1091 -33 905 q 172 1112 149 1112 z "},"ï":{"ha":389,"x_min":-83,"x_max":429,"o":"m 254 308 q 257 186 254 267 q 259 64 259 105 q 193 -3 259 -3 q 126 64 126 -3 q 124 186 126 105 q 121 308 121 267 q 128 467 121 361 q 135 626 135 573 q 201 694 135 694 q 268 626 268 694 q 261 467 268 573 q 254 308 254 361 m -7 930 q 81 859 81 930 q 51 819 81 838 q 1 803 24 803 q -83 873 -83 803 q -56 912 -83 895 q -7 930 -30 930 m 358 936 q 405 915 380 936 q 429 873 429 895 q 332 810 429 810 q 282 825 304 810 q 258 867 258 841 q 288 928 258 913 q 358 936 306 936 z "},"ð":{"ha":737,"x_min":39,"x_max":717,"o":"m 652 292 l 637 64 q 609 -157 626 -97 q 490 -334 574 -281 q 276 -382 412 -382 q 125 -370 186 -382 q 39 -300 39 -353 q 98 -239 39 -239 q 196 -251 128 -239 q 306 -262 264 -262 q 486 -136 437 -260 q 520 119 518 -54 q 317 -17 447 -17 q 113 71 190 -17 q 41 284 41 155 q 148 583 41 471 q 441 694 256 694 q 612 629 568 694 q 685 549 685 627 q 671 420 685 503 q 652 292 654 326 m 435 586 q 238 501 309 586 q 172 294 172 422 q 321 96 172 96 q 454 174 391 96 q 521 315 509 240 q 551 545 531 378 q 435 586 498 586 m 388 901 q 616 1010 587 901 q 665 1053 627 1053 q 703 1038 686 1053 q 717 1003 720 1023 l 715 994 q 596 839 700 886 q 388 800 511 800 q 219 864 291 800 q 144 1027 144 931 q 195 1078 144 1078 q 245 1031 237 1078 q 291 937 255 966 q 388 901 334 901 z "},"ñ":{"ha":727,"x_min":84,"x_max":728,"o":"m 614 -48 q 549 16 557 -48 l 530 164 q 520 313 520 238 q 523 377 520 334 q 525 441 525 420 q 471 588 525 588 q 311 478 384 588 q 228 290 258 397 q 222 224 227 274 q 218 158 218 183 q 222 97 218 138 q 226 36 226 56 q 159 -33 226 -33 q 93 36 93 -33 q 89 97 93 56 q 84 158 84 138 q 94 352 84 222 q 104 545 104 481 q 101 610 104 567 q 99 674 99 652 q 118 722 99 703 q 166 741 137 741 q 235 652 233 741 l 237 573 q 471 725 351 725 q 622 629 578 725 q 654 441 654 559 l 653 309 q 667 163 652 260 q 682 19 682 67 q 663 -30 682 -11 q 614 -48 644 -48 m 293 1054 q 402 1015 361 1054 l 458 943 q 534 903 489 903 q 592 928 573 903 l 623 988 l 637 1028 q 677 1048 646 1048 q 728 998 728 1048 q 700 917 728 973 q 652 841 672 861 q 555 802 614 802 q 416 841 467 802 q 357 913 399 854 q 293 952 329 952 q 227 921 251 952 l 197 863 q 153 833 181 833 q 116 847 132 833 q 100 882 100 861 q 102 897 100 890 q 171 1009 121 967 q 293 1054 223 1054 z "},"ò":{"ha":730,"x_min":60,"x_max":661,"o":"m 353 -40 q 138 64 220 -40 q 60 296 64 159 q 138 566 56 448 q 402 703 233 703 q 608 579 538 703 q 661 338 663 479 q 583 81 659 187 q 353 -40 496 -40 m 393 566 q 238 471 293 566 q 194 296 194 395 q 248 142 194 197 q 353 97 292 97 q 485 161 434 97 q 535 302 532 218 q 393 566 545 565 m 548 859 q 529 817 548 835 q 485 799 509 799 q 436 827 455 799 l 368 928 q 284 1015 338 974 q 258 1063 258 1036 q 276 1107 258 1088 q 318 1126 294 1126 q 455 1016 361 1126 q 548 859 548 905 z "},"ó":{"ha":730,"x_min":60,"x_max":661,"o":"m 353 -40 q 138 64 220 -40 q 60 296 64 159 q 138 566 56 448 q 402 703 233 703 q 608 579 538 703 q 661 338 663 479 q 583 81 659 187 q 353 -40 496 -40 m 393 566 q 238 471 293 566 q 194 296 194 395 q 248 142 194 197 q 353 97 292 97 q 485 161 434 97 q 535 302 532 218 q 393 566 545 565 m 395 805 q 352 824 370 805 q 333 867 333 843 q 354 911 333 890 q 443 1019 382 939 q 543 1116 486 1077 q 578 1129 561 1129 q 621 1110 603 1129 q 640 1066 640 1090 q 614 1019 640 1039 q 524 921 577 989 q 435 822 467 850 q 395 805 415 805 z "},"ô":{"ha":730,"x_min":60,"x_max":674,"o":"m 353 -40 q 138 64 220 -40 q 60 296 64 159 q 138 566 56 448 q 402 703 233 703 q 608 579 538 703 q 661 338 663 479 q 583 81 659 187 q 353 -40 496 -40 m 393 566 q 238 471 293 566 q 194 296 194 395 q 248 142 194 197 q 353 97 292 97 q 485 161 434 97 q 535 302 532 218 q 393 566 545 565 m 385 1146 q 475 1101 422 1146 q 549 1025 490 1087 l 656 909 q 674 868 674 890 q 655 825 674 843 q 612 806 637 806 q 569 826 587 806 q 399 1002 486 916 q 178 791 227 791 q 135 810 154 791 q 117 853 117 829 q 137 897 117 878 q 344 1125 180 939 q 385 1146 362 1146 z "},"õ":{"ha":730,"x_min":60,"x_max":741,"o":"m 353 -40 q 138 64 220 -40 q 60 296 64 159 q 138 566 56 448 q 402 703 233 703 q 608 579 538 703 q 661 338 663 479 q 583 81 659 187 q 353 -40 496 -40 m 393 566 q 238 471 293 566 q 194 296 194 395 q 248 142 194 197 q 353 97 292 97 q 485 161 434 97 q 535 302 532 218 q 393 566 545 565 m 306 1054 q 415 1015 374 1054 l 471 943 q 547 903 502 903 q 605 928 586 903 l 636 988 l 650 1028 q 690 1048 659 1048 q 741 998 741 1048 q 713 917 741 973 q 665 841 685 861 q 568 802 627 802 q 429 841 479 802 q 370 913 412 854 q 306 952 342 952 q 239 921 264 952 l 210 863 q 165 833 194 833 q 129 847 144 833 q 113 882 113 861 q 115 897 113 890 q 184 1009 134 967 q 306 1054 236 1054 z "},"ö":{"ha":730,"x_min":60,"x_max":691,"o":"m 353 -40 q 138 64 220 -40 q 60 296 64 159 q 138 566 56 448 q 402 703 233 703 q 608 579 538 703 q 661 338 663 479 q 583 81 659 187 q 353 -40 496 -40 m 393 566 q 238 471 293 566 q 194 296 194 395 q 248 142 194 197 q 353 97 292 97 q 485 161 434 97 q 535 302 532 218 q 393 566 545 565 m 255 930 q 344 859 344 930 q 313 819 344 838 q 263 803 286 803 q 180 873 180 803 q 206 912 180 895 q 255 930 233 930 m 621 936 q 667 915 643 936 q 691 873 691 895 q 594 810 691 810 q 545 825 566 810 q 520 867 520 841 q 551 928 520 913 q 621 936 568 936 z "},"÷":{"ha":667,"x_min":33,"x_max":619,"o":"m 425 496 q 467 498 439 496 q 508 500 494 500 q 619 436 619 500 q 603 392 619 411 q 561 374 586 374 q 536 376 553 374 q 511 379 519 379 q 325 375 449 379 q 138 370 200 370 q 33 433 33 370 q 67 486 33 475 q 138 491 82 491 q 257 495 178 491 q 376 500 336 500 q 400 498 384 500 q 425 496 417 496 m 307 773 q 368 713 368 773 q 306 652 368 652 q 245 713 245 652 q 307 773 245 773 m 258 187 q 275 230 258 212 q 318 248 293 248 q 361 230 343 248 q 378 187 378 212 q 361 144 378 162 q 318 127 343 127 q 275 144 293 127 q 258 187 258 162 z "},"ø":{"ha":730,"x_min":36,"x_max":699,"o":"m 520 449 l 245 140 q 349 97 290 97 q 481 161 430 97 q 531 302 528 218 q 520 449 534 391 m 204 206 q 484 526 290 302 q 389 566 449 565 q 235 471 290 566 q 190 296 190 393 q 204 206 190 245 m 85 -35 q 53 -24 68 -35 q 37 3 36 -13 q 94 89 39 38 q 108 102 102 97 q 56 296 60 185 q 134 566 52 448 q 398 703 229 703 q 570 627 504 703 l 581 639 q 658 709 644 709 q 686 696 674 709 q 699 667 699 684 q 640 584 699 654 q 615 556 634 577 q 657 338 659 462 q 578 81 655 187 q 349 -40 492 -40 q 157 39 238 -40 q 142 22 144 24 q 85 -35 100 -35 z "},"ù":{"ha":722,"x_min":74,"x_max":660,"o":"m 648 396 q 648 250 648 390 l 649 103 q 651 58 649 88 q 654 12 654 27 q 634 -36 654 -17 q 586 -54 615 -54 q 519 10 534 -54 q 324 -34 435 -34 q 178 5 235 -34 q 100 132 113 48 q 74 452 74 312 q 94 664 74 543 q 159 723 104 723 q 208 704 188 723 q 227 656 227 686 q 217 555 227 623 q 208 452 208 487 q 237 129 208 227 q 324 104 283 104 q 516 133 415 104 l 514 402 q 527 656 513 537 q 593 719 534 719 q 642 700 622 719 q 660 652 661 682 l 648 396 m 519 865 q 500 822 519 840 q 456 804 481 804 q 408 833 427 804 l 340 934 q 256 1021 309 979 q 229 1069 229 1041 q 247 1113 229 1093 q 290 1132 265 1132 q 426 1021 333 1132 q 519 865 519 910 z "},"ú":{"ha":722,"x_min":74,"x_max":660,"o":"m 648 396 q 648 250 648 390 l 649 103 q 651 58 649 88 q 654 12 654 27 q 634 -36 654 -17 q 586 -54 615 -54 q 519 10 534 -54 q 324 -34 435 -34 q 178 5 235 -34 q 100 132 113 48 q 74 452 74 312 q 94 664 74 543 q 159 723 104 723 q 208 704 188 723 q 227 656 227 686 q 217 555 227 623 q 208 452 208 487 q 237 129 208 227 q 324 104 283 104 q 516 133 415 104 l 514 402 q 527 656 513 537 q 593 719 534 719 q 642 700 622 719 q 660 652 661 682 l 648 396 m 387 805 q 343 824 362 805 q 325 867 325 843 q 346 911 325 890 q 435 1019 374 939 q 534 1116 478 1077 q 570 1129 553 1129 q 613 1110 595 1129 q 631 1066 631 1090 q 606 1019 631 1039 q 515 921 569 989 q 427 822 459 850 q 387 805 407 805 z "},"û":{"ha":722,"x_min":74,"x_max":660,"o":"m 648 396 q 648 250 648 390 l 649 103 q 651 58 649 88 q 654 12 654 27 q 634 -36 654 -17 q 586 -54 615 -54 q 519 10 534 -54 q 324 -34 435 -34 q 178 5 235 -34 q 100 132 113 48 q 74 452 74 312 q 94 664 74 543 q 159 723 104 723 q 208 704 188 723 q 227 656 227 686 q 217 555 227 623 q 208 452 208 487 q 237 129 208 227 q 324 104 283 104 q 516 133 415 104 l 514 402 q 527 656 513 537 q 593 719 534 719 q 642 700 622 719 q 660 652 661 682 l 648 396 m 353 1146 q 442 1101 390 1146 q 516 1025 458 1087 l 624 909 q 642 868 642 890 q 623 825 642 843 q 579 806 604 806 q 536 826 555 806 q 367 1002 454 916 q 146 791 195 791 q 103 810 121 791 q 84 853 84 829 q 104 897 84 878 q 311 1125 147 939 q 353 1146 330 1146 z "},"ü":{"ha":722,"x_min":74,"x_max":661,"o":"m 648 396 q 648 250 648 390 l 649 103 q 651 58 649 88 q 654 12 654 27 q 634 -36 654 -17 q 586 -54 615 -54 q 519 10 534 -54 q 324 -34 435 -34 q 178 5 235 -34 q 100 132 113 48 q 74 452 74 312 q 94 664 74 543 q 159 723 104 723 q 208 704 188 723 q 227 656 227 686 q 217 555 227 623 q 208 452 208 487 q 237 129 208 227 q 324 104 283 104 q 516 133 415 104 l 514 402 q 527 656 513 537 q 593 719 534 719 q 642 700 622 719 q 660 652 661 682 l 648 396 m 224 993 q 313 922 313 993 q 283 882 313 900 q 233 865 256 865 q 149 935 149 865 q 176 975 149 957 q 224 993 202 993 m 590 998 q 636 978 612 998 q 661 935 661 957 q 564 873 661 873 q 514 887 536 873 q 490 930 490 903 q 520 990 490 976 q 590 998 538 998 z "},"ý":{"ha":389,"x_min":121,"x_max":268,"o":"m 254 308 q 257 186 254 267 q 259 64 259 105 q 193 -3 259 -3 q 126 64 126 -3 q 124 186 126 105 q 121 308 121 267 q 128 467 121 361 q 135 626 135 573 q 201 694 135 694 q 268 626 268 694 q 261 467 268 573 q 254 308 254 361 z "},"þ":{"ha":676,"x_min":28,"x_max":618,"o":"m 618 591 q 552 522 618 522 q 500 547 515 522 q 482 621 490 564 q 326 573 397 599 q 216 466 216 534 q 256 455 235 458 q 488 378 412 427 q 598 172 598 307 q 395 -33 598 5 q 431 -133 431 -82 q 267 -302 431 -302 q 157 -280 208 -302 q 92 -202 92 -252 q 138 -165 92 -165 q 195 -182 159 -165 q 259 -199 231 -199 q 325 -136 325 -198 q 227 -35 325 -74 q 28 95 28 -4 q 49 142 28 122 q 98 163 71 163 q 152 130 119 163 q 225 104 168 115 q 302 96 271 96 q 402 110 359 96 q 465 172 465 130 q 336 297 465 264 q 266 313 330 298 q 138 359 176 332 q 83 473 83 397 q 216 675 83 615 q 346 719 258 694 q 475 762 433 744 q 535 774 502 774 q 602 706 602 774 q 610 648 602 686 q 618 591 618 610 z "},"ÿ":{"ha":599,"x_min":-3,"x_max":694,"o":"m 686 605 l 451 98 q 318 -212 347 -127 l 273 -344 q 212 -393 257 -393 q 163 -374 184 -393 q 142 -328 142 -356 q 289 65 142 -260 l 16 582 q -3 634 -3 612 q 18 683 -3 661 q 66 704 39 704 q 115 680 98 704 q 362 224 230 519 l 463 458 q 567 667 508 564 q 624 705 589 705 q 673 686 652 705 q 694 639 694 667 q 686 605 694 624 m 165 930 q 254 859 254 930 q 223 819 254 838 q 173 803 196 803 q 90 873 90 803 q 116 912 90 895 q 165 930 142 930 m 530 936 q 577 915 553 936 q 601 873 601 895 q 504 810 601 810 q 454 825 476 810 q 430 867 430 841 q 460 928 430 913 q 530 936 478 936 z "},"Ā":{"ha":1016,"x_min":89,"x_max":917,"o":"m 848 -20 q 739 140 785 -20 q 695 353 722 201 q 514 319 644 347 l 334 282 q 218 22 290 169 q 159 -16 199 -16 q 110 4 130 -16 q 89 53 89 24 q 191 300 89 85 q 180 341 180 318 q 246 412 180 396 q 441 745 323 556 q 642 1002 602 1002 q 715 928 701 1002 l 758 700 l 859 229 l 897 121 q 917 48 917 67 q 897 0 917 20 q 848 -20 876 -20 m 608 755 l 414 442 q 663 493 496 463 l 608 755 m 511 1217 q 591 1214 538 1217 q 671 1211 644 1211 q 754 1212 699 1211 q 836 1213 808 1213 q 889 1162 889 1213 q 845 1113 889 1122 l 769 1109 l 664 1109 q 566 1112 631 1109 q 468 1114 500 1114 q 419 1165 419 1114 q 450 1211 419 1200 q 511 1217 467 1217 z "},"ā":{"ha":711,"x_min":35,"x_max":687,"o":"m 624 -45 q 574 -12 609 -45 q 532 35 545 15 q 334 -37 400 -37 q 99 58 172 -37 q 35 311 35 142 q 145 590 35 473 q 417 708 256 708 q 549 677 475 708 q 642 586 642 640 q 628 553 642 568 q 613 317 614 502 q 625 184 612 235 q 667 65 632 153 q 683 29 673 51 l 687 18 q 669 -27 687 -9 q 624 -45 650 -45 m 483 427 q 498 563 483 486 q 426 588 449 588 q 241 499 317 588 q 168 304 168 414 q 326 82 168 82 q 436 106 391 82 q 505 157 460 119 q 483 427 483 337 m 267 911 q 347 908 294 911 q 427 905 400 905 q 510 907 455 905 q 592 908 564 908 q 645 857 645 908 q 601 808 645 817 l 525 804 l 420 804 q 322 806 387 804 q 224 808 256 808 q 175 860 175 808 q 206 905 175 895 q 267 911 223 911 z "},"Ă":{"ha":1016,"x_min":89,"x_max":920,"o":"m 848 -20 q 739 140 785 -20 q 695 353 722 201 q 514 319 644 347 l 334 282 q 218 22 290 169 q 159 -16 199 -16 q 110 4 130 -16 q 89 53 89 24 q 191 300 89 85 q 180 341 180 318 q 246 412 180 396 q 441 745 323 556 q 642 1002 602 1002 q 715 928 701 1002 l 758 700 l 859 229 l 897 121 q 917 48 917 67 q 897 0 917 20 q 848 -20 876 -20 m 608 755 l 414 442 q 663 493 496 463 l 608 755 m 591 1206 q 819 1315 790 1206 q 868 1358 831 1358 q 906 1343 890 1358 q 920 1308 923 1328 l 919 1299 q 800 1144 903 1192 q 591 1105 714 1105 q 422 1169 494 1105 q 348 1332 348 1236 q 398 1383 348 1383 q 448 1336 441 1383 q 494 1242 458 1272 q 591 1206 537 1206 z "},"ă":{"ha":711,"x_min":35,"x_max":687,"o":"m 624 -45 q 574 -12 609 -45 q 532 35 545 15 q 334 -37 400 -37 q 99 58 172 -37 q 35 311 35 142 q 145 590 35 473 q 417 708 256 708 q 549 677 475 708 q 642 586 642 640 q 628 553 642 568 q 613 317 614 502 q 625 184 612 235 q 667 65 632 153 q 683 29 673 51 l 687 18 q 669 -27 687 -9 q 624 -45 650 -45 m 483 427 q 498 563 483 486 q 426 588 449 588 q 241 499 317 588 q 168 304 168 414 q 326 82 168 82 q 436 106 391 82 q 505 157 460 119 q 483 427 483 337 m 340 901 q 568 1010 539 901 q 617 1053 580 1053 q 655 1038 639 1053 q 669 1003 672 1023 l 668 994 q 549 839 652 886 q 340 800 463 800 q 172 864 243 800 q 97 1027 97 931 q 147 1078 97 1078 q 197 1031 190 1078 q 243 937 208 966 q 340 901 286 901 z "},"Ą":{"ha":1016,"x_min":89,"x_max":1065,"o":"m 1065 -153 q 987 -218 1065 -195 q 871 -233 932 -233 q 756 -175 805 -233 q 711 -52 711 -120 q 765 65 711 7 q 695 353 732 142 q 514 319 629 344 q 334 282 384 292 q 218 22 290 169 q 159 -16 199 -16 q 110 4 130 -16 q 89 53 89 24 q 191 300 89 85 q 180 341 180 318 q 246 412 180 396 q 441 745 323 556 q 642 1002 602 1002 q 715 928 699 1002 q 758 700 726 865 q 859 229 792 524 q 897 121 859 225 q 917 48 917 68 q 897 0 917 20 q 848 -20 876 -20 q 826 -16 837 -20 q 812 -52 812 -31 q 829 -103 812 -77 q 871 -132 848 -132 q 989 -107 941 -132 q 1015 -99 1004 -99 q 1051 -115 1036 -99 q 1065 -153 1065 -132 m 663 493 l 608 755 q 414 442 541 652 q 663 493 496 463 z "},"ą":{"ha":711,"x_min":35,"x_max":888,"o":"m 888 -153 q 810 -218 888 -195 q 694 -233 755 -233 q 579 -175 628 -233 q 534 -52 534 -120 q 543 21 534 -13 q 532 35 536 28 q 334 -37 401 -37 q 99 58 172 -37 q 35 311 35 142 q 145 590 35 473 q 417 708 256 708 q 549 677 475 708 q 642 586 642 640 q 628 553 642 568 q 613 317 614 501 q 625 184 612 235 q 667 65 632 153 q 683 29 671 54 q 687 18 687 21 q 635 -43 687 -34 l 635 -52 q 652 -103 633 -74 q 694 -132 671 -132 q 812 -107 764 -132 q 838 -99 827 -99 q 874 -115 859 -99 q 888 -153 888 -132 m 505 157 q 483 427 483 337 q 498 563 483 485 q 426 588 447 588 q 241 499 317 588 q 168 304 168 414 q 326 82 168 82 q 436 106 391 82 q 505 157 460 119 z "},"Ć":{"ha":837,"x_min":61,"x_max":816,"o":"m 749 761 q 684 812 705 761 q 648 865 665 856 q 578 872 635 872 q 359 722 480 872 q 197 338 197 519 q 251 189 197 253 q 392 123 308 123 q 532 159 463 123 q 653 239 571 178 q 711 267 692 267 q 760 246 740 267 q 780 196 780 224 q 754 142 780 165 q 392 -16 575 -16 q 154 92 250 -16 q 61 338 61 195 q 254 810 61 568 q 578 1011 414 1011 q 684 998 646 1011 q 746 1033 708 1033 q 809 954 795 1033 q 816 836 816 918 q 798 784 816 805 q 749 761 779 761 m 498 1110 q 455 1129 473 1110 q 436 1173 436 1148 q 457 1217 436 1196 q 546 1324 485 1244 q 646 1421 589 1382 q 682 1434 664 1434 q 724 1415 706 1434 q 743 1371 743 1396 q 717 1324 743 1344 q 627 1226 680 1295 q 538 1127 570 1155 q 498 1110 518 1110 z "},"ć":{"ha":713,"x_min":71,"x_max":657,"o":"m 401 -43 q 165 43 258 -43 q 71 274 71 132 q 163 558 71 412 q 392 721 264 721 q 541 690 459 721 q 644 592 644 650 q 627 546 644 566 q 585 526 610 526 q 523 562 566 526 q 392 593 484 593 q 255 470 323 593 q 193 274 193 357 q 254 134 193 185 q 401 85 310 85 q 488 106 447 85 l 566 149 q 595 159 587 159 q 639 139 621 159 q 657 94 657 119 q 553 -2 657 44 q 401 -43 461 -43 m 349 805 q 306 824 324 805 q 287 867 287 843 q 308 911 287 890 q 397 1019 336 939 q 496 1116 440 1077 q 532 1129 515 1129 q 575 1110 557 1129 q 593 1066 593 1090 q 568 1019 593 1039 q 477 921 531 989 q 389 822 421 850 q 349 805 369 805 z "},"Ĉ":{"ha":837,"x_min":61,"x_max":818,"o":"m 749 761 q 684 812 705 761 q 648 865 665 856 q 578 872 635 872 q 359 722 480 872 q 197 338 197 519 q 251 189 197 253 q 392 123 308 123 q 532 159 463 123 q 653 239 571 178 q 711 267 692 267 q 760 246 740 267 q 780 196 780 224 q 754 142 780 165 q 392 -16 575 -16 q 154 92 250 -16 q 61 338 61 195 q 254 810 61 568 q 578 1011 414 1011 q 684 998 646 1011 q 746 1033 708 1033 q 809 954 795 1033 q 816 836 816 918 q 798 784 816 805 q 749 761 779 761 m 529 1451 q 618 1406 566 1451 q 692 1330 634 1392 l 800 1215 q 818 1173 818 1196 q 799 1130 818 1148 q 755 1112 781 1112 q 713 1131 731 1112 q 543 1308 630 1221 q 322 1096 371 1096 q 279 1115 298 1096 q 260 1158 260 1134 q 281 1202 260 1183 q 488 1430 323 1244 q 529 1451 506 1451 z "},"ĉ":{"ha":713,"x_min":71,"x_max":689,"o":"m 401 -43 q 165 43 258 -43 q 71 274 71 132 q 163 558 71 412 q 392 721 264 721 q 541 690 459 721 q 644 592 644 650 q 627 546 644 566 q 585 526 610 526 q 523 562 566 526 q 392 593 484 593 q 255 470 323 593 q 193 274 193 357 q 254 134 193 185 q 401 85 310 85 q 488 106 447 85 l 566 149 q 595 159 587 159 q 639 139 621 159 q 657 94 657 119 q 553 -2 657 44 q 401 -43 461 -43 m 400 1078 q 490 1033 437 1078 q 564 957 505 1019 l 671 842 q 689 800 689 823 q 670 757 689 775 q 627 739 652 739 q 584 758 602 739 q 414 935 501 848 q 193 723 242 723 q 150 742 169 723 q 132 785 132 761 q 152 829 132 810 q 359 1057 195 871 q 400 1078 377 1078 z "},"Ċ":{"ha":837,"x_min":61,"x_max":816,"o":"m 749 761 q 684 812 705 761 q 648 865 665 856 q 578 872 635 872 q 359 722 480 872 q 197 338 197 519 q 251 189 197 253 q 392 123 308 123 q 532 159 463 123 q 653 239 571 178 q 711 267 692 267 q 760 246 740 267 q 780 196 780 224 q 754 142 780 165 q 392 -16 575 -16 q 154 92 250 -16 q 61 338 61 195 q 254 810 61 568 q 578 1011 414 1011 q 684 998 646 1011 q 746 1033 708 1033 q 809 954 795 1033 q 816 836 816 918 q 798 784 816 805 q 749 761 779 761 m 665 1172 q 642 1127 665 1147 q 593 1107 618 1107 q 535 1140 571 1107 q 499 1194 499 1172 q 523 1238 499 1218 q 571 1257 546 1257 q 628 1225 592 1257 q 665 1172 665 1192 z "},"ċ":{"ha":713,"x_min":71,"x_max":657,"o":"m 401 -43 q 165 43 258 -43 q 71 274 71 132 q 163 558 71 412 q 392 721 264 721 q 541 690 459 721 q 644 592 644 650 q 627 546 644 566 q 585 526 610 526 q 523 562 566 526 q 392 593 484 593 q 255 470 323 593 q 193 274 193 357 q 254 134 193 185 q 401 85 310 85 q 488 106 447 85 l 566 149 q 595 159 587 159 q 639 139 621 159 q 657 94 657 119 q 553 -2 657 44 q 401 -43 461 -43 m 495 867 q 472 822 495 842 q 424 802 449 802 q 366 834 401 802 q 330 888 330 867 q 353 932 330 913 q 401 952 376 952 q 459 920 422 952 q 495 867 495 887 z "},"Č":{"ha":837,"x_min":61,"x_max":816,"o":"m 749 761 q 684 812 705 761 q 648 865 665 856 q 578 872 635 872 q 359 722 480 872 q 197 338 197 519 q 251 189 197 253 q 392 123 308 123 q 532 159 463 123 q 653 239 571 178 q 711 267 692 267 q 760 246 740 267 q 780 196 780 224 q 754 142 780 165 q 392 -16 575 -16 q 154 92 250 -16 q 61 338 61 195 q 254 810 61 568 q 578 1011 414 1011 q 684 998 646 1011 q 746 1033 708 1033 q 809 954 795 1033 q 816 836 816 918 q 798 784 816 805 q 749 761 779 761 m 555 1227 l 705 1360 q 738 1374 720 1374 q 774 1358 758 1374 q 789 1322 789 1342 q 772 1284 789 1301 q 549 1103 579 1103 q 505 1128 525 1103 l 471 1170 l 391 1261 q 335 1358 335 1325 q 351 1394 335 1379 q 389 1409 368 1409 q 431 1381 415 1409 q 555 1227 454 1344 z "},"č":{"ha":837,"x_min":71,"x_max":657,"o":"m 401 -43 q 165 43 258 -43 q 71 274 71 132 q 163 558 71 412 q 392 721 264 721 q 541 690 459 721 q 644 592 644 650 q 627 546 644 566 q 585 526 610 526 q 523 562 566 526 q 392 593 484 593 q 255 470 323 593 q 193 274 193 357 q 254 134 193 185 q 401 85 310 85 q 488 106 447 85 l 566 149 q 595 159 587 159 q 639 139 621 159 q 657 94 657 119 q 553 -2 657 44 q 401 -43 461 -43 m 413 922 l 562 1055 q 595 1069 577 1069 q 631 1053 616 1069 q 647 1017 647 1037 q 629 979 647 996 q 407 798 437 798 q 362 823 382 798 l 328 865 l 249 956 q 193 1053 193 1020 q 209 1089 193 1074 q 246 1103 225 1103 q 289 1076 273 1103 q 413 922 311 1039 z "},"Ď":{"ha":1002,"x_min":124,"x_max":933,"o":"m 428 -67 q 315 -52 379 -67 q 199 -4 237 -33 l 193 -4 q 144 16 163 -4 q 124 66 124 37 q 131 279 124 137 q 137 492 137 421 q 134 729 137 572 q 131 966 131 887 q 159 1025 131 995 q 216 1055 188 1055 q 325 1010 232 1055 q 446 954 427 960 q 774 751 638 888 q 933 398 933 591 q 879 176 933 282 q 693 -16 810 42 q 428 -67 589 -67 m 587 722 q 268 878 517 768 l 273 488 l 262 118 q 277 109 266 117 q 427 69 336 69 q 621 100 551 69 q 758 237 707 138 q 796 395 796 313 q 587 722 796 586 m 454 1227 l 603 1360 q 636 1374 618 1374 q 672 1358 656 1374 q 688 1322 688 1342 q 670 1284 688 1301 q 448 1103 477 1103 q 403 1128 423 1103 l 369 1170 l 290 1261 q 233 1358 233 1325 q 250 1394 233 1379 q 287 1409 266 1409 q 330 1381 313 1409 q 454 1227 352 1344 z "},"ď":{"ha":1152,"x_min":70,"x_max":1022,"o":"m 719 599 q 711 399 711 501 q 732 58 711 176 q 733 43 733 51 q 715 -2 733 16 q 670 -20 696 -20 q 608 41 628 -20 q 397 -31 510 -31 q 160 66 252 -31 q 70 308 70 162 q 156 587 70 477 q 415 707 250 707 q 536 683 494 707 l 600 636 q 623 1021 610 928 q 684 1081 631 1081 q 746 1015 746 1081 q 719 599 746 923 m 418 581 q 190 311 190 581 q 251 161 190 224 q 397 97 311 97 q 494 118 454 97 q 569 174 517 131 q 589 195 578 182 l 587 313 l 589 471 q 418 581 537 581 m 1022 977 q 987 836 1022 911 q 894 748 947 748 q 846 798 846 748 q 861 840 846 817 q 905 915 878 861 q 846 1003 846 949 q 870 1064 846 1040 q 932 1087 895 1087 q 1022 977 1022 1087 z "},"Đ":{"ha":1002,"x_min":-30,"x_max":933,"o":"m 882 410 q 717 88 842 213 q 387 -47 581 -47 q 54 326 54 -47 q 136 688 54 503 q 350 989 218 873 q 534 1065 437 1065 q 696 1025 595 1065 q 820 917 820 975 q 800 867 820 888 q 751 846 779 846 q 709 863 736 846 q 534 926 606 926 q 427 873 483 926 q 347 777 401 848 q 191 326 191 568 q 227 153 191 203 q 387 92 270 92 q 613 182 522 92 q 730 401 696 264 q 408 329 542 392 q 377 321 392 321 q 329 343 349 321 q 309 393 309 364 q 345 453 309 431 q 850 543 491 543 q 900 523 880 543 q 919 473 919 503 q 882 410 919 429 m 517 1206 q 745 1315 715 1206 q 793 1358 756 1358 q 832 1343 815 1358 q 846 1308 848 1328 l 844 1299 q 725 1144 829 1192 q 517 1105 640 1105 q 348 1169 420 1105 q 273 1332 273 1236 q 323 1383 273 1383 q 374 1336 366 1383 q 420 1242 384 1272 q 517 1206 463 1206 z "},"đ":{"ha":837,"x_min":70,"x_max":828,"o":"m 828 857 q 736 804 828 804 q 711 399 711 465 q 732 58 711 182 q 733 43 733 50 q 715 -2 733 16 q 670 -20 696 -20 q 608 41 628 -20 q 397 -31 511 -31 q 160 66 252 -31 q 70 308 70 162 q 156 587 70 477 q 415 707 250 707 q 522 690 490 707 l 600 636 q 607 804 604 730 l 407 804 q 372 821 386 804 q 358 860 358 838 q 389 905 358 895 q 450 911 406 911 q 531 908 477 911 q 612 905 585 905 q 621 1013 616 956 q 684 1081 635 1081 q 746 1015 746 1081 q 743 908 746 968 l 775 908 q 828 857 828 908 m 589 195 q 588 280 588 212 q 589 471 588 349 q 418 581 537 581 q 190 311 190 581 q 251 161 190 224 q 397 97 311 97 q 589 195 513 97 z "},"Ē":{"ha":867,"x_min":95,"x_max":823,"o":"m 756 913 q 735 916 747 913 q 514 949 621 949 q 251 907 400 949 q 257 837 257 863 q 245 578 257 743 l 543 606 q 703 620 684 620 q 754 601 734 620 q 774 550 774 581 q 711 481 774 486 l 237 438 q 231 267 231 330 q 252 90 231 116 q 359 71 268 71 q 486 74 401 71 q 612 76 570 76 q 652 80 626 76 q 692 85 678 85 q 764 14 764 85 q 706 -54 764 -43 q 430 -67 642 -67 q 160 -12 220 -67 q 95 267 95 49 q 102 473 95 341 q 95 506 95 488 q 108 547 95 529 q 121 837 121 743 q 115 910 121 861 q 108 984 108 960 q 176 1065 108 1065 q 224 1045 204 1065 q 514 1088 387 1088 q 777 1049 679 1088 q 823 984 823 1031 q 804 934 823 956 q 756 913 785 913 m 382 1271 q 462 1268 409 1271 q 543 1265 515 1265 q 625 1266 570 1265 q 707 1267 680 1267 q 760 1217 760 1267 q 716 1167 760 1176 l 640 1164 l 535 1164 q 437 1166 503 1164 q 339 1168 372 1168 q 290 1219 290 1168 q 321 1265 290 1254 q 382 1271 338 1271 z "},"ē":{"ha":761,"x_min":59,"x_max":734,"o":"m 411 -31 q 161 47 256 -31 q 59 283 59 130 q 144 578 59 459 q 393 709 237 709 q 572 673 503 709 q 664 527 664 627 q 587 404 664 459 q 444 328 556 381 l 184 205 q 411 92 261 92 q 521 109 458 92 q 618 166 571 123 q 673 204 661 204 q 716 186 697 204 q 734 144 734 168 q 613 15 734 69 q 411 -31 509 -31 m 393 587 q 173 330 227 587 l 381 429 q 556 532 500 486 q 393 587 498 587 m 267 911 q 347 908 294 911 q 427 905 400 905 q 510 907 455 905 q 592 908 564 908 q 645 857 645 908 q 601 808 645 817 l 525 804 l 420 804 q 322 806 387 804 q 224 808 256 808 q 175 860 175 808 q 206 905 175 895 q 267 911 223 911 z "},"Ĕ":{"ha":867,"x_min":95,"x_max":823,"o":"m 756 913 q 735 916 747 913 q 514 949 621 949 q 251 907 400 949 q 257 837 257 863 q 245 578 257 743 l 543 606 q 703 620 684 620 q 754 601 734 620 q 774 550 774 581 q 711 481 774 486 l 237 438 q 231 267 231 330 q 252 90 231 116 q 359 71 268 71 q 486 74 401 71 q 612 76 570 76 q 652 80 626 76 q 692 85 678 85 q 764 14 764 85 q 706 -54 764 -43 q 430 -67 642 -67 q 160 -12 220 -67 q 95 267 95 49 q 102 473 95 341 q 95 506 95 488 q 108 547 95 529 q 121 837 121 743 q 115 910 121 861 q 108 984 108 960 q 176 1065 108 1065 q 224 1045 204 1065 q 514 1088 387 1088 q 777 1049 679 1088 q 823 984 823 1031 q 804 934 823 956 q 756 913 785 913 m 483 1240 q 711 1349 682 1240 q 760 1392 722 1392 q 798 1377 781 1392 q 812 1342 814 1362 l 810 1333 q 691 1178 795 1225 q 483 1139 606 1139 q 314 1203 386 1139 q 239 1366 239 1270 q 290 1417 239 1417 q 340 1370 332 1417 q 386 1276 350 1305 q 483 1240 429 1240 z "},"ĕ":{"ha":761,"x_min":59,"x_max":734,"o":"m 411 -31 q 161 47 256 -31 q 59 283 59 130 q 144 578 59 459 q 393 709 237 709 q 572 673 503 709 q 664 527 664 627 q 587 404 664 459 q 444 328 556 381 l 184 205 q 411 92 261 92 q 521 109 458 92 q 618 166 571 123 q 673 204 661 204 q 716 186 697 204 q 734 144 734 168 q 613 15 734 69 q 411 -31 509 -31 m 393 587 q 173 330 227 587 l 381 429 q 556 532 500 486 q 393 587 498 587 m 354 901 q 582 1010 553 901 q 631 1053 593 1053 q 669 1038 652 1053 q 683 1003 686 1023 l 682 994 q 562 839 666 886 q 354 800 477 800 q 185 864 257 800 q 111 1027 111 931 q 161 1078 111 1078 q 211 1031 203 1078 q 257 937 221 966 q 354 901 300 901 z "},"Ė":{"ha":867,"x_min":95,"x_max":823,"o":"m 756 913 q 735 916 747 913 q 514 949 621 949 q 251 907 400 949 q 257 837 257 863 q 245 578 257 743 l 543 606 q 703 620 684 620 q 754 601 734 620 q 774 550 774 581 q 711 481 774 486 l 237 438 q 231 267 231 330 q 252 90 231 116 q 359 71 268 71 q 486 74 401 71 q 612 76 570 76 q 652 80 626 76 q 692 85 678 85 q 764 14 764 85 q 706 -54 764 -43 q 430 -67 642 -67 q 160 -12 220 -67 q 95 267 95 49 q 102 473 95 341 q 95 506 95 488 q 108 547 95 529 q 121 837 121 743 q 115 910 121 861 q 108 984 108 960 q 176 1065 108 1065 q 224 1045 204 1065 q 514 1088 387 1088 q 777 1049 679 1088 q 823 984 823 1031 q 804 934 823 956 q 756 913 785 913 m 617 1206 q 594 1161 617 1181 q 546 1141 571 1141 q 488 1174 524 1141 q 452 1227 452 1206 q 475 1272 452 1252 q 524 1291 498 1291 q 581 1259 545 1291 q 617 1206 617 1226 z "},"ė":{"ha":761,"x_min":59,"x_max":734,"o":"m 411 -31 q 161 47 256 -31 q 59 283 59 130 q 144 578 59 459 q 393 709 237 709 q 572 673 503 709 q 664 527 664 627 q 587 404 664 459 q 444 328 556 381 l 184 205 q 411 92 261 92 q 521 109 458 92 q 618 166 571 123 q 673 204 661 204 q 716 186 697 204 q 734 144 734 168 q 613 15 734 69 q 411 -31 509 -31 m 393 587 q 173 330 227 587 l 381 429 q 556 532 500 486 q 393 587 498 587 m 461 867 q 438 822 461 842 q 390 802 415 802 q 332 834 368 802 q 296 888 296 867 q 319 932 296 913 q 368 952 342 952 q 425 920 389 952 q 461 867 461 887 z "},"Ę":{"ha":867,"x_min":136,"x_max":863,"o":"m 863 984 q 844 934 863 956 q 797 913 825 913 q 776 916 788 913 q 555 949 662 949 q 292 907 444 949 q 298 837 298 863 q 286 578 298 743 q 583 606 341 581 q 744 620 714 620 q 795 601 775 620 q 814 550 814 581 q 752 481 814 488 q 591 467 707 477 q 277 438 426 450 q 271 267 271 341 q 293 90 271 116 q 399 71 309 71 q 526 74 441 71 q 653 76 611 76 q 693 80 667 76 q 732 85 719 85 q 804 14 804 85 q 728 -60 804 -43 q 606 -67 701 -66 q 595 -100 595 -81 q 612 -151 595 -124 q 654 -180 631 -180 q 772 -155 724 -180 q 798 -146 787 -146 q 834 -163 819 -146 q 848 -200 848 -179 q 770 -265 848 -243 q 654 -281 715 -281 q 539 -222 588 -281 q 494 -100 494 -168 q 498 -67 494 -84 l 471 -67 q 201 -11 261 -67 q 136 267 136 50 q 143 473 136 353 q 136 506 136 488 q 149 547 136 529 q 162 837 162 743 q 155 910 162 861 q 149 984 149 960 q 216 1065 149 1065 q 265 1045 245 1065 q 555 1088 427 1088 q 818 1049 720 1088 q 863 984 863 1031 z "},"ę":{"ha":761,"x_min":59,"x_max":734,"o":"m 734 144 q 650 34 734 82 q 511 -18 592 1 q 459 -79 459 -44 q 477 -130 459 -104 q 519 -159 496 -159 q 636 -134 588 -159 q 663 -126 652 -126 q 698 -142 684 -126 q 713 -180 713 -159 q 634 -245 713 -222 q 519 -260 579 -260 q 404 -202 452 -260 q 358 -79 358 -147 q 369 -30 358 -56 q 146 60 228 -18 q 59 283 59 144 q 144 578 59 459 q 393 709 237 709 q 572 673 503 709 q 664 527 664 626 q 587 404 664 459 q 444 328 556 381 l 184 205 q 411 92 260 92 q 521 109 458 92 q 618 166 571 123 q 673 204 661 204 q 716 186 697 204 q 734 144 734 168 m 556 532 q 393 587 498 587 q 173 330 227 587 q 381 429 271 376 q 556 532 503 488 z "},"Ě":{"ha":867,"x_min":95,"x_max":823,"o":"m 756 913 q 735 916 747 913 q 514 949 621 949 q 251 907 400 949 q 257 837 257 863 q 245 578 257 743 l 543 606 q 703 620 684 620 q 754 601 734 620 q 774 550 774 581 q 711 481 774 486 l 237 438 q 231 267 231 330 q 252 90 231 116 q 359 71 268 71 q 486 74 401 71 q 612 76 570 76 q 652 80 626 76 q 692 85 678 85 q 764 14 764 85 q 706 -54 764 -43 q 430 -67 642 -67 q 160 -12 220 -67 q 95 267 95 49 q 102 473 95 341 q 95 506 95 488 q 108 547 95 529 q 121 837 121 743 q 115 910 121 861 q 108 984 108 960 q 176 1065 108 1065 q 224 1045 204 1065 q 514 1088 387 1088 q 777 1049 679 1088 q 823 984 823 1031 q 804 934 823 956 q 756 913 785 913 m 508 1247 l 657 1381 q 690 1394 672 1394 q 726 1378 711 1394 q 742 1342 742 1362 q 724 1305 742 1321 q 502 1123 532 1123 q 457 1148 477 1123 l 423 1190 l 344 1281 q 288 1379 288 1345 q 304 1414 288 1400 q 341 1429 320 1429 q 384 1402 368 1429 q 508 1247 406 1364 z "},"ě":{"ha":761,"x_min":59,"x_max":734,"o":"m 411 -31 q 161 47 256 -31 q 59 283 59 130 q 144 578 59 459 q 393 709 237 709 q 572 673 503 709 q 664 527 664 627 q 587 404 664 459 q 444 328 556 381 l 184 205 q 411 92 261 92 q 521 109 458 92 q 618 166 571 123 q 673 204 661 204 q 716 186 697 204 q 734 144 734 168 q 613 15 734 69 q 411 -31 509 -31 m 393 587 q 173 330 227 587 l 381 429 q 556 532 500 486 q 393 587 498 587 m 413 922 l 562 1055 q 595 1069 577 1069 q 631 1053 616 1069 q 647 1017 647 1037 q 629 979 647 996 q 407 798 437 798 q 362 823 382 798 l 328 865 l 249 956 q 193 1053 193 1020 q 209 1089 193 1074 q 246 1103 225 1103 q 289 1076 273 1103 q 413 922 311 1039 z "},"Ĝ":{"ha":944,"x_min":54,"x_max":919,"o":"m 882 410 q 717 88 842 213 q 387 -47 581 -47 q 54 326 54 -47 q 136 688 54 503 q 350 989 218 873 q 534 1065 437 1065 q 696 1025 595 1065 q 820 917 820 975 q 800 867 820 888 q 751 846 779 846 q 709 863 736 846 q 534 926 606 926 q 427 873 483 926 q 347 777 401 848 q 191 326 191 568 q 227 153 191 203 q 387 92 270 92 q 613 182 522 92 q 730 401 696 264 q 408 329 542 392 q 377 321 392 321 q 329 343 349 321 q 309 393 309 364 q 345 453 309 431 q 850 543 491 543 q 900 523 880 543 q 919 473 919 503 q 882 410 919 429 m 556 1451 q 646 1406 593 1451 q 720 1330 661 1392 l 827 1215 q 845 1173 845 1196 q 826 1130 845 1148 q 783 1112 808 1112 q 740 1131 758 1112 q 570 1308 657 1221 q 349 1096 398 1096 q 306 1115 325 1096 q 288 1158 288 1134 q 308 1202 288 1183 q 515 1430 351 1244 q 556 1451 533 1451 z "},"ĝ":{"ha":737,"x_min":39,"x_max":703,"o":"m 652 292 l 637 64 q 609 -157 626 -97 q 490 -334 574 -281 q 276 -382 412 -382 q 125 -370 186 -382 q 39 -300 39 -353 q 98 -239 39 -239 q 196 -251 128 -239 q 306 -262 264 -262 q 486 -136 437 -260 q 520 119 518 -54 q 317 -17 447 -17 q 113 71 190 -17 q 41 284 41 155 q 148 583 41 471 q 441 694 256 694 q 612 629 568 694 q 685 549 685 627 q 671 420 685 503 q 652 292 654 326 m 435 586 q 238 501 309 586 q 172 294 172 422 q 321 96 172 96 q 454 174 391 96 q 521 315 509 240 q 551 545 531 378 q 435 586 498 586 m 414 1146 q 503 1101 451 1146 q 577 1025 519 1087 l 685 909 q 703 868 703 890 q 684 825 703 843 q 640 806 665 806 q 597 826 616 806 q 428 1002 515 916 q 207 791 256 791 q 164 810 182 791 q 145 853 145 829 q 165 897 145 878 q 372 1125 208 939 q 414 1146 391 1146 z "},"Ğ":{"ha":944,"x_min":54,"x_max":919,"o":"m 882 410 q 717 88 842 213 q 387 -47 581 -47 q 54 326 54 -47 q 136 688 54 503 q 350 989 218 873 q 534 1065 437 1065 q 696 1025 595 1065 q 820 917 820 975 q 800 867 820 888 q 751 846 779 846 q 709 863 736 846 q 534 926 606 926 q 427 873 483 926 q 347 777 401 848 q 191 326 191 568 q 227 153 191 203 q 387 92 270 92 q 613 182 522 92 q 730 401 696 264 q 408 329 542 392 q 377 321 392 321 q 329 343 349 321 q 309 393 309 364 q 345 453 309 431 q 850 543 491 543 q 900 523 880 543 q 919 473 919 503 q 882 410 919 429 m 517 1206 q 745 1315 715 1206 q 793 1358 756 1358 q 832 1343 815 1358 q 846 1308 848 1328 l 844 1299 q 725 1144 829 1192 q 517 1105 640 1105 q 348 1169 420 1105 q 273 1332 273 1236 q 323 1383 273 1383 q 374 1336 366 1383 q 420 1242 384 1272 q 517 1206 463 1206 z "},"ğ":{"ha":737,"x_min":39,"x_max":717,"o":"m 652 292 l 637 64 q 609 -157 626 -97 q 490 -334 574 -281 q 276 -382 412 -382 q 125 -370 186 -382 q 39 -300 39 -353 q 98 -239 39 -239 q 196 -251 128 -239 q 306 -262 264 -262 q 486 -136 437 -260 q 520 119 518 -54 q 317 -17 447 -17 q 113 71 190 -17 q 41 284 41 155 q 148 583 41 471 q 441 694 256 694 q 612 629 568 694 q 685 549 685 627 q 671 420 685 503 q 652 292 654 326 m 435 586 q 238 501 309 586 q 172 294 172 422 q 321 96 172 96 q 454 174 391 96 q 521 315 509 240 q 551 545 531 378 q 435 586 498 586 m 388 901 q 616 1010 587 901 q 665 1053 627 1053 q 703 1038 686 1053 q 717 1003 720 1023 l 715 994 q 596 839 700 886 q 388 800 511 800 q 219 864 291 800 q 144 1027 144 931 q 195 1078 144 1078 q 245 1031 237 1078 q 291 937 255 966 q 388 901 334 901 z "},"Ġ":{"ha":944,"x_min":54,"x_max":919,"o":"m 882 410 q 717 88 842 213 q 387 -47 581 -47 q 54 326 54 -47 q 136 688 54 503 q 350 989 218 873 q 534 1065 437 1065 q 696 1025 595 1065 q 820 917 820 975 q 800 867 820 888 q 751 846 779 846 q 709 863 736 846 q 534 926 606 926 q 427 873 483 926 q 347 777 401 848 q 191 326 191 568 q 227 153 191 203 q 387 92 270 92 q 613 182 522 92 q 730 401 696 264 q 408 329 542 392 q 377 321 392 321 q 329 343 349 321 q 309 393 309 364 q 345 453 309 431 q 850 543 491 543 q 900 523 880 543 q 919 473 919 503 q 882 410 919 429 m 658 1172 q 635 1127 658 1147 q 587 1107 612 1107 q 528 1140 564 1107 q 492 1194 492 1172 q 516 1238 492 1218 q 564 1257 539 1257 q 622 1225 585 1257 q 658 1172 658 1192 z "},"ġ":{"ha":737,"x_min":39,"x_max":685,"o":"m 652 292 l 637 64 q 609 -157 626 -97 q 490 -334 574 -281 q 276 -382 412 -382 q 125 -370 186 -382 q 39 -300 39 -353 q 98 -239 39 -239 q 196 -251 128 -239 q 306 -262 264 -262 q 486 -136 437 -260 q 520 119 518 -54 q 317 -17 447 -17 q 113 71 190 -17 q 41 284 41 155 q 148 583 41 471 q 441 694 256 694 q 612 629 568 694 q 685 549 685 627 q 671 420 685 503 q 652 292 654 326 m 435 586 q 238 501 309 586 q 172 294 172 422 q 321 96 172 96 q 454 174 391 96 q 521 315 509 240 q 551 545 531 378 q 435 586 498 586 m 549 867 q 526 822 549 842 q 478 802 503 802 q 420 834 456 802 q 384 888 384 867 q 407 932 384 913 q 456 952 431 952 q 513 920 477 952 q 549 867 549 887 z "},"Ģ":{"ha":944,"x_min":54,"x_max":919,"o":"m 919 473 q 882 410 919 429 q 739 112 846 233 q 450 -43 621 -20 q 478 -133 478 -87 q 314 -302 478 -302 q 205 -280 255 -302 q 140 -202 140 -252 q 186 -165 140 -165 q 242 -182 205 -165 q 307 -199 280 -199 q 372 -136 372 -199 q 338 -73 372 -103 q 274 -35 309 -46 q 216 -14 258 -29 q 54 326 54 69 q 136 688 54 504 q 350 989 218 871 q 534 1065 437 1065 q 703 1023 602 1065 q 820 917 820 973 q 800 867 820 888 q 751 846 779 846 q 667 886 746 846 q 534 926 588 926 q 347 777 458 926 q 191 326 191 566 q 227 153 191 202 q 387 92 270 92 q 613 183 521 92 q 730 401 696 264 q 408 329 553 392 q 377 321 391 321 q 329 343 349 321 q 309 393 309 364 q 540 518 309 479 q 850 543 684 543 q 899 523 880 543 q 919 473 919 503 z "},"ģ":{"ha":737,"x_min":39,"x_max":685,"o":"m 652 292 l 637 64 q 609 -157 626 -97 q 490 -334 574 -281 q 276 -382 412 -382 q 125 -370 186 -382 q 39 -300 39 -353 q 98 -239 39 -239 q 196 -251 128 -239 q 306 -262 264 -262 q 486 -136 437 -260 q 520 119 518 -54 q 317 -17 447 -17 q 113 71 190 -17 q 41 284 41 155 q 148 583 41 471 q 441 694 256 694 q 612 629 568 694 q 685 549 685 627 q 671 420 685 503 q 652 292 654 326 m 435 586 q 238 501 309 586 q 172 294 172 422 q 321 96 172 96 q 454 174 391 96 q 521 315 509 240 q 551 545 531 378 q 435 586 498 586 m 484 892 q 459 832 484 855 q 397 809 434 809 q 307 919 307 809 q 341 1061 307 987 q 435 1148 381 1148 q 484 1098 484 1148 q 468 1056 484 1079 q 425 981 450 1034 q 484 892 484 947 z "},"Ĥ":{"ha":1067,"x_min":103,"x_max":994,"o":"m 987 956 q 977 872 977 927 q 979 812 977 852 q 980 751 980 772 q 968 549 980 684 q 956 347 956 415 q 964 192 956 296 q 971 37 971 89 q 952 -9 971 9 q 906 -28 934 -28 q 860 -9 878 -28 q 841 37 841 9 q 833 192 841 89 q 826 347 826 296 q 829 448 826 397 q 543 413 709 446 l 258 357 q 245 184 258 299 q 233 10 233 68 q 215 -37 233 -18 q 168 -56 196 -56 q 122 -37 140 -56 q 103 10 103 -18 q 115 225 103 82 q 127 439 127 368 q 124 552 127 477 q 121 665 121 627 q 128 826 121 719 q 135 987 135 934 q 153 1035 135 1016 q 200 1054 172 1054 q 247 1035 229 1054 q 265 987 265 1016 q 257 825 265 938 q 251 663 250 720 l 255 491 l 546 546 q 840 580 718 578 q 847 872 847 677 q 864 977 847 922 q 927 1049 887 1049 q 974 1030 954 1049 q 994 983 994 1010 q 987 956 994 973 m 556 1451 q 646 1406 593 1451 q 720 1330 661 1392 l 827 1215 q 845 1173 845 1196 q 826 1130 845 1148 q 783 1112 808 1112 q 740 1131 758 1112 q 570 1308 657 1221 q 349 1096 398 1096 q 306 1115 325 1096 q 288 1158 288 1134 q 308 1202 288 1183 q 515 1430 351 1244 q 556 1451 533 1451 z "},"ĥ":{"ha":802,"x_min":98,"x_max":770,"o":"m 662 -42 q 588 41 610 -42 q 570 168 584 58 q 558 329 558 265 q 560 382 558 347 q 562 436 562 418 q 498 564 562 564 q 344 486 412 564 q 249 333 309 446 q 227 27 249 75 q 168 -15 208 -15 q 119 4 140 -15 q 98 50 98 22 q 104 80 98 60 q 112 179 111 99 l 114 279 l 116 778 q 118 848 116 810 q 121 891 121 886 q 114 956 121 913 q 108 1021 108 999 q 127 1068 108 1049 q 176 1086 147 1086 q 241 1027 231 1086 q 252 908 252 960 q 247 760 252 862 q 243 611 243 663 l 244 551 q 498 700 355 700 q 652 627 610 700 q 686 453 681 576 l 692 323 l 705 182 q 728 43 711 117 q 731 23 731 31 q 711 -24 731 -5 q 662 -42 690 -42 m 481 1451 q 571 1406 519 1451 q 645 1330 587 1392 l 753 1215 q 770 1173 770 1196 q 752 1130 770 1148 q 708 1112 733 1112 q 665 1131 684 1112 q 496 1308 583 1221 q 275 1096 323 1096 q 232 1115 250 1096 q 213 1158 213 1134 q 233 1202 213 1183 q 440 1430 276 1244 q 481 1451 458 1451 z "},"Ħ":{"ha":1067,"x_min":-24,"x_max":1090,"o":"m 1090 821 q 980 746 1090 750 q 968 547 979 682 q 956 347 956 416 q 964 192 956 296 q 971 37 971 89 q 952 -9 971 9 q 906 -28 934 -28 q 860 -9 878 -28 q 841 37 841 9 q 833 192 841 89 q 826 347 826 296 q 829 448 826 397 q 543 413 711 446 l 258 357 q 245 184 258 299 q 233 10 233 68 q 215 -37 233 -18 q 168 -56 196 -56 q 122 -37 140 -56 q 103 10 103 -18 q 115 225 103 82 q 127 439 127 368 q 124 552 127 477 q 121 665 121 627 q 123 747 121 701 l 45 747 q -24 814 -24 747 q 42 881 -24 876 q 132 883 81 884 q 135 987 135 944 q 153 1035 135 1016 q 200 1054 172 1054 q 247 1035 229 1054 q 265 987 265 1016 q 262 882 265 943 q 478 878 316 882 q 694 874 612 874 q 847 878 719 874 q 865 981 848 932 q 927 1049 888 1049 q 974 1030 954 1049 q 994 983 994 1010 q 985 937 994 971 q 977 883 977 903 l 991 884 q 1030 883 996 883 q 1090 821 1090 883 m 846 749 q 254 747 621 749 q 251 663 251 701 q 255 491 251 594 l 546 546 q 840 580 718 578 q 846 749 845 654 z "},"ħ":{"ha":802,"x_min":-8,"x_max":731,"o":"m 731 23 q 710 -23 731 -5 q 662 -42 690 -42 q 588 42 610 -42 q 570 168 582 64 q 558 329 558 264 q 560 382 558 347 q 562 436 562 418 q 498 564 562 564 q 344 486 412 564 q 249 333 309 446 q 227 27 249 73 q 168 -15 208 -15 q 119 4 140 -15 q 98 50 98 22 q 104 80 98 58 q 112 179 110 100 q 112 288 112 500 q 112 608 112 500 q 118 798 112 640 l 97 798 q -8 860 -8 798 q 26 913 -8 903 q 97 918 41 918 l 119 918 q 108 1021 108 1036 q 127 1068 108 1049 q 176 1086 147 1086 q 252 924 252 1086 q 335 927 301 927 l 406 927 q 517 863 517 927 q 501 820 517 838 q 459 801 484 801 q 434 804 451 801 q 410 806 418 806 q 249 801 376 806 q 243 631 243 667 l 244 551 q 498 700 355 700 q 652 627 610 700 q 686 453 682 576 q 728 43 694 201 q 731 23 731 30 z "},"Ĩ":{"ha":759,"x_min":51,"x_max":719,"o":"m 649 845 q 540 854 608 845 l 431 868 q 415 491 415 671 q 418 374 415 452 q 420 256 420 296 q 416 140 420 193 l 629 143 q 677 123 658 144 q 696 74 696 103 q 677 24 696 45 q 629 4 659 4 q 515 2 591 4 q 401 1 439 1 q 267 -12 357 1 q 133 -24 178 -24 q 85 -4 104 -24 q 66 45 66 16 q 85 94 66 74 q 133 115 104 115 q 279 129 177 115 q 286 254 286 184 q 281 368 286 292 q 277 482 277 444 q 296 873 277 639 l 119 869 q 70 888 90 868 q 51 939 51 909 q 115 1008 51 1002 q 320 1013 170 1013 q 659 984 456 1013 q 719 911 719 975 q 699 863 719 882 q 649 845 679 845 m 254 1359 q 363 1320 321 1359 l 419 1248 q 495 1208 450 1208 q 553 1234 534 1208 l 584 1293 l 597 1333 q 638 1353 607 1353 q 689 1303 689 1353 q 661 1222 689 1278 q 613 1146 633 1166 q 516 1107 575 1107 q 377 1146 427 1107 q 317 1219 360 1159 q 254 1257 290 1257 q 187 1226 212 1257 l 157 1168 q 113 1138 142 1138 q 77 1152 92 1138 q 61 1187 61 1166 q 63 1202 61 1195 q 132 1314 82 1272 q 254 1359 184 1359 z "},"ĩ":{"ha":389,"x_min":-129,"x_max":499,"o":"m 254 308 q 257 186 254 267 q 259 64 259 105 q 193 -3 259 -3 q 126 64 126 -3 q 124 186 126 105 q 121 308 121 267 q 128 467 121 361 q 135 626 135 573 q 201 694 135 694 q 268 626 268 694 q 261 467 268 573 q 254 308 254 361 m 64 1054 q 173 1015 132 1054 l 229 943 q 305 903 260 903 q 363 928 344 903 l 394 988 l 408 1028 q 448 1048 417 1048 q 499 998 499 1048 q 471 917 499 973 q 423 841 443 861 q 326 802 385 802 q 187 841 237 802 q 127 913 170 854 q 64 952 100 952 q -3 921 22 952 l -33 863 q -77 833 -48 833 q -113 847 -98 833 q -129 882 -129 861 q -127 897 -129 890 q -58 1009 -108 967 q 64 1054 -6 1054 z "},"Ī":{"ha":759,"x_min":51,"x_max":719,"o":"m 649 845 q 540 854 608 845 l 431 868 q 415 491 415 671 q 418 374 415 452 q 420 256 420 296 q 416 140 420 193 l 629 143 q 677 123 658 144 q 696 74 696 103 q 677 24 696 45 q 629 4 659 4 q 515 2 591 4 q 401 1 439 1 q 267 -12 357 1 q 133 -24 178 -24 q 85 -4 104 -24 q 66 45 66 16 q 85 94 66 74 q 133 115 104 115 q 279 129 177 115 q 286 254 286 184 q 281 368 286 292 q 277 482 277 444 q 296 873 277 639 l 119 869 q 70 888 90 868 q 51 939 51 909 q 115 1008 51 1002 q 320 1013 170 1013 q 659 984 456 1013 q 719 911 719 975 q 699 863 719 882 q 649 845 679 845 m 239 1217 q 320 1214 267 1217 q 400 1211 373 1211 q 483 1212 428 1211 q 565 1213 537 1213 q 618 1162 618 1213 q 574 1113 618 1122 l 498 1109 l 393 1109 q 295 1112 360 1109 q 197 1114 229 1114 q 148 1165 148 1114 q 179 1211 148 1200 q 239 1217 196 1217 z "},"ī":{"ha":389,"x_min":-56,"x_max":414,"o":"m 254 308 q 257 186 254 267 q 259 64 259 105 q 193 -3 259 -3 q 126 64 126 -3 q 124 186 126 105 q 121 308 121 267 q 128 467 121 361 q 135 626 135 573 q 201 694 135 694 q 268 626 268 694 q 261 467 268 573 q 254 308 254 361 m 36 911 q 116 908 63 911 q 197 905 170 905 q 279 907 224 905 q 361 908 334 908 q 414 857 414 908 q 370 808 414 817 l 294 804 l 189 804 q 91 806 157 804 q -7 808 26 808 q -56 860 -56 808 q -24 905 -56 895 q 36 911 -7 911 z "},"Ĭ":{"ha":759,"x_min":51,"x_max":719,"o":"m 649 845 q 540 854 608 845 l 431 868 q 415 491 415 671 q 418 374 415 452 q 420 256 420 296 q 416 140 420 193 l 629 143 q 677 123 658 144 q 696 74 696 103 q 677 24 696 45 q 629 4 659 4 q 515 2 591 4 q 401 1 439 1 q 267 -12 357 1 q 133 -24 178 -24 q 85 -4 104 -24 q 66 45 66 16 q 85 94 66 74 q 133 115 104 115 q 279 129 177 115 q 286 254 286 184 q 281 368 286 292 q 277 482 277 444 q 296 873 277 639 l 119 869 q 70 888 90 868 q 51 939 51 909 q 115 1008 51 1002 q 320 1013 170 1013 q 659 984 456 1013 q 719 911 719 975 q 699 863 719 882 q 649 845 679 845 m 334 1206 q 562 1315 532 1206 q 610 1358 573 1358 q 649 1343 632 1358 q 663 1308 665 1328 l 661 1299 q 542 1144 646 1192 q 334 1105 456 1105 q 165 1169 237 1105 q 90 1332 90 1236 q 140 1383 90 1383 q 191 1336 183 1383 q 237 1242 201 1272 q 334 1206 279 1206 z "},"ĭ":{"ha":389,"x_min":-86,"x_max":486,"o":"m 254 308 q 257 186 254 267 q 259 64 259 105 q 193 -3 259 -3 q 126 64 126 -3 q 124 186 126 105 q 121 308 121 267 q 128 467 121 361 q 135 626 135 573 q 201 694 135 694 q 268 626 268 694 q 261 467 268 573 q 254 308 254 361 m 157 901 q 385 1010 356 901 q 434 1053 397 1053 q 472 1038 456 1053 q 486 1003 489 1023 l 485 994 q 366 839 469 886 q 157 800 280 800 q -12 864 60 800 q -86 1027 -86 931 q -36 1078 -86 1078 q 14 1031 7 1078 q 60 937 24 966 q 157 901 103 901 z "},"Į":{"ha":759,"x_min":51,"x_max":719,"o":"m 649 845 q 540 854 608 845 l 431 868 q 415 491 415 671 q 418 374 415 452 q 420 256 420 296 q 416 140 420 193 l 629 143 q 677 123 658 144 q 696 74 696 103 q 677 24 696 45 q 629 4 659 4 q 515 2 591 4 q 401 1 439 1 q 267 -12 357 1 q 133 -24 178 -24 q 85 -4 104 -24 q 66 45 66 16 q 85 94 66 74 q 133 115 104 115 q 279 129 177 115 q 286 254 286 184 q 281 368 286 292 q 277 482 277 444 q 296 873 277 639 l 119 869 q 70 888 90 868 q 51 939 51 909 q 115 1008 51 1002 q 320 1013 170 1013 q 659 984 456 1013 q 719 911 719 975 q 699 863 719 882 q 649 845 679 845 m 337 -52 q 355 -103 337 -77 q 397 -132 374 -132 q 514 -107 466 -132 q 541 -99 530 -99 q 576 -115 562 -99 q 591 -153 591 -132 q 512 -218 591 -195 q 397 -233 457 -233 q 281 -175 330 -233 q 236 -52 236 -120 q 285 60 236 4 q 390 115 334 115 q 425 100 411 115 q 439 63 439 84 q 388 8 439 37 q 337 -52 337 -20 z "},"į":{"ha":389,"x_min":33,"x_max":387,"o":"m 224 859 q 168 882 191 859 q 144 937 144 905 q 168 993 144 970 q 224 1016 191 1016 q 280 993 256 1016 q 303 937 303 970 q 280 882 303 905 q 224 859 256 859 m 254 308 q 257 186 254 267 q 259 64 259 105 q 193 -3 259 -3 q 126 64 126 -3 q 124 186 126 105 q 121 308 121 267 q 128 467 121 361 q 135 626 135 573 q 201 694 135 694 q 268 626 268 694 q 261 467 268 573 q 254 308 254 361 m 134 -52 q 151 -103 134 -77 q 193 -132 170 -132 q 311 -107 262 -132 q 337 -99 326 -99 q 373 -115 358 -99 q 387 -153 387 -132 q 309 -218 387 -195 q 193 -233 254 -233 q 78 -175 127 -233 q 33 -52 33 -120 q 82 60 33 4 q 186 115 131 115 q 221 100 208 115 q 235 63 235 84 q 184 8 235 37 q 134 -52 134 -20 z "},"İ":{"ha":759,"x_min":51,"x_max":719,"o":"m 649 845 q 540 854 608 845 l 431 868 q 415 491 415 671 q 418 374 415 452 q 420 256 420 296 q 416 140 420 193 l 629 143 q 677 123 658 144 q 696 74 696 103 q 677 24 696 45 q 629 4 659 4 q 515 2 591 4 q 401 1 439 1 q 267 -12 357 1 q 133 -24 178 -24 q 85 -4 104 -24 q 66 45 66 16 q 85 94 66 74 q 133 115 104 115 q 279 129 177 115 q 286 254 286 184 q 281 368 286 292 q 277 482 277 444 q 296 873 277 639 l 119 869 q 70 888 90 868 q 51 939 51 909 q 115 1008 51 1002 q 320 1013 170 1013 q 659 984 456 1013 q 719 911 719 975 q 699 863 719 882 q 649 845 679 845 m 461 1172 q 438 1127 461 1147 q 390 1107 415 1107 q 332 1140 368 1107 q 296 1194 296 1172 q 319 1238 296 1218 q 368 1257 342 1257 q 425 1225 389 1257 q 461 1172 461 1192 z "},"ı":{"ha":389,"x_min":121,"x_max":268,"o":"m 254 308 q 257 186 254 267 q 259 64 259 105 q 193 -3 259 -3 q 126 64 126 -3 q 124 186 126 105 q 121 308 121 267 q 128 467 121 361 q 135 626 135 573 q 201 694 135 694 q 268 626 268 694 q 261 467 268 573 q 254 308 254 361 z "},"Ĳ":{"ha":1565,"x_min":51,"x_max":1519,"o":"m 649 845 q 540 854 608 845 l 431 868 q 415 491 415 671 q 418 374 415 452 q 420 256 420 296 q 416 140 420 193 l 629 143 q 677 123 658 144 q 696 74 696 103 q 677 24 696 45 q 629 4 659 4 q 515 2 591 4 q 401 1 439 1 q 267 -12 357 1 q 133 -24 178 -24 q 85 -4 104 -24 q 66 45 66 16 q 85 94 66 74 q 133 115 104 115 q 279 129 177 115 q 286 254 286 184 q 281 368 286 292 q 277 482 277 444 q 296 873 277 639 l 119 869 q 70 888 90 868 q 51 939 51 909 q 115 1008 51 1002 q 320 1013 170 1013 q 659 984 456 1013 q 719 911 719 975 q 699 863 719 882 q 649 845 679 845 m 1452 878 q 1409 883 1438 878 q 1364 888 1379 888 q 1286 886 1331 888 l 1290 805 q 1293 661 1293 732 q 1223 71 1293 310 q 1066 -81 1178 -81 q 832 4 948 -81 q 704 222 704 99 q 772 305 704 305 q 841 223 841 305 q 925 108 841 162 q 1066 58 1002 58 q 1143 399 1122 58 q 1154 805 1154 559 q 1150 878 1154 824 l 1109 878 q 1029 879 1080 877 q 949 881 972 881 q 878 951 878 881 q 972 1021 878 1021 q 1041 1019 996 1021 q 1109 1017 1086 1017 q 1237 1022 1152 1017 q 1364 1027 1322 1027 q 1519 949 1519 1027 q 1499 899 1519 920 q 1452 878 1480 878 z "},"ĳ":{"ha":736,"x_min":121,"x_max":621,"o":"m 224 859 q 168 882 191 859 q 144 937 144 905 q 168 993 144 970 q 224 1016 191 1016 q 280 993 256 1016 q 303 937 303 970 q 280 882 303 905 q 224 859 256 859 m 254 308 q 257 186 254 267 q 259 64 259 105 q 193 -3 259 -3 q 126 64 126 -3 q 124 186 126 105 q 121 308 121 267 q 128 467 121 361 q 135 626 135 573 q 201 694 135 694 q 268 626 268 694 q 261 467 268 573 q 254 308 254 361 m 493 858 q 437 881 460 858 q 414 936 414 903 q 437 991 414 968 q 493 1015 460 1015 q 549 991 526 1015 q 573 936 573 968 q 549 881 573 903 q 493 858 526 858 m 488 -157 q 465 249 488 -129 l 441 623 q 461 683 439 654 q 510 709 480 709 q 555 693 531 709 q 581 658 579 677 l 603 267 l 621 -151 q 565 -322 625 -239 q 416 -405 504 -405 q 172 -180 271 -405 q 164 -148 164 -162 q 185 -101 164 -121 q 234 -81 207 -81 q 317 -170 275 -81 q 355 -236 330 -195 q 416 -270 382 -270 q 467 -225 446 -270 q 488 -157 484 -191 z "},"Ĵ":{"ha":924,"x_min":64,"x_max":879,"o":"m 812 878 q 768 883 798 878 q 724 888 739 888 q 646 886 691 888 l 650 805 q 653 661 653 732 q 583 71 653 310 q 426 -81 538 -81 q 192 4 308 -81 q 64 222 64 99 q 132 305 64 305 q 201 223 201 305 q 285 108 201 162 q 426 58 361 58 q 503 399 481 58 q 513 805 513 559 q 510 878 513 824 l 469 878 q 389 879 440 877 q 309 881 332 881 q 238 951 238 881 q 332 1021 238 1021 q 400 1019 355 1021 q 469 1017 446 1017 q 596 1022 511 1017 q 724 1027 682 1027 q 879 949 879 1027 q 859 899 879 920 q 812 878 840 878 m 509 1451 q 598 1406 546 1451 q 672 1330 614 1392 l 780 1215 q 798 1173 798 1196 q 779 1130 798 1148 q 735 1112 760 1112 q 692 1131 711 1112 q 523 1308 610 1221 q 302 1096 351 1096 q 259 1115 277 1096 q 240 1158 240 1134 q 260 1202 240 1183 q 467 1430 303 1244 q 509 1451 486 1451 z "},"ĵ":{"ha":560,"x_min":-38,"x_max":519,"o":"m 519 868 q 501 825 519 843 q 457 806 482 806 q 414 826 433 806 q 245 1002 332 916 q 24 791 73 791 q -19 810 -1 791 q -38 853 -38 829 q -18 897 -38 878 q 189 1125 25 939 q 231 1146 208 1146 q 320 1101 268 1146 q 394 1025 332 1090 q 502 909 425 993 q 519 868 519 890 m 445 -151 q 389 -321 445 -245 q 240 -405 328 -405 q -4 -180 94 -405 q -12 -148 -12 -162 q 9 -101 -12 -121 q 58 -81 31 -81 q 141 -170 98 -81 q 179 -236 154 -195 q 240 -270 205 -270 q 291 -225 270 -270 q 311 -158 307 -191 l 311 -157 q 288 249 312 -77 q 265 623 265 565 q 283 681 265 655 q 334 709 302 709 q 379 693 355 709 q 404 658 403 677 q 427 267 411 547 q 445 -151 445 -65 z "},"Ķ":{"ha":848,"x_min":145,"x_max":843,"o":"m 782 -28 q 488 153 668 -28 l 286 357 l 286 348 l 285 -7 q 226 -75 285 -75 q 167 -45 190 -75 q 145 20 145 -17 q 155 494 145 178 q 164 968 164 810 q 183 1018 164 998 q 231 1038 202 1038 q 280 1018 260 1038 q 299 968 299 998 q 291 763 299 903 q 283 558 283 629 q 489 774 383 652 l 684 1000 q 735 1027 707 1027 q 784 1006 764 1027 q 804 957 804 985 q 629 718 804 911 q 380 459 517 593 q 482 353 455 380 q 635 214 557 279 l 706 154 q 789 109 740 125 q 843 42 843 92 q 826 -5 843 15 q 782 -28 808 -28 m 641 -133 q 477 -302 641 -302 q 368 -280 418 -302 q 302 -202 302 -252 q 349 -165 302 -165 q 405 -182 369 -165 q 469 -199 441 -199 q 535 -136 535 -198 q 488 -62 535 -96 q 404 -23 449 -34 q 359 26 359 -12 q 408 78 359 78 q 564 14 490 78 q 641 -133 641 -52 z "},"ķ":{"ha":750,"x_min":111,"x_max":730,"o":"m 659 -28 q 602 12 622 -28 q 495 174 572 69 l 375 337 q 253 250 336 306 q 245 45 245 144 q 179 -24 245 -24 q 111 68 111 -24 q 118 237 111 125 q 126 406 126 349 q 129 641 126 484 q 132 876 132 797 q 129 947 132 899 q 126 1019 126 996 q 193 1088 126 1088 q 259 1019 259 1088 q 263 945 259 996 q 266 872 267 898 l 261 654 q 259 418 258 511 q 437 572 366 500 l 586 726 q 634 749 608 749 q 682 728 661 749 q 703 680 703 707 q 684 634 703 657 q 478 425 598 534 l 626 223 q 730 39 730 82 q 708 -8 730 11 q 659 -28 687 -28 m 587 -133 q 422 -302 587 -302 q 313 -280 363 -302 q 248 -202 248 -252 q 294 -165 248 -165 q 351 -182 315 -165 q 415 -199 387 -199 q 481 -136 481 -198 q 433 -62 481 -96 q 350 -23 395 -34 q 304 26 304 -12 q 353 78 304 78 q 509 14 435 78 q 587 -133 587 -52 z "},"ĸ":{"ha":750,"x_min":85,"x_max":704,"o":"m 704 39 q 683 -8 704 12 q 633 -28 661 -28 q 576 12 598 -28 q 466 176 537 80 q 349 337 373 302 q 227 250 310 306 q 220 45 220 144 q 201 -4 220 15 q 153 -24 183 -24 q 85 68 85 -24 q 93 237 85 125 q 100 406 100 349 l 100 721 q 167 789 100 789 q 233 721 233 789 q 233 631 233 691 l 232 539 q 233 418 232 505 q 401 567 312 478 q 560 726 454 620 q 608 749 583 749 q 657 728 636 749 q 677 680 677 707 q 452 425 677 631 q 597 229 500 359 q 704 39 704 82 z "},"Ĺ":{"ha":765,"x_min":68,"x_max":739,"o":"m 695 28 q 454 -37 618 -8 q 208 -63 302 -63 q 109 -42 139 -63 q 68 62 64 -10 l 82 287 q 100 976 100 578 q 119 1025 100 1005 q 167 1046 138 1046 q 215 1025 196 1046 q 235 976 235 1005 q 216 279 235 493 l 208 176 q 203 76 202 114 q 651 159 380 74 q 673 163 662 163 q 720 142 701 163 q 739 92 739 121 q 695 28 739 48 m 335 1110 q 292 1129 311 1110 q 273 1173 273 1148 q 294 1217 273 1196 q 383 1324 322 1244 q 483 1421 427 1382 q 519 1434 501 1434 q 562 1415 543 1434 q 580 1371 580 1396 q 554 1324 580 1344 q 464 1226 517 1295 q 375 1127 408 1155 q 335 1110 355 1110 z "},"ĺ":{"ha":380,"x_min":118,"x_max":451,"o":"m 267 533 l 256 196 q 251 39 256 152 q 184 -29 246 -29 q 118 40 118 -29 q 125 287 118 122 q 133 533 133 451 q 136 778 133 615 q 140 1023 140 941 q 206 1091 140 1091 q 273 1023 273 1091 q 270 779 273 916 q 267 533 269 691 m 206 1144 q 163 1163 182 1144 q 144 1206 144 1182 q 165 1251 144 1230 q 254 1358 193 1278 q 354 1455 298 1416 q 390 1468 372 1468 q 433 1449 414 1468 q 451 1405 451 1430 q 425 1358 451 1378 q 335 1260 389 1329 q 246 1161 279 1189 q 206 1144 227 1144 z "},"Ļ":{"ha":765,"x_min":68,"x_max":739,"o":"m 739 92 q 695 28 739 48 q 501 -28 631 -2 q 539 -133 539 -79 q 375 -302 539 -302 q 266 -280 316 -302 q 201 -202 201 -252 q 247 -165 201 -165 q 303 -182 267 -165 q 368 -199 340 -199 q 433 -136 433 -198 q 368 -50 433 -87 q 208 -63 269 -63 q 109 -42 139 -63 q 68 62 68 -14 q 82 287 68 52 q 100 976 100 592 q 119 1025 100 1005 q 167 1046 138 1046 q 215 1025 196 1046 q 235 976 235 1005 q 216 279 235 600 q 208 176 215 250 q 203 76 202 119 q 651 159 380 74 q 673 163 662 163 q 720 142 701 163 q 739 92 739 121 z "},"ļ":{"ha":380,"x_min":118,"x_max":458,"o":"m 458 -133 q 294 -302 458 -302 q 184 -280 235 -302 q 119 -202 119 -252 q 165 -165 119 -165 q 222 -182 186 -165 q 286 -199 258 -199 q 352 -136 352 -198 q 304 -62 352 -96 q 220 -23 262 -32 l 216 -22 q 184 -29 203 -29 q 118 40 118 -29 q 125 287 118 122 q 133 533 133 451 q 136 778 133 615 q 140 1023 140 941 q 206 1091 140 1091 q 273 1023 273 1091 q 270 778 273 941 q 267 533 267 615 q 256 196 267 471 q 254 75 256 162 q 392 4 330 63 q 458 -133 458 -59 z "},"Ľ":{"ha":765,"x_min":68,"x_max":739,"o":"m 695 28 q 454 -37 618 -8 q 208 -63 302 -63 q 109 -42 139 -63 q 68 62 64 -10 l 82 287 q 100 976 100 578 q 119 1025 100 1005 q 167 1046 138 1046 q 215 1025 196 1046 q 235 976 235 1005 q 216 279 235 493 l 208 176 q 203 76 202 114 q 651 159 380 74 q 673 163 662 163 q 720 142 701 163 q 739 92 739 121 q 695 28 739 48 m 619 929 q 585 788 619 863 q 491 701 545 701 q 443 750 443 701 q 458 793 443 770 q 502 867 475 814 q 443 956 443 902 q 468 1016 443 993 q 530 1040 492 1040 q 619 929 619 1040 z "},"ľ":{"ha":645,"x_min":118,"x_max":538,"o":"m 267 533 l 256 196 q 251 39 256 152 q 184 -29 246 -29 q 118 40 118 -29 q 125 287 118 122 q 133 533 133 451 q 136 778 133 615 q 140 1023 140 941 q 206 1091 140 1091 q 273 1023 273 1091 q 270 779 273 916 q 267 533 269 691 m 538 977 q 503 836 538 911 q 410 748 463 748 q 361 798 361 748 q 377 840 361 817 q 420 915 394 861 q 361 1003 361 949 q 386 1064 361 1040 q 448 1087 411 1087 q 538 977 538 1087 z "},"Ŀ":{"ha":765,"x_min":68,"x_max":739,"o":"m 695 28 q 454 -37 618 -8 q 208 -63 302 -63 q 109 -42 139 -63 q 68 62 64 -10 l 82 287 q 100 976 100 578 q 119 1025 100 1005 q 167 1046 138 1046 q 215 1025 196 1046 q 235 976 235 1005 q 216 279 235 493 l 208 176 q 203 76 202 114 q 651 159 380 74 q 673 163 662 163 q 720 142 701 163 q 739 92 739 121 q 695 28 739 48 m 638 486 q 613 426 638 451 q 554 401 589 401 q 494 426 519 401 q 470 486 470 450 q 494 545 470 521 q 554 570 519 570 q 613 545 589 570 q 638 486 638 520 z "},"ŀ":{"ha":549,"x_min":118,"x_max":550,"o":"m 267 533 l 256 196 q 251 39 256 152 q 184 -29 246 -29 q 118 40 118 -29 q 125 287 118 122 q 133 533 133 451 q 136 778 133 615 q 140 1023 140 941 q 206 1091 140 1091 q 273 1023 273 1091 q 270 779 273 916 q 267 533 269 691 m 550 486 q 525 426 550 451 q 466 401 500 401 q 406 426 431 401 q 382 486 382 450 q 406 545 382 521 q 466 570 431 570 q 525 545 500 570 q 550 486 550 520 z "},"Ł":{"ha":765,"x_min":-87,"x_max":739,"o":"m 227 506 l 216 279 l 208 185 q 203 92 203 131 l 203 76 l 214 76 q 651 159 375 76 q 673 163 663 163 q 720 141 701 163 q 739 92 739 120 q 695 28 739 48 q 456 -37 618 -8 q 208 -63 305 -63 q 103 -37 135 -63 q 68 62 68 -9 q 77 233 68 113 l 88 403 q -20 341 4 341 q -68 362 -48 341 q -87 412 -87 384 q -57 466 -87 444 l 94 575 l 100 976 q 119 1025 100 1005 q 167 1046 138 1046 q 215 1025 196 1046 q 235 976 235 1005 l 231 669 q 349 721 319 721 q 396 700 377 721 q 415 650 415 679 q 374 591 415 610 q 227 506 290 549 z "},"ł":{"ha":315,"x_min":-59,"x_max":380,"o":"m 229 463 l 221 168 q 217 39 221 132 q 153 -24 212 -24 q 89 41 89 -24 q 94 200 89 89 l 100 359 q 3 313 31 313 q -41 333 -22 313 q -59 380 -59 353 q -23 435 -59 416 q 102 520 47 474 l 107 966 q 171 1030 108 1030 q 217 1012 199 1030 q 235 966 235 994 l 231 648 l 267 690 q 314 712 290 712 q 360 693 340 712 q 380 648 380 673 q 229 463 380 604 z "},"Ń":{"ha":1107,"x_min":83,"x_max":1049,"o":"m 1045 151 q 1034 42 1045 115 q 962 -26 1024 -26 q 873 22 924 -26 q 239 776 597 283 l 234 467 q 236 298 233 406 q 239 129 239 178 q 168 -54 239 -54 q 112 -33 135 -54 q 90 20 90 -12 q 94 106 90 49 q 98 193 98 164 q 101 318 98 235 q 104 444 104 402 q 102 579 104 490 q 100 715 100 669 q 92 842 100 758 q 83 969 83 926 q 111 1027 83 1002 q 171 1052 138 1052 q 260 973 207 1052 q 564 553 432 716 q 916 173 723 355 q 916 259 918 195 l 914 345 q 907 612 909 548 q 891 819 901 741 q 873 890 889 834 q 859 962 859 936 q 931 1040 859 1040 q 1049 600 1049 1040 q 1047 375 1049 525 q 1045 151 1045 226 m 491 1110 q 448 1129 467 1110 q 429 1173 429 1148 q 450 1217 429 1196 q 539 1324 478 1244 q 639 1421 583 1382 q 675 1434 657 1434 q 718 1415 699 1434 q 736 1371 736 1396 q 710 1324 736 1344 q 620 1226 673 1295 q 531 1127 564 1155 q 491 1110 511 1110 z "},"ń":{"ha":727,"x_min":84,"x_max":682,"o":"m 614 -48 q 549 16 557 -48 l 530 164 q 520 313 520 238 q 523 377 520 334 q 525 441 525 420 q 471 588 525 588 q 311 478 384 588 q 228 290 258 397 q 222 224 227 274 q 218 158 218 183 q 222 97 218 138 q 226 36 226 56 q 159 -33 226 -33 q 93 36 93 -33 q 89 97 93 56 q 84 158 84 138 q 94 352 84 222 q 104 545 104 481 q 101 610 104 567 q 99 674 99 652 q 118 722 99 703 q 166 741 137 741 q 235 652 233 741 l 237 573 q 471 725 351 725 q 622 629 578 725 q 654 441 654 559 l 653 309 q 667 163 652 260 q 682 19 682 67 q 663 -30 682 -11 q 614 -48 644 -48 m 328 805 q 285 824 304 805 q 267 867 267 843 q 288 911 267 890 q 376 1019 315 939 q 476 1116 420 1077 q 512 1129 494 1129 q 555 1110 536 1129 q 573 1066 573 1090 q 547 1019 573 1039 q 457 921 511 989 q 368 822 401 850 q 328 805 349 805 z "},"Ņ":{"ha":1107,"x_min":83,"x_max":1049,"o":"m 1045 151 q 1034 42 1045 115 q 962 -26 1024 -26 q 873 22 924 -26 q 239 776 597 283 l 234 467 q 236 298 233 406 q 239 129 239 178 q 168 -54 239 -54 q 112 -33 135 -54 q 90 20 90 -12 q 94 106 90 49 q 98 193 98 164 q 101 318 98 235 q 104 444 104 402 q 102 579 104 490 q 100 715 100 669 q 92 842 100 758 q 83 969 83 926 q 111 1027 83 1002 q 171 1052 138 1052 q 260 973 207 1052 q 564 553 432 716 q 916 173 723 355 q 916 259 918 195 l 914 345 q 907 612 909 548 q 891 819 901 741 q 873 890 889 834 q 859 962 859 936 q 931 1040 859 1040 q 1049 600 1049 1040 q 1047 375 1049 525 q 1045 151 1045 226 m 702 -133 q 538 -302 702 -302 q 429 -280 479 -302 q 363 -202 363 -252 q 410 -165 363 -165 q 466 -182 430 -165 q 530 -199 503 -199 q 596 -136 596 -198 q 549 -62 596 -96 q 465 -23 510 -34 q 420 26 420 -12 q 469 78 420 78 q 625 14 551 78 q 702 -133 702 -52 z "},"ņ":{"ha":727,"x_min":84,"x_max":682,"o":"m 614 -48 q 549 16 557 -48 l 530 164 q 520 313 520 238 q 523 377 520 334 q 525 441 525 420 q 471 588 525 588 q 311 478 384 588 q 228 290 258 397 q 222 224 227 274 q 218 158 218 183 q 222 97 218 138 q 226 36 226 56 q 159 -33 226 -33 q 93 36 93 -33 q 89 97 93 56 q 84 158 84 138 q 94 352 84 222 q 104 545 104 481 q 101 610 104 567 q 99 674 99 652 q 118 722 99 703 q 166 741 137 741 q 235 652 233 741 l 237 573 q 471 725 351 725 q 622 629 578 725 q 654 441 654 559 l 653 309 q 667 163 652 260 q 682 19 682 67 q 663 -30 682 -11 q 614 -48 644 -48 m 553 -133 q 389 -302 553 -302 q 279 -280 330 -302 q 214 -202 214 -252 q 260 -165 214 -165 q 317 -182 281 -165 q 381 -199 353 -199 q 447 -136 447 -198 q 399 -62 447 -96 q 316 -23 361 -34 q 271 26 271 -12 q 319 78 271 78 q 475 14 401 78 q 553 -133 553 -52 z "},"Ň":{"ha":1107,"x_min":83,"x_max":1049,"o":"m 1045 151 q 1034 42 1045 115 q 962 -26 1024 -26 q 873 22 924 -26 q 239 776 597 283 l 234 467 q 236 298 233 406 q 239 129 239 178 q 168 -54 239 -54 q 112 -33 135 -54 q 90 20 90 -12 q 94 106 90 49 q 98 193 98 164 q 101 318 98 235 q 104 444 104 402 q 102 579 104 490 q 100 715 100 669 q 92 842 100 758 q 83 969 83 926 q 111 1027 83 1002 q 171 1052 138 1052 q 260 973 207 1052 q 564 553 432 716 q 916 173 723 355 q 916 259 918 195 l 914 345 q 907 612 909 548 q 891 819 901 741 q 873 890 889 834 q 859 962 859 936 q 931 1040 859 1040 q 1049 600 1049 1040 q 1047 375 1049 525 q 1045 151 1045 226 m 569 1227 l 718 1360 q 751 1374 733 1374 q 787 1358 772 1374 q 803 1322 803 1342 q 785 1284 803 1301 q 563 1103 593 1103 q 518 1128 538 1103 l 484 1170 l 405 1261 q 349 1358 349 1325 q 365 1394 349 1379 q 402 1409 381 1409 q 445 1381 429 1409 q 569 1227 467 1344 z "},"ň":{"ha":727,"x_min":84,"x_max":682,"o":"m 614 -48 q 549 16 557 -48 l 530 164 q 520 313 520 238 q 523 377 520 334 q 525 441 525 420 q 471 588 525 588 q 311 478 384 588 q 228 290 258 397 q 222 224 227 274 q 218 158 218 183 q 222 97 218 138 q 226 36 226 56 q 159 -33 226 -33 q 93 36 93 -33 q 89 97 93 56 q 84 158 84 138 q 94 352 84 222 q 104 545 104 481 q 101 610 104 567 q 99 674 99 652 q 118 722 99 703 q 166 741 137 741 q 235 652 233 741 l 237 573 q 471 725 351 725 q 622 629 578 725 q 654 441 654 559 l 653 309 q 667 163 652 260 q 682 19 682 67 q 663 -30 682 -11 q 614 -48 644 -48 m 413 922 l 562 1055 q 595 1069 577 1069 q 631 1053 616 1069 q 647 1017 647 1037 q 629 979 647 996 q 407 798 437 798 q 362 823 382 798 l 328 865 l 249 956 q 193 1053 193 1020 q 209 1089 193 1074 q 246 1103 225 1103 q 289 1076 273 1103 q 413 922 311 1039 z "},"ŉ":{"ha":863,"x_min":39,"x_max":818,"o":"m 94 742 q 39 804 41 742 q 55 902 39 827 l 81 1021 q 132 1074 92 1074 q 187 1013 186 1074 q 151 806 188 954 q 94 742 135 742 m 750 -48 q 684 16 692 -48 l 665 164 q 656 313 656 238 q 658 377 656 334 q 661 441 661 420 q 606 588 661 588 q 447 478 519 588 q 363 290 393 397 q 357 224 363 274 q 353 158 353 183 q 357 97 353 138 q 361 36 361 56 q 295 -33 361 -33 q 229 36 229 -33 q 224 97 229 56 q 220 158 220 138 q 230 352 220 222 q 239 545 239 481 q 237 610 239 567 q 235 674 235 652 q 254 722 235 703 q 302 741 273 741 q 370 652 368 741 l 372 573 q 606 725 486 725 q 758 629 714 725 q 789 441 789 559 l 789 309 q 803 163 788 260 q 818 19 818 67 q 799 -30 818 -11 q 750 -48 780 -48 z "},"Ŋ":{"ha":1107,"x_min":83,"x_max":1049,"o":"m 1049 600 q 1047 375 1049 525 q 1045 151 1045 226 q 1004 -210 1045 -109 q 767 -357 945 -357 q 626 -279 626 -357 q 646 -231 626 -252 q 694 -211 667 -211 q 730 -216 706 -211 q 767 -222 754 -222 q 881 -146 855 -222 q 895 4 895 -106 q 873 22 883 12 q 239 776 597 283 q 236 622 239 739 q 234 467 234 526 q 236 298 234 411 q 239 129 239 185 q 168 -54 239 -54 q 112 -33 135 -54 q 90 20 90 -12 q 94 106 90 49 q 98 193 98 164 q 101 318 98 235 q 104 444 104 402 q 102 579 104 490 q 100 715 100 669 q 92 842 100 758 q 83 969 83 926 q 111 1027 83 1002 q 171 1052 138 1052 q 260 973 207 1052 q 564 553 432 716 q 916 173 723 355 q 916 259 918 199 q 914 345 914 324 q 891 819 914 645 q 873 890 889 834 q 859 962 859 936 q 931 1040 859 1040 q 1049 600 1049 1040 z "},"ŋ":{"ha":727,"x_min":84,"x_max":689,"o":"m 689 -151 q 634 -320 689 -243 q 484 -405 573 -405 q 345 -359 397 -405 q 267 -233 304 -322 q 259 -200 259 -213 q 280 -153 259 -172 q 330 -134 302 -134 q 401 -202 361 -134 q 484 -270 440 -270 q 536 -223 514 -270 q 555 -151 555 -184 q 538 81 555 -73 q 520 313 520 235 q 523 377 520 334 q 525 441 525 420 q 471 588 525 588 q 311 477 389 588 q 228 290 243 382 q 218 158 218 231 q 222 97 218 138 q 226 36 226 56 q 159 -33 226 -33 q 93 36 93 -33 q 89 97 93 56 q 84 158 84 138 q 94 352 84 222 q 104 545 104 481 q 101 610 104 567 q 99 674 99 652 q 118 722 99 703 q 166 741 138 741 q 232 678 220 741 q 237 573 234 668 q 471 725 351 725 q 625 623 582 725 q 654 414 654 553 q 654 362 654 397 q 653 309 653 327 q 671 79 653 233 q 689 -151 689 -74 z "},"Ō":{"ha":1109,"x_min":79,"x_max":1050,"o":"m 544 -41 q 220 73 353 -41 q 79 388 79 195 q 218 814 79 623 q 605 1027 372 1027 q 938 926 829 1027 q 1050 597 1050 821 q 922 174 1050 362 q 544 -41 776 -41 m 605 888 q 323 723 439 888 q 217 388 217 570 q 315 173 217 254 q 544 98 408 98 q 816 264 709 98 q 911 597 911 412 q 838 825 911 759 q 605 888 768 888 m 524 1217 q 605 1214 551 1217 q 685 1211 658 1211 q 767 1212 713 1211 q 850 1213 822 1213 q 903 1162 903 1213 q 859 1113 903 1122 l 783 1109 l 677 1109 q 579 1112 645 1109 q 481 1114 514 1114 q 433 1165 433 1114 q 464 1211 433 1200 q 524 1217 481 1217 z "},"ō":{"ha":730,"x_min":56,"x_max":657,"o":"m 349 -40 q 134 64 216 -40 q 56 296 60 159 q 134 566 52 448 q 398 703 229 703 q 604 579 534 703 q 657 338 659 479 q 578 81 655 187 q 349 -40 492 -40 m 389 566 q 234 471 289 566 q 190 296 190 395 q 243 142 190 197 q 349 97 288 97 q 481 161 430 97 q 531 302 528 218 q 389 566 541 565 m 253 911 q 333 908 280 911 q 414 905 387 905 q 496 907 441 905 q 578 908 551 908 q 631 857 631 908 q 587 808 631 817 l 511 804 l 406 804 q 308 806 374 804 q 210 808 243 808 q 161 860 161 808 q 193 905 161 895 q 253 911 210 911 z "},"Ŏ":{"ha":1109,"x_min":79,"x_max":1050,"o":"m 544 -41 q 220 73 353 -41 q 79 388 79 195 q 218 814 79 623 q 605 1027 372 1027 q 938 926 829 1027 q 1050 597 1050 821 q 922 174 1050 362 q 544 -41 776 -41 m 605 888 q 323 723 439 888 q 217 388 217 570 q 315 173 217 254 q 544 98 408 98 q 816 264 709 98 q 911 597 911 412 q 838 825 911 759 q 605 888 768 888 m 648 1206 q 876 1315 847 1206 q 925 1358 888 1358 q 963 1343 947 1358 q 977 1308 980 1328 l 976 1299 q 857 1144 960 1192 q 648 1105 771 1105 q 479 1169 551 1105 q 405 1332 405 1236 q 455 1383 405 1383 q 505 1336 498 1383 q 551 1242 515 1272 q 648 1206 594 1206 z "},"ŏ":{"ha":730,"x_min":56,"x_max":703,"o":"m 349 -40 q 134 64 216 -40 q 56 296 60 159 q 134 566 52 448 q 398 703 229 703 q 604 579 534 703 q 657 338 659 479 q 578 81 655 187 q 349 -40 492 -40 m 389 566 q 234 471 289 566 q 190 296 190 395 q 243 142 190 197 q 349 97 288 97 q 481 161 430 97 q 531 302 528 218 q 389 566 541 565 m 374 901 q 602 1010 573 901 q 651 1053 614 1053 q 689 1038 673 1053 q 703 1003 706 1023 l 702 994 q 583 839 686 886 q 374 800 497 800 q 205 864 277 800 q 131 1027 131 931 q 181 1078 131 1078 q 231 1031 224 1078 q 277 937 241 966 q 374 901 320 901 z "},"Ő":{"ha":1109,"x_min":79,"x_max":1050,"o":"m 544 -41 q 220 73 353 -41 q 79 388 79 195 q 218 814 79 623 q 605 1027 372 1027 q 938 926 829 1027 q 1050 597 1050 821 q 922 174 1050 362 q 544 -41 776 -41 m 605 888 q 323 723 439 888 q 217 388 217 570 q 315 173 217 254 q 544 98 408 98 q 816 264 709 98 q 911 597 911 412 q 838 825 911 759 q 605 888 768 888 m 671 1387 q 707 1371 691 1387 q 723 1335 723 1356 q 709 1302 723 1318 q 624 1214 683 1270 q 539 1128 565 1158 q 500 1107 522 1107 q 463 1123 479 1107 q 448 1159 448 1138 q 527 1265 448 1187 l 633 1369 q 671 1387 652 1387 m 899 1366 q 934 1350 920 1366 q 949 1313 949 1334 q 924 1271 949 1295 l 823 1175 q 726 1107 752 1107 q 691 1124 706 1107 q 675 1160 675 1140 q 696 1200 675 1183 l 796 1296 q 899 1366 869 1366 z "},"ő":{"ha":730,"x_min":56,"x_max":677,"o":"m 349 -40 q 134 64 216 -40 q 56 296 60 159 q 134 566 52 448 q 398 703 229 703 q 604 579 534 703 q 657 338 659 479 q 578 81 655 187 q 349 -40 492 -40 m 389 566 q 234 471 289 566 q 190 296 190 395 q 243 142 190 197 q 349 97 288 97 q 481 161 430 97 q 531 302 528 218 q 389 566 541 565 m 399 1082 q 436 1066 420 1082 q 452 1030 452 1050 q 438 997 452 1013 q 353 909 412 965 q 268 823 294 852 q 229 802 250 802 q 192 818 208 802 q 176 854 176 833 q 256 960 176 882 l 361 1063 q 399 1082 380 1082 m 627 1061 q 663 1045 648 1061 q 677 1008 677 1029 q 652 966 677 989 l 551 869 q 455 802 481 802 q 419 819 435 802 q 404 855 404 835 q 425 895 404 878 l 525 991 q 627 1061 597 1061 z "},"Œ":{"ha":1658,"x_min":88,"x_max":1648,"o":"m 614 888 q 333 723 448 888 q 227 388 227 570 q 325 173 227 254 q 553 98 417 98 q 825 264 718 98 q 921 597 921 412 q 848 825 921 759 q 614 888 778 888 m 1581 928 q 1560 932 1573 928 q 1339 964 1447 964 q 1076 923 1227 964 q 1082 852 1082 883 q 1071 593 1082 758 l 1368 621 q 1529 635 1513 635 q 1598 565 1598 635 q 1537 496 1598 501 l 1375 482 l 1061 453 q 1056 281 1056 356 q 1078 106 1056 132 q 1183 87 1093 87 q 1310 89 1225 87 q 1437 92 1395 92 q 1477 96 1451 92 q 1516 100 1503 100 q 1589 30 1589 100 q 1531 -39 1589 -27 q 1255 -52 1466 -52 q 1010 -15 1072 -52 q 925 164 939 27 q 553 -41 779 -41 q 229 73 362 -41 q 88 388 88 195 q 227 814 88 623 q 614 1027 382 1027 q 939 934 830 1027 q 933 999 933 975 q 1000 1080 933 1080 q 1049 1060 1029 1080 q 1339 1104 1212 1104 q 1603 1064 1503 1104 q 1648 1000 1648 1046 q 1629 950 1648 971 q 1581 928 1610 928 z "},"œ":{"ha":1246,"x_min":52,"x_max":1219,"o":"m 594 104 q 349 -40 507 -40 q 134 64 216 -40 q 56 296 60 159 q 134 566 52 448 q 398 703 229 703 q 614 557 547 703 q 878 709 708 709 q 1057 673 987 709 q 1149 527 1149 626 q 1072 404 1149 459 q 928 328 1041 381 l 669 205 q 896 92 745 92 q 1006 109 943 92 q 1103 166 1056 123 q 1158 204 1146 204 q 1201 186 1182 204 q 1219 144 1219 168 q 1098 15 1219 69 q 896 -31 994 -31 q 594 104 686 -31 m 1041 532 q 878 587 983 587 q 658 330 712 587 l 866 429 q 1041 532 985 486 m 531 302 q 389 566 541 565 q 235 471 290 566 q 190 296 190 393 q 243 142 190 197 q 349 97 288 97 q 481 161 430 97 q 531 302 528 218 z "},"Ŕ":{"ha":873,"x_min":79,"x_max":833,"o":"m 764 -7 q 715 14 737 -7 q 216 313 490 236 l 222 180 l 225 46 q 206 -3 226 17 q 157 -24 186 -24 q 109 -4 127 -24 q 90 46 90 16 q 84 206 90 100 q 79 366 79 312 q 93 551 79 428 q 106 736 106 675 q 100 839 106 770 q 94 941 94 907 q 118 1013 94 984 q 186 1042 145 1045 l 350 1029 q 507 983 433 1022 q 781 627 781 838 q 688 445 781 524 q 500 348 612 381 q 815 109 711 234 q 833 63 833 88 q 812 14 833 35 q 764 -7 792 -7 m 332 889 l 231 897 l 238 815 q 243 733 243 758 q 234 598 243 682 l 220 463 q 250 463 230 463 q 279 462 269 462 q 538 508 453 462 q 605 558 572 526 q 645 627 645 598 q 538 803 645 722 q 332 889 435 881 m 355 1144 q 312 1163 331 1144 q 294 1206 294 1182 q 315 1251 294 1230 q 404 1358 342 1278 q 503 1455 447 1416 q 539 1468 522 1468 q 582 1449 564 1468 q 600 1405 600 1430 q 574 1358 600 1378 q 484 1260 538 1329 q 395 1161 428 1189 q 355 1144 376 1144 z "},"ŕ":{"ha":667,"x_min":94,"x_max":623,"o":"m 622 501 q 554 416 617 416 q 496 484 496 416 q 494 531 496 474 l 492 588 q 326 532 389 576 q 220 395 261 486 l 221 23 q 154 -45 221 -45 q 94 23 94 -45 l 94 499 q 96 566 94 522 q 98 633 98 611 q 157 702 98 702 q 224 589 224 702 q 513 715 355 715 q 623 549 623 715 q 622 501 623 513 m 308 805 q 265 824 283 805 q 246 867 246 843 q 267 911 246 890 q 356 1019 295 939 q 456 1116 399 1077 q 492 1129 474 1129 q 534 1110 516 1129 q 553 1066 553 1090 q 527 1019 553 1039 q 437 921 490 989 q 348 822 380 850 q 308 805 328 805 z "},"Ŗ":{"ha":873,"x_min":79,"x_max":833,"o":"m 764 -7 q 715 14 737 -7 q 216 313 490 236 l 222 180 l 225 46 q 206 -3 226 17 q 157 -24 186 -24 q 109 -4 127 -24 q 90 46 90 16 q 84 206 90 100 q 79 366 79 312 q 93 551 79 428 q 106 736 106 675 q 100 839 106 770 q 94 941 94 907 q 118 1013 94 984 q 186 1042 145 1045 l 350 1029 q 507 983 433 1022 q 781 627 781 838 q 688 445 781 524 q 500 348 612 381 q 815 109 711 234 q 833 63 833 88 q 812 14 833 35 q 764 -7 792 -7 m 332 889 l 231 897 l 238 815 q 243 733 243 758 q 234 598 243 682 l 220 463 q 250 463 230 463 q 279 462 269 462 q 538 508 453 462 q 605 558 572 526 q 645 627 645 598 q 538 803 645 722 q 332 889 435 881 m 587 -133 q 422 -302 587 -302 q 313 -280 363 -302 q 248 -202 248 -252 q 294 -165 248 -165 q 351 -182 315 -165 q 415 -199 387 -199 q 481 -136 481 -198 q 433 -62 481 -96 q 350 -23 395 -34 q 304 26 304 -12 q 353 78 304 78 q 509 14 435 78 q 587 -133 587 -52 z "},"ŗ":{"ha":667,"x_min":40,"x_max":623,"o":"m 623 549 q 622 501 623 513 q 554 416 617 416 q 496 484 496 416 q 492 588 496 474 q 326 532 389 576 q 220 395 261 486 l 220 62 q 328 -13 283 38 q 378 -133 378 -70 q 214 -302 378 -302 q 105 -280 155 -302 q 40 -202 40 -252 q 86 -165 40 -165 q 143 -182 106 -165 q 207 -199 179 -199 q 273 -136 273 -198 q 184 -39 273 -79 q 154 -45 171 -45 q 94 23 94 -45 l 94 499 q 96 566 94 522 q 98 633 98 611 q 157 702 98 702 q 212 663 199 702 q 220 589 220 642 q 513 715 350 715 q 623 549 623 715 z "},"Ř":{"ha":873,"x_min":79,"x_max":833,"o":"m 764 -7 q 715 14 737 -7 q 216 313 490 236 l 222 180 l 225 46 q 206 -3 226 17 q 157 -24 186 -24 q 109 -4 127 -24 q 90 46 90 16 q 84 206 90 100 q 79 366 79 312 q 93 551 79 428 q 106 736 106 675 q 100 839 106 770 q 94 941 94 907 q 118 1013 94 984 q 186 1042 145 1045 l 350 1029 q 507 983 433 1022 q 781 627 781 838 q 688 445 781 524 q 500 348 612 381 q 815 109 711 234 q 833 63 833 88 q 812 14 833 35 q 764 -7 792 -7 m 332 889 l 231 897 l 238 815 q 243 733 243 758 q 234 598 243 682 l 220 463 q 250 463 230 463 q 279 462 269 462 q 538 508 453 462 q 605 558 572 526 q 645 627 645 598 q 538 803 645 722 q 332 889 435 881 m 399 1227 l 549 1360 q 582 1374 564 1374 q 618 1358 602 1374 q 633 1322 633 1342 q 616 1284 633 1301 q 393 1103 423 1103 q 349 1128 369 1103 l 315 1170 l 235 1261 q 179 1358 179 1325 q 195 1394 179 1379 q 233 1409 212 1409 q 275 1381 259 1409 q 399 1227 298 1344 z "},"ř":{"ha":667,"x_min":94,"x_max":623,"o":"m 622 501 q 554 416 617 416 q 496 484 496 416 q 494 531 496 474 l 492 588 q 326 532 389 576 q 220 395 261 486 l 221 23 q 154 -45 221 -45 q 94 23 94 -45 l 94 499 q 96 566 94 522 q 98 633 98 611 q 157 702 98 702 q 224 589 224 702 q 513 715 355 715 q 623 549 623 715 q 622 501 623 513 m 345 922 l 494 1055 q 528 1069 509 1069 q 564 1053 548 1069 q 579 1017 579 1037 q 562 979 579 996 q 339 798 369 798 q 294 823 315 798 l 260 865 l 181 956 q 125 1053 125 1020 q 141 1089 125 1074 q 178 1103 157 1103 q 221 1076 205 1103 q 345 922 243 1039 z "},"Ś":{"ha":963,"x_min":91,"x_max":896,"o":"m 91 169 q 110 216 90 198 q 159 233 130 233 q 218 195 193 233 q 279 125 252 144 q 447 87 336 87 q 642 133 552 87 q 758 295 758 191 q 648 437 758 387 q 459 476 566 473 q 275 523 351 479 q 179 680 179 578 q 316 901 179 802 q 587 995 446 995 q 735 972 652 995 q 845 898 845 943 q 784 838 845 838 q 687 853 754 838 q 584 867 619 867 q 418 823 492 865 q 328 688 328 772 q 429 608 328 631 q 573 592 465 600 q 797 511 709 583 q 896 302 896 432 q 747 45 896 141 q 446 -39 617 -39 q 219 9 322 -39 q 91 169 93 67 m 477 1110 q 434 1129 453 1110 q 416 1173 416 1148 q 437 1217 416 1196 q 526 1324 465 1244 q 625 1421 569 1382 q 661 1434 644 1434 q 704 1415 686 1434 q 722 1371 722 1396 q 696 1324 722 1344 q 606 1226 660 1295 q 517 1127 550 1155 q 477 1110 498 1110 z "},"ś":{"ha":676,"x_min":28,"x_max":618,"o":"m 552 522 q 500 547 515 522 q 482 621 490 564 q 326 573 397 599 q 216 466 216 534 q 256 455 235 458 q 488 378 412 427 q 598 172 598 307 q 503 5 598 62 q 302 -41 424 -41 q 132 -11 214 -41 q 28 95 28 27 q 49 142 28 122 q 98 163 71 163 q 152 130 119 163 q 225 104 168 115 q 302 96 271 96 q 402 110 359 96 q 465 172 465 130 q 336 297 465 269 l 266 313 q 138 359 175 333 q 83 473 83 397 q 216 675 83 615 q 346 719 258 694 q 475 762 433 744 q 535 774 502 774 q 602 706 602 774 q 610 648 602 686 q 618 591 618 610 q 552 522 618 522 m 342 805 q 299 824 317 805 q 280 867 280 843 q 301 911 280 890 q 390 1019 329 939 q 490 1116 433 1077 q 526 1129 508 1129 q 568 1110 550 1129 q 587 1066 587 1090 q 561 1019 587 1039 q 471 921 524 989 q 382 822 414 850 q 342 805 362 805 z "},"Ŝ":{"ha":963,"x_min":91,"x_max":896,"o":"m 91 169 q 110 216 90 198 q 159 233 130 233 q 218 195 193 233 q 279 125 252 144 q 447 87 336 87 q 642 133 552 87 q 758 295 758 191 q 648 437 758 387 q 459 476 566 473 q 275 523 351 479 q 179 680 179 578 q 316 901 179 802 q 587 995 446 995 q 735 972 652 995 q 845 898 845 943 q 784 838 845 838 q 687 853 754 838 q 584 867 619 867 q 418 823 492 865 q 328 688 328 772 q 429 608 328 631 q 573 592 465 600 q 797 511 709 583 q 896 302 896 432 q 747 45 896 141 q 446 -39 617 -39 q 219 9 322 -39 q 91 169 93 67 m 515 1451 q 605 1406 553 1451 q 679 1330 621 1392 l 787 1215 q 804 1173 804 1196 q 786 1130 804 1148 q 742 1112 767 1112 q 699 1131 718 1112 q 530 1308 616 1221 q 309 1096 357 1096 q 266 1115 284 1096 q 247 1158 247 1134 q 267 1202 247 1183 q 474 1430 310 1244 q 515 1451 492 1451 z "},"ŝ":{"ha":676,"x_min":28,"x_max":618,"o":"m 552 522 q 500 547 515 522 q 482 621 490 564 q 326 573 397 599 q 216 466 216 534 q 256 455 235 458 q 488 378 412 427 q 598 172 598 307 q 503 5 598 62 q 302 -41 424 -41 q 132 -11 214 -41 q 28 95 28 27 q 49 142 28 122 q 98 163 71 163 q 152 130 119 163 q 225 104 168 115 q 302 96 271 96 q 402 110 359 96 q 465 172 465 130 q 336 297 465 269 l 266 313 q 138 359 175 333 q 83 473 83 397 q 216 675 83 615 q 346 719 258 694 q 475 762 433 744 q 535 774 502 774 q 602 706 602 774 q 610 648 602 686 q 618 591 618 610 q 552 522 618 522 m 312 1146 q 401 1101 349 1146 q 475 1025 417 1087 l 583 909 q 601 868 601 890 q 582 825 601 843 q 538 806 564 806 q 496 826 514 806 q 326 1002 413 916 q 105 791 154 791 q 62 810 81 791 q 43 853 43 829 q 64 897 43 878 q 271 1125 106 939 q 312 1146 289 1146 z "},"Ş":{"ha":963,"x_min":90,"x_max":896,"o":"m 896 302 q 788 75 896 167 q 549 -29 694 -4 q 587 -133 587 -80 q 422 -302 587 -302 q 313 -280 363 -302 q 248 -202 248 -252 q 294 -165 248 -165 q 351 -182 315 -165 q 415 -199 387 -199 q 481 -136 481 -198 q 384 -35 481 -75 q 189 24 269 -22 q 91 169 93 81 q 110 215 90 197 q 159 233 130 233 q 218 195 193 233 q 279 125 252 144 q 447 87 336 87 q 642 133 552 87 q 758 295 758 191 q 648 437 758 387 q 459 476 566 473 q 275 523 351 479 q 179 680 179 578 q 316 901 179 802 q 587 995 446 995 q 735 972 652 995 q 845 898 845 943 q 784 838 845 838 q 687 853 754 838 q 584 867 619 867 q 418 823 492 865 q 328 688 328 772 q 429 608 328 631 q 573 592 465 600 q 797 511 709 583 q 896 302 896 432 z "},"ş":{"ha":676,"x_min":28,"x_max":618,"o":"m 618 591 q 552 522 618 522 q 500 547 515 522 q 482 621 490 564 q 326 573 397 599 q 216 466 216 534 q 256 455 235 458 q 488 378 412 427 q 598 172 598 307 q 395 -33 598 5 q 431 -133 431 -82 q 267 -302 431 -302 q 157 -280 208 -302 q 92 -202 92 -252 q 138 -165 92 -165 q 195 -182 159 -165 q 259 -199 231 -199 q 325 -136 325 -198 q 227 -35 325 -74 q 28 95 28 -4 q 49 142 28 122 q 98 163 71 163 q 152 130 119 163 q 225 104 168 115 q 302 96 271 96 q 402 110 359 96 q 465 172 465 130 q 336 297 465 264 q 266 313 330 298 q 138 359 176 332 q 83 473 83 397 q 216 675 83 615 q 346 719 258 694 q 475 762 433 744 q 535 774 502 774 q 602 706 602 774 q 610 648 602 686 q 618 591 618 610 z "},"Š":{"ha":963,"x_min":92,"x_max":897,"o":"m 92 169 q 111 216 91 198 q 160 233 131 233 q 218 195 193 233 q 280 125 253 144 q 448 87 337 87 q 643 133 553 87 q 758 295 758 191 q 648 437 758 387 q 459 476 567 473 q 276 523 352 479 q 180 680 180 578 q 317 901 180 802 q 587 995 447 995 q 736 972 652 995 q 846 898 846 943 q 785 838 846 838 q 687 853 755 838 q 585 867 620 867 q 418 823 492 865 q 329 688 329 772 q 429 608 329 631 q 574 592 466 600 q 798 511 709 583 q 897 302 897 432 q 747 45 897 141 q 447 -39 618 -39 q 220 9 323 -39 q 92 169 94 67 m 598 1227 l 747 1361 q 781 1375 762 1375 q 817 1359 801 1375 q 832 1322 832 1343 q 814 1285 832 1301 q 592 1103 622 1103 q 547 1128 568 1103 l 513 1171 l 434 1261 q 378 1359 378 1326 q 394 1395 378 1380 q 431 1409 410 1409 q 474 1382 458 1409 q 598 1227 496 1345 z "},"š":{"ha":560,"x_min":29,"x_max":620,"o":"m 553 522 q 501 547 516 522 q 484 621 491 564 q 327 573 398 599 q 217 466 218 534 q 257 455 237 458 q 489 378 413 427 q 600 172 600 307 q 504 5 600 62 q 303 -41 425 -41 q 134 -11 215 -41 q 29 95 29 27 q 51 142 29 122 q 99 163 72 163 q 153 130 120 163 q 227 104 170 115 q 303 96 272 96 q 404 110 360 96 q 467 172 467 130 q 338 297 467 269 l 267 313 q 139 359 176 333 q 84 473 84 397 q 218 675 84 615 q 347 719 259 694 q 476 762 435 744 q 536 774 503 774 q 603 706 603 774 q 611 648 603 686 q 620 591 620 610 q 553 522 620 522 m 349 922 l 498 1055 q 531 1069 513 1069 q 567 1053 551 1069 q 583 1017 583 1037 q 565 979 583 996 q 342 798 372 798 q 298 823 318 798 l 264 865 l 184 956 q 128 1053 128 1020 q 144 1089 128 1074 q 182 1103 161 1103 q 224 1076 208 1103 q 349 922 247 1039 z "},"Ţ":{"ha":944,"x_min":79,"x_max":992,"o":"m 924 857 q 769 864 872 857 q 614 871 666 871 l 566 871 q 585 568 568 781 q 600 263 600 374 q 604 191 600 239 q 609 119 609 143 q 594 39 609 73 q 535 -5 574 -5 q 485 14 506 -5 q 465 62 465 34 q 468 93 465 73 q 471 123 471 113 q 467 223 471 157 q 463 323 463 290 q 447 596 463 417 q 429 869 431 781 l 367 868 q 134 890 224 867 q 79 957 79 904 q 98 1008 79 987 q 149 1027 118 1029 q 257 1015 169 1026 q 367 1007 322 1007 q 490 1009 408 1007 q 614 1010 572 1010 q 769 1003 665 1010 q 924 996 872 996 q 973 976 954 996 q 992 926 992 956 q 972 877 992 897 q 924 857 953 857 m 588 -205 q 553 -346 588 -271 q 460 -433 513 -433 q 412 -384 412 -433 q 427 -341 412 -364 q 471 -267 444 -320 q 412 -178 412 -232 q 436 -118 412 -141 q 498 -94 461 -94 q 588 -205 588 -94 z "},"ţ":{"ha":654,"x_min":44,"x_max":614,"o":"m 548 578 q 514 579 536 578 q 481 581 492 581 q 389 570 465 581 l 403 105 q 332 -43 406 -43 q 284 -26 304 -43 q 264 18 264 -8 q 267 96 264 39 q 269 173 269 144 l 255 569 q 104 581 183 572 q 44 648 44 587 q 63 698 44 677 q 109 717 83 719 l 252 705 q 249 793 252 734 q 245 882 245 852 q 265 929 245 910 q 313 947 285 947 q 385 848 375 947 q 387 787 387 817 l 385 748 l 385 706 q 481 717 469 717 q 573 710 552 717 q 614 646 614 696 q 596 597 614 616 q 548 578 578 578 m 420 -205 q 385 -346 420 -271 q 292 -433 345 -433 q 243 -384 243 -433 q 259 -341 243 -364 q 302 -267 276 -320 q 243 -178 243 -232 q 268 -118 243 -141 q 330 -94 293 -94 q 420 -205 420 -94 z "},"Ť":{"ha":944,"x_min":79,"x_max":992,"o":"m 924 857 q 769 864 872 857 q 614 871 666 871 l 566 871 q 585 568 568 781 q 600 263 600 374 q 604 191 600 239 q 609 119 609 143 q 594 39 609 73 q 535 -5 574 -5 q 485 14 506 -5 q 465 62 465 34 q 468 93 465 73 q 471 123 471 113 q 467 223 471 157 q 463 323 463 290 q 447 596 463 417 q 429 869 431 781 l 367 868 q 134 890 224 867 q 79 957 79 904 q 98 1008 79 987 q 149 1027 118 1029 q 257 1015 169 1026 q 367 1007 322 1007 q 490 1009 408 1007 q 614 1010 572 1010 q 769 1003 665 1010 q 924 996 872 996 q 973 976 954 996 q 992 926 992 956 q 972 877 992 897 q 924 857 953 857 m 522 1261 l 671 1394 q 704 1408 686 1408 q 740 1392 724 1408 q 755 1356 755 1376 q 738 1318 755 1335 q 515 1137 545 1137 q 471 1162 491 1137 l 437 1204 l 357 1295 q 301 1392 301 1359 q 317 1428 301 1413 q 355 1442 334 1442 q 397 1415 381 1442 q 522 1261 420 1378 z "},"ť":{"ha":888,"x_min":44,"x_max":843,"o":"m 548 578 q 514 579 536 578 q 481 581 492 581 q 389 570 465 581 l 403 105 q 332 -43 406 -43 q 284 -26 304 -43 q 264 18 264 -8 q 267 96 264 39 q 269 173 269 144 l 255 569 q 104 581 183 572 q 44 648 44 587 q 63 698 44 677 q 109 717 83 719 l 252 705 q 249 793 252 734 q 245 882 245 852 q 265 929 245 910 q 313 947 285 947 q 385 848 375 947 q 387 787 387 817 l 385 748 l 385 706 q 481 717 469 717 q 573 710 552 717 q 614 646 614 696 q 596 597 614 616 q 548 578 578 578 m 843 834 q 808 693 843 768 q 715 606 768 606 q 667 655 667 606 q 682 698 667 675 q 726 772 699 719 q 667 861 667 807 q 691 921 667 898 q 753 945 716 945 q 843 834 843 945 z "},"Ŧ":{"ha":944,"x_min":28,"x_max":942,"o":"m 942 926 q 922 877 942 897 q 873 857 903 857 q 724 864 823 857 q 574 871 624 871 l 516 871 q 532 591 518 777 q 650 585 612 585 q 699 566 680 585 q 718 517 718 547 q 699 469 718 488 q 650 450 680 450 q 543 455 612 450 q 549 263 549 347 q 554 191 549 239 q 559 119 559 143 q 485 -5 559 -5 q 435 14 456 -5 q 414 62 414 34 q 418 93 414 73 q 422 123 422 113 q 417 223 422 157 q 412 323 412 290 q 408 461 412 385 q 337 456 384 461 q 267 450 290 450 q 218 470 237 450 q 199 519 199 490 q 276 589 199 574 q 397 596 309 596 q 378 869 389 687 l 317 868 q 83 890 167 867 q 28 957 28 905 q 48 1008 28 988 q 98 1027 67 1027 q 208 1017 135 1027 q 317 1007 280 1007 q 440 1009 358 1007 q 564 1010 523 1010 q 719 1003 616 1010 q 873 996 822 996 q 922 975 903 996 q 942 926 942 955 z "},"ŧ":{"ha":654,"x_min":44,"x_max":614,"o":"m 614 646 q 534 579 614 579 q 507 580 525 579 q 481 581 490 581 q 389 570 465 581 l 393 461 q 488 454 441 457 q 541 389 541 441 q 522 340 541 359 q 474 321 503 321 q 399 326 437 321 q 404 92 404 184 q 332 -43 404 -43 q 284 -26 304 -43 q 264 18 264 -8 q 267 96 264 44 q 269 173 269 147 q 265 332 269 243 q 222 326 252 331 q 178 321 194 321 q 130 341 149 321 q 111 390 111 361 q 260 467 111 465 l 255 569 q 104 581 178 572 q 44 648 44 587 q 62 697 44 677 q 109 717 80 717 q 252 705 103 717 q 249 793 252 734 q 245 882 245 852 q 265 929 245 910 q 313 947 285 947 q 387 793 387 947 q 386 749 387 779 q 385 706 385 720 q 509 717 470 717 q 582 707 560 717 q 614 646 614 691 z "},"Ũ":{"ha":1023,"x_min":105,"x_max":942,"o":"m 536 -27 q 233 81 336 -27 q 115 383 138 181 q 105 727 105 472 q 122 967 105 918 q 182 1016 138 1016 q 245 901 245 1016 l 245 503 q 532 92 245 92 q 803 784 803 92 l 803 850 q 802 884 803 865 q 802 905 802 901 q 817 979 802 947 q 873 1019 836 1019 q 941 926 941 1019 q 941 892 941 917 q 942 842 942 860 l 942 758 q 536 -27 942 -27 m 423 1359 q 532 1320 491 1359 l 589 1248 q 665 1208 619 1208 q 722 1234 703 1208 l 753 1293 l 767 1333 q 808 1353 777 1353 q 859 1303 859 1353 q 830 1222 859 1278 q 783 1146 802 1166 q 686 1107 745 1107 q 547 1146 597 1107 q 487 1219 530 1159 q 423 1257 459 1257 q 357 1226 381 1257 l 327 1168 q 283 1138 311 1138 q 246 1152 262 1138 q 231 1187 231 1166 q 233 1202 231 1195 q 301 1314 252 1272 q 423 1359 353 1359 z "},"ũ":{"ha":722,"x_min":61,"x_max":689,"o":"m 648 396 q 648 250 648 390 l 649 103 q 651 58 649 88 q 654 12 654 27 q 634 -36 654 -17 q 586 -54 615 -54 q 519 10 534 -54 q 324 -34 435 -34 q 178 5 235 -34 q 100 132 113 48 q 74 452 74 312 q 94 664 74 543 q 159 723 104 723 q 208 704 188 723 q 227 656 227 686 q 217 555 227 623 q 208 452 208 487 q 237 129 208 227 q 324 104 283 104 q 516 133 415 104 l 514 402 q 527 656 513 537 q 593 719 534 719 q 642 700 622 719 q 660 652 661 682 l 648 396 m 254 1054 q 363 1015 321 1054 l 419 943 q 495 903 450 903 q 553 928 534 903 l 584 988 l 597 1028 q 638 1048 607 1048 q 689 998 689 1048 q 661 917 689 973 q 613 841 633 861 q 516 802 575 802 q 377 841 427 802 q 317 913 360 854 q 254 952 290 952 q 187 921 212 952 l 157 863 q 113 833 142 833 q 77 847 92 833 q 61 882 61 861 q 63 897 61 890 q 132 1009 82 967 q 254 1054 184 1054 z "},"Ū":{"ha":1023,"x_min":105,"x_max":942,"o":"m 536 -27 q 233 81 336 -27 q 115 383 138 181 q 105 727 105 472 q 122 967 105 918 q 182 1016 138 1016 q 245 901 245 1016 l 245 503 q 532 92 245 92 q 803 784 803 92 l 803 850 q 802 884 803 865 q 802 905 802 901 q 817 979 802 947 q 873 1019 836 1019 q 941 926 941 1019 q 941 892 941 917 q 942 842 942 860 l 942 758 q 536 -27 942 -27 m 416 1217 q 496 1214 443 1217 q 576 1211 549 1211 q 659 1212 604 1211 q 741 1213 713 1213 q 794 1162 794 1213 q 750 1113 794 1122 l 674 1109 l 569 1109 q 471 1112 536 1109 q 373 1114 406 1114 q 324 1165 324 1114 q 355 1211 324 1200 q 416 1217 372 1217 z "},"ū":{"ha":722,"x_min":74,"x_max":660,"o":"m 648 396 q 648 250 648 390 l 649 103 q 651 58 649 88 q 654 12 654 27 q 634 -36 654 -17 q 586 -54 615 -54 q 519 10 534 -54 q 324 -34 435 -34 q 178 5 235 -34 q 100 132 113 48 q 74 452 74 312 q 94 664 74 543 q 159 723 104 723 q 208 704 188 723 q 227 656 227 686 q 217 555 227 623 q 208 452 208 487 q 237 129 208 227 q 324 104 283 104 q 516 133 415 104 l 514 402 q 527 656 513 537 q 593 719 534 719 q 642 700 622 719 q 660 652 661 682 l 648 396 m 250 911 q 330 908 277 911 q 410 905 383 905 q 493 907 438 905 q 575 908 547 908 q 628 857 628 908 q 584 808 628 817 l 508 804 l 403 804 q 305 806 370 804 q 207 808 239 808 q 158 860 158 808 q 189 905 158 895 q 250 911 206 911 z "},"Ŭ":{"ha":1023,"x_min":105,"x_max":942,"o":"m 536 -27 q 233 81 336 -27 q 115 383 138 181 q 105 727 105 472 q 122 967 105 918 q 182 1016 138 1016 q 245 901 245 1016 l 245 503 q 532 92 245 92 q 803 784 803 92 l 803 850 q 802 884 803 865 q 802 905 802 901 q 817 979 802 947 q 873 1019 836 1019 q 941 926 941 1019 q 941 892 941 917 q 942 842 942 860 l 942 758 q 536 -27 942 -27 m 517 1206 q 745 1315 715 1206 q 793 1358 756 1358 q 832 1343 815 1358 q 846 1308 848 1328 l 844 1299 q 725 1144 829 1192 q 517 1105 640 1105 q 348 1169 420 1105 q 273 1332 273 1236 q 323 1383 273 1383 q 374 1336 366 1383 q 420 1242 384 1272 q 517 1206 463 1206 z "},"ŭ":{"ha":722,"x_min":74,"x_max":663,"o":"m 648 396 q 648 250 648 390 l 649 103 q 651 58 649 88 q 654 12 654 27 q 634 -36 654 -17 q 586 -54 615 -54 q 519 10 534 -54 q 324 -34 435 -34 q 178 5 235 -34 q 100 132 113 48 q 74 452 74 312 q 94 664 74 543 q 159 723 104 723 q 208 704 188 723 q 227 656 227 686 q 217 555 227 623 q 208 452 208 487 q 237 129 208 227 q 324 104 283 104 q 516 133 415 104 l 514 402 q 527 656 513 537 q 593 719 534 719 q 642 700 622 719 q 660 652 661 682 l 648 396 m 334 901 q 562 1010 532 901 q 610 1053 573 1053 q 649 1038 632 1053 q 663 1003 665 1023 l 661 994 q 542 839 646 886 q 334 800 456 800 q 165 864 237 800 q 90 1027 90 931 q 140 1078 90 1078 q 191 1031 183 1078 q 237 937 201 966 q 334 901 279 901 z "},"Ů":{"ha":1023,"x_min":105,"x_max":942,"o":"m 536 -27 q 233 81 336 -27 q 115 383 138 181 q 105 727 105 472 q 122 967 105 918 q 182 1016 138 1016 q 245 901 245 1016 l 245 503 q 532 92 245 92 q 803 784 803 92 l 803 850 q 802 884 803 865 q 802 905 802 901 q 817 979 802 947 q 873 1019 836 1019 q 941 926 941 1019 q 941 892 941 917 q 942 842 942 860 l 942 758 q 536 -27 942 -27 m 505 1209 q 590 1225 564 1211 q 635 1315 635 1250 q 599 1377 635 1354 q 526 1396 568 1396 q 382 1288 379 1396 q 428 1230 382 1253 q 505 1209 467 1208 m 280 1288 q 354 1447 280 1390 q 526 1497 420 1497 q 672 1450 612 1497 q 737 1315 737 1398 q 494 1109 737 1114 q 348 1155 410 1108 q 280 1288 280 1206 z "},"ů":{"ha":722,"x_min":74,"x_max":660,"o":"m 648 396 q 648 250 648 390 l 649 103 q 651 58 649 88 q 654 12 654 27 q 634 -36 654 -17 q 586 -54 615 -54 q 519 10 534 -54 q 324 -34 435 -34 q 178 5 235 -34 q 100 132 113 48 q 74 452 74 312 q 94 664 74 543 q 159 723 104 723 q 208 704 188 723 q 227 656 227 686 q 217 555 227 623 q 208 452 208 487 q 237 129 208 227 q 324 104 283 104 q 516 133 415 104 l 514 402 q 527 656 513 537 q 593 719 534 719 q 642 700 622 719 q 660 652 661 682 l 648 396 m 335 904 q 420 920 394 906 q 466 1010 466 945 q 429 1072 466 1049 q 357 1091 398 1091 q 212 983 210 1091 q 258 924 213 948 q 335 904 298 903 m 111 983 q 184 1141 111 1085 q 357 1192 251 1192 q 503 1145 442 1192 q 568 1010 568 1093 q 325 804 568 808 q 178 850 241 803 q 111 983 111 901 z "},"Ű":{"ha":1023,"x_min":105,"x_max":942,"o":"m 536 -27 q 233 81 336 -27 q 115 383 138 181 q 105 727 105 472 q 122 967 105 918 q 182 1016 138 1016 q 245 901 245 1016 l 245 503 q 532 92 245 92 q 803 784 803 92 l 803 850 q 802 884 803 865 q 802 905 802 901 q 817 979 802 947 q 873 1019 836 1019 q 941 926 941 1019 q 941 892 941 917 q 942 842 942 860 l 942 758 q 536 -27 942 -27 m 576 1387 q 612 1371 596 1387 q 628 1335 628 1356 q 614 1302 628 1318 q 529 1214 588 1270 q 444 1128 470 1158 q 405 1107 427 1107 q 368 1123 384 1107 q 353 1159 353 1138 q 432 1265 353 1187 l 538 1369 q 576 1387 557 1387 m 804 1366 q 839 1350 825 1366 q 854 1313 854 1334 q 829 1271 854 1295 l 728 1175 q 631 1107 657 1107 q 596 1124 611 1107 q 581 1160 581 1140 q 602 1200 581 1183 l 701 1296 q 804 1366 774 1366 z "},"ű":{"ha":722,"x_min":74,"x_max":698,"o":"m 648 396 q 648 250 648 390 l 649 103 q 651 58 649 88 q 654 12 654 27 q 634 -36 654 -17 q 586 -54 615 -54 q 519 10 534 -54 q 324 -34 435 -34 q 178 5 235 -34 q 100 132 113 48 q 74 452 74 312 q 94 664 74 543 q 159 723 104 723 q 208 704 188 723 q 227 656 227 686 q 217 555 227 623 q 208 452 208 487 q 237 129 208 227 q 324 104 283 104 q 516 133 415 104 l 514 402 q 527 656 513 537 q 593 719 534 719 q 642 700 622 719 q 660 652 661 682 l 648 396 m 420 1082 q 456 1066 440 1082 q 472 1030 472 1050 q 458 997 472 1013 q 373 909 432 965 q 288 823 314 852 q 249 802 271 802 q 212 818 228 802 q 197 854 197 833 q 276 960 197 882 l 382 1063 q 420 1082 401 1082 m 648 1061 q 683 1045 669 1061 q 698 1008 698 1029 q 673 966 698 989 l 572 869 q 475 802 501 802 q 440 819 455 802 q 425 855 425 835 q 446 895 425 878 l 545 991 q 648 1061 618 1061 z "},"Ų":{"ha":1023,"x_min":105,"x_max":942,"o":"m 536 -27 q 233 81 336 -27 q 115 383 138 181 q 105 727 105 472 q 122 967 105 918 q 182 1016 138 1016 q 245 901 245 1016 l 245 503 q 532 92 245 92 q 803 784 803 92 l 803 850 q 802 884 803 865 q 802 905 802 901 q 817 979 802 947 q 873 1019 836 1019 q 941 926 941 1019 q 941 892 941 917 q 942 842 942 860 l 942 758 q 536 -27 942 -27 m 507 -120 q 524 -171 507 -144 q 566 -200 543 -200 q 684 -175 635 -200 q 710 -167 699 -167 q 746 -183 731 -167 q 760 -220 760 -199 q 682 -286 760 -263 q 566 -301 627 -301 q 451 -243 500 -301 q 406 -120 406 -188 q 455 -8 406 -64 q 559 47 504 47 q 594 32 581 47 q 608 -5 608 16 q 557 -59 608 -31 q 507 -120 507 -88 z "},"ų":{"ha":722,"x_min":74,"x_max":760,"o":"m 648 396 q 648 250 648 390 l 649 103 q 651 58 649 88 q 654 12 654 27 q 634 -36 654 -17 q 586 -54 615 -54 q 519 10 534 -54 q 324 -34 435 -34 q 178 5 235 -34 q 100 132 113 48 q 74 452 74 312 q 94 664 74 543 q 159 723 104 723 q 208 704 188 723 q 227 656 227 686 q 217 555 227 623 q 208 452 208 487 q 237 129 208 227 q 324 104 283 104 q 516 133 415 104 l 514 402 q 527 656 513 537 q 593 719 534 719 q 642 700 622 719 q 660 652 661 682 l 648 396 m 507 -120 q 524 -171 507 -144 q 566 -200 543 -200 q 684 -175 635 -200 q 710 -167 699 -167 q 746 -183 731 -167 q 760 -220 760 -199 q 682 -286 760 -263 q 566 -301 627 -301 q 451 -243 500 -301 q 406 -120 406 -188 q 455 -8 406 -64 q 559 47 504 47 q 594 32 581 47 q 608 -5 608 16 q 557 -59 608 -31 q 507 -120 507 -88 z "},"Ŵ":{"ha":1444,"x_min":94,"x_max":1421,"o":"m 965 -65 q 909 -47 934 -65 q 883 3 883 -28 q 827 214 851 87 q 790 429 808 321 q 744 722 755 612 q 614 342 684 498 q 511 61 534 163 q 519 31 519 45 q 492 -20 519 0 q 436 -38 467 -38 q 345 44 345 -38 l 323 130 l 250 463 q 99 945 226 570 q 94 972 94 959 q 165 1035 94 1035 q 233 987 210 1035 q 283 846 245 963 q 363 551 330 701 l 429 251 q 573 661 500 418 q 640 865 617 807 q 759 1015 701 1015 q 826 966 806 1015 q 876 688 850 909 q 922 421 890 567 l 980 155 q 1207 745 1071 373 q 1241 873 1214 765 q 1353 1034 1280 1034 q 1421 966 1421 1034 q 1400 899 1421 957 l 1373 825 l 1335 705 l 1134 215 q 1038 -20 1109 149 q 965 -65 1017 -65 m 746 1451 q 836 1406 783 1451 q 909 1330 851 1392 l 1017 1215 q 1035 1173 1035 1196 q 1016 1130 1035 1148 q 972 1112 998 1112 q 930 1131 948 1112 q 760 1308 847 1221 q 539 1096 588 1096 q 496 1115 515 1096 q 477 1158 477 1134 q 498 1202 477 1183 q 705 1430 541 1244 q 746 1451 723 1451 z "},"ŵ":{"ha":950,"x_min":52,"x_max":913,"o":"m 906 607 q 768 107 852 383 q 705 -20 749 47 q 640 -55 680 -56 q 525 129 566 -54 q 497 288 513 182 l 475 439 l 419 309 l 316 29 q 290 -10 307 3 q 225 -51 270 -50 q 125 151 174 -53 q 77 436 115 195 l 60 538 q 52 640 52 593 q 72 687 52 669 q 120 706 92 706 q 184 650 172 706 q 198 551 191 614 l 208 451 l 248 146 q 404 628 323 354 q 482 703 427 703 q 570 562 538 703 q 599 375 585 469 q 647 109 627 201 l 696 293 l 784 663 q 842 704 793 704 q 892 685 871 704 q 913 638 913 666 q 906 607 913 635 m 475 1146 q 564 1101 512 1146 q 638 1025 580 1087 l 746 909 q 764 868 764 890 q 745 825 764 843 q 701 806 726 806 q 659 826 677 806 q 489 1002 576 916 q 268 791 317 791 q 225 810 243 791 q 206 853 206 829 q 227 897 206 878 q 433 1125 269 939 q 475 1146 452 1146 z "},"Ŷ":{"ha":882,"x_min":20,"x_max":831,"o":"m 795 867 q 751 788 781 846 l 635 500 q 507 216 553 298 l 422 65 l 387 -8 q 326 -47 368 -47 q 277 -27 298 -47 q 256 21 256 -7 q 320 165 256 49 l 404 318 q 246 565 282 475 q 144 749 216 642 q 30 926 46 897 q 20 962 20 944 q 40 1011 20 991 q 90 1031 61 1031 q 145 1000 125 1031 l 199 916 q 294 770 239 856 q 374 616 346 685 q 469 462 396 559 l 625 840 q 698 985 662 907 q 761 1031 719 1031 q 810 1011 789 1031 q 831 963 831 991 q 795 867 831 930 m 400 1451 q 490 1406 437 1451 q 564 1330 505 1392 l 671 1215 q 689 1173 689 1196 q 670 1130 689 1148 q 627 1112 652 1112 q 584 1131 602 1112 q 414 1308 501 1221 q 193 1096 242 1096 q 150 1115 169 1096 q 132 1158 132 1134 q 152 1202 132 1183 q 359 1430 195 1244 q 400 1451 377 1451 z "},"ŷ":{"ha":723,"x_min":-3,"x_max":694,"o":"m 686 605 l 451 98 q 318 -212 347 -127 l 273 -344 q 212 -393 257 -393 q 163 -374 184 -393 q 142 -328 142 -356 q 289 65 142 -260 l 16 582 q -3 634 -3 612 q 18 683 -3 661 q 66 704 39 704 q 115 680 98 704 q 362 224 230 519 l 463 458 q 567 667 508 564 q 624 705 589 705 q 673 686 652 705 q 694 639 694 667 q 686 605 694 624 m 332 1146 q 422 1101 370 1146 q 496 1025 437 1087 l 604 909 q 621 868 621 890 q 603 825 621 843 q 559 806 584 806 q 516 826 534 806 q 347 1002 433 916 q 125 791 174 791 q 82 810 101 791 q 64 853 64 829 q 84 897 64 878 q 291 1125 127 939 q 332 1146 309 1146 z "},"Ÿ":{"ha":882,"x_min":20,"x_max":831,"o":"m 795 867 q 751 788 781 846 l 635 500 q 507 216 553 298 l 422 65 l 387 -8 q 326 -47 368 -47 q 277 -27 298 -47 q 256 21 256 -7 q 320 165 256 49 l 404 318 q 246 565 282 475 q 144 749 216 642 q 30 926 46 897 q 20 962 20 944 q 40 1011 20 991 q 90 1031 61 1031 q 145 1000 125 1031 l 199 916 q 294 770 239 856 q 374 616 346 685 q 469 462 396 559 l 625 840 q 698 985 662 907 q 761 1031 719 1031 q 810 1011 789 1031 q 831 963 831 991 q 795 867 831 930 m 283 1239 q 372 1168 372 1239 q 341 1128 372 1146 q 291 1112 314 1112 q 208 1181 208 1112 q 234 1221 208 1203 q 283 1239 260 1239 m 648 1244 q 695 1224 671 1244 q 719 1181 719 1203 q 622 1119 719 1119 q 572 1133 594 1119 q 548 1176 548 1149 q 578 1236 548 1222 q 648 1244 596 1244 z "},"Ź":{"ha":963,"x_min":46,"x_max":937,"o":"m 859 848 l 767 786 q 488 480 637 697 l 250 134 q 216 86 239 117 l 480 96 q 745 104 691 104 q 877 96 835 104 q 934 41 932 85 q 915 -10 935 9 q 861 -29 894 -29 q 802 -27 842 -29 q 743 -24 763 -24 q 434 -30 640 -24 q 124 -35 227 -35 q 46 34 46 -35 q 88 146 46 88 l 406 588 q 687 899 538 772 l 450 885 l 176 885 q 154 884 168 885 q 132 883 140 883 q 60 953 60 883 q 97 1014 60 999 q 171 1023 120 1023 q 310 1014 218 1023 q 450 1004 403 1004 q 606 1010 502 1004 q 763 1017 711 1017 q 937 951 937 1017 q 859 848 937 902 m 450 1144 q 407 1163 426 1144 q 389 1206 389 1182 q 410 1251 389 1230 q 498 1358 437 1278 q 598 1455 542 1416 q 634 1468 616 1468 q 677 1449 659 1468 q 695 1405 695 1430 q 669 1358 695 1378 q 579 1260 633 1329 q 490 1161 523 1189 q 450 1144 471 1144 z "},"ź":{"ha":747,"x_min":83,"x_max":705,"o":"m 654 549 q 499 338 591 473 q 339 112 388 176 q 463 115 410 115 q 542 105 490 115 q 621 95 594 95 q 688 26 688 95 q 621 -42 688 -42 q 542 -32 594 -42 q 463 -22 490 -22 q 174 -50 311 -22 q 149 -52 160 -52 q 83 5 83 -52 q 117 71 83 40 q 502 569 294 231 q 371 564 412 564 q 165 579 271 564 q 104 646 104 588 q 122 696 104 675 q 169 716 140 716 q 270 708 203 716 q 371 701 337 701 q 509 707 417 701 q 648 713 602 713 q 705 666 705 713 q 654 549 705 611 m 355 805 q 312 824 331 805 q 294 867 294 843 q 315 911 294 890 q 404 1019 342 939 q 503 1116 447 1077 q 539 1129 522 1129 q 582 1110 564 1129 q 600 1066 600 1090 q 574 1019 600 1039 q 484 921 538 989 q 395 822 428 850 q 355 805 376 805 z "}}}
